<?xml version="1.0" encoding="UTF-8"?>
<svg width="49px" height="32px" viewBox="0 0 49 32" version="1.1" xmlns="http://www.w3.org/2000/svg" xmlns:xlink="http://www.w3.org/1999/xlink">
    <!-- Generator: Sketch 59.1 (86144) - https://sketch.com -->
    <desc>Created with Sketch.</desc>
    <g id="Page-1" stroke="none" stroke-width="1" fill="none" fill-rule="evenodd">
        <g id="Group-5" fill-rule="nonzero">
            <path d="M13.2165138,0.22700295 C13.0366972,0.271957078 12.2724771,0.451773592 12.0926606,0.49672772 C10.5192661,0.901314876 9.08073394,1.53067267 7.73211009,2.33984699 L17.8917431,15.8260855 L13.2165138,0.22700295 Z" id="Path" fill="#1978B6"></path>
            <path d="M7.73211009,2.33984699 C6.02385321,3.37379194 4.49541284,4.76736992 3.28165138,6.38571855 C3.10183486,6.61048919 2.92201835,6.83525983 2.78715596,7.1049846 L17.8917431,15.8710396 L7.73211009,2.33984699 Z" id="Path" fill="#35A9E0"></path>
            <path d="M17.846789,15.8260855 L2.74220183,7.06003047 C1.79816514,8.49856258 1.03394495,10.0719571 0.58440367,11.780214 C0.58440367,11.780214 0.58440367,11.780214 0.58440367,11.780214 C0.58440367,11.780214 0.58440367,11.780214 0.58440367,11.780214 C0.269724771,12.9040672 0.0899082569,14.5673699 0.0449541284,15.7811314 C0.0449541284,15.7811314 0.0449541284,15.7811314 0.0449541284,15.7811314 L17.846789,15.8260855 Z" id="Path" fill="#225FAD"></path>
            <path d="M17.7568807,0.047186436 C17.3972477,0.00223230756 15.1495413,-0.0876759493 13.2165138,0.22700295 L17.8917431,15.8260855 L22.2073394,0.991223133 C20.3192661,0.49672772 19.0155963,0.182048821 17.7568807,0.047186436" id="Path" fill="#2EBAA0"></path>
            <polygon id="Path" fill="#28874E" points="17.846789 15.8260855 32.906422 5.75636075 29.9394495 4.22792038 28.006422 3.28388368"></polygon>
            <path d="M28.006422,3.28388368 C26.9724771,2.74443414 26.253211,2.47470937 25.533945,2.2049846 C24.0504587,1.62058093 23.5559633,1.48571855 22.1623853,0.991223133 L17.846789,15.8260855 L28.006422,3.28388368 Z" id="Path" fill="#2B9A97"></path>
            <path d="M41.2678899,10.7013149 C38.1211009,8.6783791 35.3788991,7.06003047 32.906422,5.71140662 C32.4119266,5.44168185 31.9174312,5.21691121 31.4229358,4.94718644 L17.846789,15.8260855 L41.2678899,10.7013149 Z" id="Path" fill="#33A55E"></path>
            <path d="M48.7752294,15.8260855 C46.5275229,14.2077369 44.3697248,12.7692048 42.3917431,11.4655351 C42.0321101,11.1958103 41.6275229,10.9710396 41.2678899,10.746269 L17.8917431,15.8710396 L48.7752294,15.8260855 Z" id="Path" fill="#EFEB63"></path>
            <polygon id="Path" fill="#82C564" points="41.2678899 10.7013149 40.8183486 10.4315901 40.0091743 9.89214056 39.0651376 9.30773689 37.9412844 8.63342497 36.5477064 7.82425066 35.2889908 7.06003047 17.846789 15.8260855"></polygon>
            <polygon id="Path" fill="#E8262E" points="17.846789 15.8260855 32.8614679 25.9407644 29.9394495 27.4242507 28.0513761 28.3682874"></polygon>
            <path d="M41.2678899,20.9508562 C39.1100917,22.3444341 37.1321101,23.5581956 35.2889908,24.5921406 C34.4798165,25.0416818 33.6706422,25.4912231 32.906422,25.8958103 C32.4119266,26.1655351 31.9174312,26.3903057 31.4678899,26.6600305 L17.846789,15.8260855 L41.2678899,20.9508562 Z" id="Path" fill="#F1683C"></path>
            <path d="M48.7752294,15.8260855 C46.5275229,17.4444341 44.3697248,18.9279204 42.3917431,20.2315901 C42.0321101,20.5013149 41.6275229,20.7260855 41.2678899,20.9508562 L17.8917431,15.8260855 L48.7752294,15.8260855 Z" id="Path" fill="#FCBD2A"></path>
            <polygon id="Path" fill="#F89D5F" points="41.2678899 20.9508562 39.6045872 22.0297552 37.9412844 23.0187461 36.5027523 23.8728745 35.2889908 24.5921406 17.846789 15.8260855"></polygon>
            <path d="M13.2165138,31.4701222 C13.0366972,31.4251681 12.2724771,31.2903057 12.0926606,31.2003974 C10.5192661,30.7958103 9.08073394,30.1664525 7.73211009,29.3572782 L17.8917431,15.8260855 L13.2165138,31.4701222 Z" id="Path" fill="#EE2E7E"></path>
            <path d="M7.73211009,29.3572782 C6.02385321,28.3233332 4.49541284,26.9297552 3.28165138,25.3114066 C3.10183486,25.086636 2.92201835,24.8618653 2.78715596,24.5921406 L17.8917431,15.7811314 L7.73211009,29.3572782 Z" id="Path" fill="#762D8A"></path>
            <path d="M17.846789,15.8260855 L2.74220183,24.6370947 C1.79816514,23.1985626 1.03394495,21.6251681 0.58440367,19.9169112 C0.58440367,19.9169112 0.58440367,19.9169112 0.58440367,19.9169112 C0.58440367,19.9169112 0.58440367,19.9169112 0.58440367,19.9169112 C0.269724771,18.793058 0.0899082569,17.0848011 5.32907052e-15,15.8710396 C5.32907052e-15,15.8710396 5.32907052e-15,15.8710396 5.32907052e-15,15.8710396 L17.846789,15.8710396 L17.846789,15.8260855 Z" id="Path" fill="#562B7B"></path>
            <path d="M17.7568807,31.6948929 C17.3972477,31.739847 16.8577982,31.7848011 16.8577982,31.7848011 C16.6779817,31.7848011 16.0486239,31.7848011 16.0486239,31.7848011 C15.059633,31.7848011 14.1155963,31.6499387 13.1715596,31.5150763 L17.846789,15.8710396 L21.6678899,30.8857185 C21.6678899,30.8857185 21.4431193,30.9756268 21.3981651,30.9756268 C19.6899083,31.4251681 18.6110092,31.6049846 17.7568807,31.6948929" id="Path" fill="#DA5F75"></path>
            <line x1="21.712844" y1="30.7958103" x2="17.846789" y2="15.8260855" id="Path" fill="#F0597C"></line>
            <path d="M28.0513761,28.3682874 C27.0174312,28.9077369 26.253211,29.1774617 25.533945,29.4471864 C24.0504587,30.0315901 23.106422,30.346269 21.712844,30.8407644 L17.8917431,15.8260855 L28.0513761,28.3682874 Z" id="Path" fill="#EF4137"></path>
            <path d="M17.846789,15.8260855 L31.4229358,26.6600305 C31.4229358,26.3903057 30.7036697,23.0637002 30.5688073,22.2095718 L17.846789,15.8260855 Z" id="Path" fill="#F0522D"></path>
            <path d="M17.846789,15.8260855 L25.6238532,25.4013149 C27.646789,25.805902 30.0743119,26.3903057 31.4229358,26.6600305 L17.846789,15.8260855 Z" id="Path" fill="#EF3830"></path>
            <polygon id="Path" fill="#E5499A" points="7.73211009 29.3572782 17.846789 15.8260855 14.6550459 26.6600305"></polygon>
            <path d="M17.846789,15.8260855 L9.03577982,20.9508562 C8.94587156,21.6251681 8.18165138,27.6939754 7.73211009,29.3572782 L17.846789,15.8260855" id="Path" fill="#B53B88"></path>
            <polygon id="Path" fill="#6D2A84" points="5.32907052e-15 15.8260855 17.846789 15.8260855 9.03577982 20.9508562"></polygon>
            <polygon id="Path" fill="#EE2E7E" points="14.6550459 26.6600305 17.846789 15.8260855 21.712844 30.8407644"></polygon>
            <polygon id="Path" fill="#D62228" points="25.6238532 25.4013149 17.846789 15.8260855 21.712844 30.8407644"></polygon>
            <polygon id="Path" fill="#21ACDB" points="7.73211009 2.33984699 17.846789 15.8260855 14.4302752 4.40773689"></polygon>
            <path d="M7.73211009,2.33984699 C8.2266055,6.07103965 9.1706422,10.7912231 9.1706422,10.7912231 L17.8917431,15.8260855 L7.73211009,2.33984699 Z" id="Path" fill="#2699BC"></path>
            <polygon id="Path" fill="#1E4583" points="5.32907052e-15 15.8260855 17.846789 15.8260855 9.1706422 10.7912231"></polygon>
            <polygon id="Path" fill="#2CAA9A" points="14.4302752 4.40773689 17.846789 15.8260855 22.1623853 1.03617726"></polygon>
            <line x1="22.1623853" y1="1.03617726" x2="17.846789" y2="15.8260855" id="Path" fill="#29B784"></line>
            <polygon id="Path" fill="#33A55E" points="31.4229358 4.99214056 25.6688073 6.20590203 17.846789 15.8260855"></polygon>
            <polygon id="Path" fill="#2EBAA0" points="22.1623853 1.03617726 25.6688073 6.20590203 17.8917431 15.7811314"></polygon>
            <polygon id="Path" fill="#2EB56D" points="31.4229358 4.99214056 17.846789 15.8260855 30.8385321 9.30773689"></polygon>
            <path d="M36.5926606,15.8260855 C37.2669725,15.0169112 40.5486239,11.6453516 41.2678899,10.7013149 L17.8917431,15.8260855 L36.5926606,15.8260855 Z" id="Path" fill="#E7D555"></path>
            <polygon id="Path" fill="#68BF64" points="41.2678899 10.7013149 30.8385321 9.30773689 17.846789 15.8260855"></polygon>
            <path d="M36.5926606,15.8260855 C38.1211009,17.39948 40.5036697,20.2315901 41.2678899,20.9508562 L17.8917431,15.8260855 L36.5926606,15.8260855 Z" id="Path" fill="#FAA82D"></path>
            <polygon id="Path" fill="#F6913F" points="41.2678899 20.9508562 30.5688073 22.2095718 17.846789 15.8260855"></polygon>
            <path d="M6.24862385,23.0187461 L5.61926606,23.0187461 L5.61926606,25.446269 C5.61926606,25.4912231 5.57431193,25.5361773 5.5293578,25.5361773 L5.16972477,25.5361773 C5.12477064,25.5361773 5.07981651,25.4912231 5.07981651,25.446269 L5.07981651,23.0187461 L4.45045872,23.0187461 C4.40550459,23.0187461 4.36055046,22.9737919 4.36055046,22.9288378 L4.36055046,22.6141589 C4.36055046,22.5692048 4.40550459,22.5242507 4.45045872,22.5242507 L6.24862385,22.5242507 C6.29357798,22.5242507 6.33853211,22.5692048 6.33853211,22.6141589 L6.33853211,22.9288378 C6.33853211,23.0187461 6.29357798,23.0187461 6.24862385,23.0187461" id="Path" fill="#FFFFFF"></path>
            <path d="M8.18165138,25.5811314 L7.82201835,25.5811314 C7.77706422,25.5811314 7.73211009,25.5361773 7.73211009,25.4912231 L7.73211009,25.4013149 C7.55229358,25.5361773 7.37247706,25.5811314 7.14770642,25.5811314 C6.96788991,25.5811314 6.78807339,25.5361773 6.69816514,25.4013149 C6.56330275,25.2664525 6.51834862,24.9967277 6.51834862,24.6820488 L6.51834862,23.3783791 C6.51834862,23.333425 6.56330275,23.2884708 6.60825688,23.2884708 L6.96788991,23.2884708 C7.01284404,23.2884708 7.05779817,23.333425 7.05779817,23.3783791 L7.05779817,24.6820488 C7.05779817,24.8618653 7.05779817,24.9967277 7.14770642,25.086636 C7.19266055,25.1315901 7.28256881,25.1765442 7.37247706,25.1765442 C7.50733945,25.1765442 7.68715596,25.086636 7.77706422,24.9967277 L7.77706422,23.3783791 C7.77706422,23.333425 7.82201835,23.2884708 7.86697248,23.2884708 L8.2266055,23.2884708 C8.27155963,23.2884708 8.31651376,23.333425 8.31651376,23.3783791 L8.31651376,25.4912231 C8.27155963,25.5361773 8.2266055,25.5811314 8.18165138,25.5811314" id="Path" fill="#FFFFFF"></path>
            <path d="M10.2944954,25.5811314 L9.93486239,25.5811314 C9.88990826,25.5811314 9.84495413,25.5361773 9.84495413,25.4912231 L9.84495413,24.1875534 C9.84495413,23.8279204 9.8,23.7380121 9.53027523,23.7380121 C9.39541284,23.7380121 9.26055046,23.7829663 9.12568807,23.8728745 L9.12568807,25.4912231 C9.12568807,25.5361773 9.08073394,25.5811314 9.03577982,25.5811314 L8.67614679,25.5811314 C8.63119266,25.5811314 8.58623853,25.5361773 8.58623853,25.4912231 L8.58623853,23.3783791 C8.58623853,23.333425 8.63119266,23.2884708 8.67614679,23.2884708 L8.99082569,23.2884708 C9.03577982,23.2884708 9.08073394,23.333425 9.08073394,23.3783791 L9.08073394,23.4682874 C9.30550459,23.333425 9.44036697,23.2884708 9.66513761,23.2884708 C10.2045872,23.2884708 10.2944954,23.693058 10.2944954,24.1875534 L10.2944954,25.4912231 C10.3394495,25.5361773 10.2944954,25.5811314 10.2944954,25.5811314" id="Path" fill="#FFFFFF"></path>
            <path d="M11.5324159,22.9737919 L10.8657492,22.9737919 C10.7824159,22.9737919 10.6990826,22.9288378 10.6990826,22.8838837 L10.6990826,22.5242507 C10.6990826,22.4792965 10.7824159,22.4343424 10.8657492,22.4343424 L11.5324159,22.4343424 C11.6157492,22.4343424 11.6990826,22.4792965 11.6990826,22.5242507 L11.6990826,22.9288378 C11.6990826,22.9737919 11.6157492,22.9737919 11.5324159,22.9737919 M11.5324159,25.5811314 L10.8657492,25.5811314 C10.7824159,25.5811314 10.6990826,25.5361773 10.6990826,25.4912231 L10.6990826,23.3783791 C10.6990826,23.333425 10.7824159,23.2884708 10.8657492,23.2884708 L11.5324159,23.2884708 C11.6157492,23.2884708 11.6990826,23.333425 11.6990826,23.3783791 L11.6990826,25.4912231 C11.6990826,25.5361773 11.6157492,25.5811314 11.5324159,25.5811314" id="Shape" fill="#FFFFFF"></path>
            <path d="M12.2724771,25.5811314 C12.1376147,25.5811314 11.8229358,25.5811314 11.5981651,25.4912231 C11.553211,25.4912231 11.5082569,25.446269 11.5082569,25.4013149 L11.5082569,25.1765442 C11.5082569,25.1315901 11.553211,25.1315901 11.553211,25.1315901 L11.553211,25.1315901 C11.7330275,25.1765442 12.0477064,25.1765442 12.1825688,25.1765442 C12.4073394,25.1765442 12.4522936,25.086636 12.4522936,24.9967277 C12.4522936,24.9068195 12.4073394,24.8618653 12.2724771,24.7719571 L11.7779817,24.4123241 C11.5981651,24.2774617 11.4633028,24.0976452 11.4633028,23.8728745 C11.4633028,23.4682874 11.6880734,23.2884708 12.1825688,23.2884708 C12.4972477,23.2884708 12.6321101,23.333425 12.8568807,23.3783791 C12.9018349,23.3783791 12.9018349,23.4233332 12.9018349,23.4682874 L12.9018349,23.693058 C12.9018349,23.7380121 12.8568807,23.7829663 12.8568807,23.7829663 L12.8568807,23.7829663 C12.7669725,23.7829663 12.4522936,23.7380121 12.2275229,23.7380121 C12.0477064,23.7380121 11.9577982,23.7829663 11.9577982,23.9178286 C11.9577982,23.9627828 12.0027523,24.0077369 12.0926606,24.0976452 L12.587156,24.4123241 C12.9018349,24.6370947 12.946789,24.8169112 12.946789,25.0416818 C12.9917431,25.3114066 12.7669725,25.5811314 12.2724771,25.5811314" id="Path" fill="#FFFFFF"></path>
            <path d="M14.1397554,22.9737919 L13.4730887,22.9737919 C13.3897554,22.9737919 13.306422,22.9288378 13.306422,22.8838837 L13.306422,22.5242507 C13.306422,22.4792965 13.3897554,22.4343424 13.4730887,22.4343424 L14.1397554,22.4343424 C14.2230887,22.4343424 14.306422,22.4792965 14.306422,22.5242507 L14.306422,22.9288378 C14.306422,22.9737919 14.2230887,22.9737919 14.1397554,22.9737919 M14.1397554,25.5811314 L13.4730887,25.5811314 C13.3897554,25.5811314 13.306422,25.5361773 13.306422,25.4912231 L13.306422,23.3783791 C13.306422,23.333425 13.3897554,23.2884708 13.4730887,23.2884708 L14.1397554,23.2884708 C14.2230887,23.2884708 14.306422,23.333425 14.306422,23.3783791 L14.306422,25.4912231 C14.2230887,25.5361773 14.2230887,25.5811314 14.1397554,25.5811314" id="Shape" fill="#FFFFFF"></path>
            <path d="M15.8238532,24.5921406 L14.6100917,24.5921406 L14.6100917,24.5921406 C14.6100917,24.8169112 14.7,25.086636 15.059633,25.086636 C15.3293578,25.086636 15.5990826,25.0416818 15.733945,25.0416818 L15.733945,25.0416818 C15.7788991,25.0416818 15.7788991,25.0416818 15.7788991,25.086636 L15.7788991,25.3563607 C15.7788991,25.4013149 15.7788991,25.446269 15.6889908,25.446269 C15.4642202,25.4912231 15.2844037,25.5361773 14.9697248,25.5361773 C14.6100917,25.5361773 14.0706422,25.3114066 14.0706422,24.5022323 L14.0706422,24.2774617 C14.0706422,23.6481039 14.3853211,23.2435167 14.9697248,23.2435167 C15.5541284,23.2435167 15.8238532,23.6481039 15.8238532,24.2774617 L15.8238532,24.5022323 C15.9137615,24.5921406 15.8688073,24.5921406 15.8238532,24.5921406 M15.4192661,24.2325075 C15.4192661,23.9178286 15.2394495,23.7380121 15.0146789,23.7380121 C14.7899083,23.7380121 14.6100917,23.9178286 14.6100917,24.2325075 L14.6100917,24.2325075 L15.4192661,24.2325075 L15.4192661,24.2325075 Z" id="Shape" fill="#FFFFFF"></path>
            <path d="M18.7908257,23.0187461 L18.1614679,23.0187461 L18.1614679,25.446269 C18.1614679,25.4912231 18.1165138,25.5361773 18.0715596,25.5361773 L17.7119266,25.5361773 C17.6669725,25.5361773 17.6220183,25.4912231 17.6220183,25.446269 L17.6220183,23.0187461 L16.9926606,23.0187461 C16.9477064,23.0187461 16.9027523,22.9737919 16.9027523,22.9288378 L16.9027523,22.6141589 C16.9027523,22.5692048 16.9477064,22.5242507 16.9926606,22.5242507 L18.7908257,22.5242507 C18.8357798,22.5242507 18.8807339,22.5692048 18.8807339,22.6141589 L18.8807339,22.9288378 C18.8357798,23.0187461 18.8357798,23.0187461 18.7908257,23.0187461" id="Path" fill="#FFFFFF"></path>
            <path d="M20.7238532,24.5921406 L19.5100917,24.5921406 L19.5100917,24.5921406 C19.5100917,24.8169112 19.6,25.086636 19.959633,25.086636 C20.2293578,25.086636 20.4990826,25.0416818 20.633945,25.0416818 L20.633945,25.0416818 C20.6788991,25.0416818 20.6788991,25.0416818 20.6788991,25.086636 L20.6788991,25.3563607 C20.6788991,25.4013149 20.6788991,25.446269 20.5889908,25.446269 C20.3642202,25.4912231 20.1844037,25.5361773 19.8697248,25.5361773 C19.5100917,25.5361773 18.9706422,25.3114066 18.9706422,24.5022323 L18.9706422,24.2774617 C18.9706422,23.6481039 19.2853211,23.2435167 19.8697248,23.2435167 C20.4541284,23.2435167 20.7238532,23.6481039 20.7238532,24.2774617 L20.7238532,24.5022323 C20.7688073,24.5921406 20.7688073,24.5921406 20.7238532,24.5921406 M20.3192661,24.2325075 C20.3192661,23.9178286 20.1394495,23.7380121 19.9146789,23.7380121 C19.6899083,23.7380121 19.5100917,23.9178286 19.5100917,24.2325075 L19.5100917,24.2325075 L20.3192661,24.2325075 L20.3192661,24.2325075 Z" id="Shape" fill="#FFFFFF"></path>
            <path d="M21.5330275,25.5811314 L21.1733945,25.5811314 C21.1284404,25.5811314 21.0834862,25.5361773 21.0834862,25.4912231 L21.0834862,22.5692048 C21.0834862,22.5242507 21.1284404,22.4792965 21.1733945,22.4792965 L21.5330275,22.4792965 C21.5779817,22.4792965 21.6229358,22.5242507 21.6229358,22.5692048 L21.6229358,25.4912231 C21.6229358,25.5361773 21.5779817,25.5811314 21.5330275,25.5811314" id="Path" fill="#FFFFFF"></path>
            <path d="M23.6458716,24.5921406 L22.4321101,24.5921406 L22.4321101,24.5921406 C22.4321101,24.8169112 22.5220183,25.086636 22.8816514,25.086636 C23.1513761,25.086636 23.4211009,25.0416818 23.5559633,25.0416818 L23.5559633,25.0416818 C23.6009174,25.0416818 23.6458716,25.0416818 23.6458716,25.086636 L23.6458716,25.3563607 C23.6458716,25.4013149 23.6458716,25.446269 23.5559633,25.446269 C23.3311927,25.4912231 23.1963303,25.5361773 22.8366972,25.5361773 C22.4770642,25.5361773 21.9376147,25.3114066 21.9376147,24.5022323 L21.9376147,24.2774617 C21.9376147,23.6481039 22.2522936,23.2435167 22.8366972,23.2435167 C23.4211009,23.2435167 23.6908257,23.6481039 23.6908257,24.2774617 L23.6908257,24.5022323 C23.6908257,24.5921406 23.6908257,24.5921406 23.6458716,24.5921406 M23.2412844,24.2325075 C23.2412844,23.9178286 23.0614679,23.7380121 22.8366972,23.7380121 C22.6119266,23.7380121 22.4321101,23.9178286 22.4321101,24.2325075 L22.4321101,24.2325075 L23.2412844,24.2325075 L23.2412844,24.2325075 Z" id="Shape" fill="#FFFFFF"></path>
            <path d="M25.2642202,25.5361773 C25.1743119,25.5811314 24.9944954,25.5811314 24.7697248,25.5811314 C24.2752294,25.5811314 23.9155963,25.2664525 23.9155963,24.5921406 L23.9155963,24.2325075 C23.9155963,23.5581956 24.2752294,23.2435167 24.7697248,23.2435167 C24.9944954,23.2435167 25.1743119,23.2884708 25.2642202,23.2884708 C25.3091743,23.2884708 25.3541284,23.333425 25.3541284,23.3783791 L25.3541284,23.6481039 C25.3541284,23.693058 25.3091743,23.693058 25.3091743,23.693058 L25.3091743,23.693058 C25.1743119,23.693058 25.0844037,23.6481039 24.8146789,23.6481039 C24.6348624,23.6481039 24.4550459,23.7380121 24.4550459,24.1875534 L24.4550459,24.5471864 C24.4550459,24.9517736 24.6348624,25.086636 24.8146789,25.086636 C25.0394495,25.086636 25.1293578,25.086636 25.3091743,25.0416818 L25.3091743,25.0416818 C25.3541284,25.0416818 25.3541284,25.0416818 25.3541284,25.086636 L25.3541284,25.3563607 C25.3541284,25.4912231 25.3091743,25.5361773 25.2642202,25.5361773" id="Path" fill="#FFFFFF"></path>
            <path d="M26.4779817,25.5811314 C25.893578,25.5811314 25.5788991,25.1765442 25.5788991,24.5921406 L25.5788991,24.2774617 C25.5788991,23.693058 25.893578,23.2884708 26.4779817,23.2884708 C27.0623853,23.2884708 27.3321101,23.7380121 27.3321101,24.2774617 L27.3321101,24.5921406 C27.3321101,25.1765442 27.0623853,25.5811314 26.4779817,25.5811314 M26.8825688,24.2774617 C26.8825688,23.9627828 26.7477064,23.7380121 26.4779817,23.7380121 C26.2082569,23.7380121 26.0733945,23.9627828 26.0733945,24.2774617 L26.0733945,24.5921406 C26.0733945,24.9068195 26.2082569,25.1315901 26.4779817,25.1315901 C26.7477064,25.1315901 26.8825688,24.9068195 26.8825688,24.5921406 L26.8825688,24.2774617 Z" id="Shape" fill="#FFFFFF"></path>
            <path d="M30.2541284,25.5811314 L29.8944954,25.5811314 C29.8495413,25.5811314 29.8045872,25.5361773 29.8045872,25.4912231 L29.8045872,24.0976452 C29.8045872,23.7829663 29.759633,23.693058 29.5348624,23.693058 C29.4449541,23.693058 29.3100917,23.7380121 29.1752294,23.7829663 C29.1752294,23.8728745 29.1752294,23.9627828 29.1752294,24.052691 L29.1752294,25.446269 C29.1752294,25.4912231 29.1302752,25.5361773 29.0853211,25.5361773 L28.7256881,25.5361773 C28.6807339,25.5361773 28.6357798,25.4912231 28.6357798,25.446269 L28.6357798,24.052691 C28.6357798,23.7380121 28.5908257,23.6481039 28.366055,23.6481039 C28.2761468,23.6481039 28.1862385,23.693058 28.006422,23.7829663 L28.006422,25.4013149 C28.006422,25.446269 27.9614679,25.4912231 27.9165138,25.4912231 L27.5568807,25.4912231 C27.5119266,25.4912231 27.4669725,25.446269 27.4669725,25.4013149 L27.4669725,23.3783791 C27.4669725,23.333425 27.5119266,23.2884708 27.5568807,23.2884708 L27.8715596,23.2884708 C27.9165138,23.2884708 27.9614679,23.333425 27.9614679,23.3783791 L27.9614679,23.4682874 C28.0963303,23.3783791 28.2761468,23.2884708 28.5009174,23.2884708 C28.7256881,23.2884708 28.8605505,23.3783791 28.9504587,23.4682874 C29.1302752,23.333425 29.3100917,23.2884708 29.5348624,23.2884708 C30.0293578,23.2884708 30.1642202,23.6481039 30.1642202,24.1425993 L30.1642202,25.5361773 C30.2990826,25.5361773 30.2541284,25.5811314 30.2541284,25.5811314" id="Path" fill="#FFFFFF"></path>
            <path d="M4.45045872,9.17287451 L4.45045872,10.7013149 L8.5412844,10.7013149 L8.5412844,19.2875534 C8.5412844,20.9508562 9.57522936,21.5352598 10.7889908,21.5352598 L12.4972477,21.5352598 L12.4972477,10.7013149 L14.5201835,10.7013149 C15.733945,10.7013149 16.7229358,9.57746167 16.7229358,8.58847084 L16.7229358,7.06003047 L6.65321101,7.06003047 C5.2146789,7.06003047 4.45045872,8.22883781 4.45045872,9.17287451" id="Path" fill="#FFFFFF"></path>
            <path d="M20.2293578,7.1049846 C18.7908257,7.1049846 17.9816514,8.22883781 17.9816514,9.21782864 L17.9816514,10.746269 L22.0724771,10.746269 L22.0724771,19.3325075 C22.0724771,20.9958103 23.106422,21.580214 24.3201835,21.580214 L26.0733945,21.580214 L26.0733945,10.7013149 L28.0963303,10.7013149 C29.3100917,10.7013149 30.2990826,9.57746167 30.2990826,8.58847084 L30.2990826,7.06003047 L20.2293578,7.06003047 L20.2293578,7.1049846 Z" id="Path" fill="#FFFFFF"></path>
        </g>
    </g>
</svg>