<?xml version="1.0" encoding="UTF-8"?>
<svg width="89px" height="53px" viewBox="0 0 89 53" version="1.1" xmlns="http://www.w3.org/2000/svg" xmlns:xlink="http://www.w3.org/1999/xlink">
    <!-- Generator: Sketch 59.1 (86144) - https://sketch.com -->
    <desc>Created with Sketch.</desc>
    <g id="Page-1" stroke="none" stroke-width="1" fill="none" fill-rule="evenodd">
        <g id="Group-4" fill-rule="nonzero">
            <g id="Group-3">
                <path d="M51.697114,44.5518267 L49.0081647,49.0303784 C48.5546169,49.7906649 47.9258489,50.4314174 47.1744473,50.8994291 C46.7456949,51.1694915 46.2792329,51.3744661 45.7903518,51.507741 C41.3293635,52.7331464 31.4817982,52.9888482 15.700919,37.1991874 C-0.0799601043,21.4095265 0.166959974,11.5707429 1.39236543,7.10975462 C1.52564029,6.62087353 1.73061494,6.15441154 2.00067732,5.7256591 C2.46868902,4.97415423 3.10944146,4.34548951 3.869728,3.89194175 L8.34827966,1.20299243 C9.37098337,0.590651303 10.694227,0.889434929 11.3546091,1.88186768 L15.2425155,7.70050315 L18.4956617,12.5846649 C19.1388937,13.5606708 18.9282368,14.866661 18.0108099,15.5909944 L16.9352095,16.4285597 L13.9994434,18.7031172 C13.1354298,19.3779632 12.8856169,20.5783667 13.4087982,21.5418716 C14.5901919,23.657739 15.7010224,26.1526649 21.2198411,31.6803687 C26.7386598,37.2080724 29.2424707,38.3101211 31.3583381,39.4914115 C32.321843,40.0144895 33.5222465,39.76478 34.1970925,38.9007663 L36.47165,35.9650002 L37.3092153,34.8893998 C38.0335487,33.9718696 39.3394356,33.761316 40.3155448,34.404548 L45.3495116,37.7634876 L51.0182387,41.5456006 C52.0105682,42.2058794 52.3094551,43.529123 51.697114,44.5518267 Z" id="Path" fill="#E0BAD2"></path>
                <path d="M49.9338567,46.3149807 L47.2449073,50.7935324 C47.218459,50.8287624 47.2007923,50.8640957 47.174344,50.8993258 C46.7455916,51.1693881 46.2791296,51.3743628 45.7902485,51.5076377 C41.3292602,52.7330431 31.4816949,52.9887449 15.7008157,37.1990841 C-0.0800634182,21.4094232 0.166959974,11.5707429 1.39236543,7.10975462 C1.52564029,6.62087353 1.73061494,6.15441154 2.00067732,5.7256591 C2.03590734,5.69921076 2.07124068,5.68154409 2.10647069,5.65509575 L6.58502235,2.96614643 C7.60772606,2.3538053 8.93096972,2.65258892 9.59135179,3.64502167 L13.4792582,9.46365715 L16.7324044,14.3478189 C17.3677845,15.3255811 17.1580574,16.6257858 16.2475526,17.3541484 L13.2941198,19.6463726 L12.2361861,20.4662712 C11.3702095,21.1398774 11.1200867,22.341934 11.6455409,23.3050256 C12.8269346,25.420893 13.937765,27.9158189 19.4565838,33.4435226 C24.9754025,38.9712264 27.4792134,40.0732751 29.5950808,41.2545655 C30.5582758,41.7800197 31.760229,41.5298969 32.4338352,40.6639203 L33.2537339,39.6059866 L35.545958,36.6525538 C36.2743206,35.7419457 37.5745253,35.5323219 38.5522875,36.167702 L43.5862543,39.5266416 L49.2549814,43.3087546 C50.2474142,43.9690334 50.5461978,45.2923803 49.9338567,46.3149807 Z" id="Path" fill="#FFFFFF"></path>
                <path d="M43.2036832,51.9608755 C37.7862153,51.5386318 29.567806,48.4273355 18.3422407,37.1991874 C2.55609253,21.4183082 2.81179428,11.5707429 4.03719974,7.10975462 C4.17047459,6.62087353 4.37544925,6.15441154 4.64551163,5.7256591 C5.11352333,4.97415423 5.75427576,4.34548951 6.51456231,3.89194175 L10.8053927,1.31591446 C10.0826091,0.79046027 9.11631475,0.746035319 8.34838298,1.20309575 L3.869728,3.89183844 C3.10944146,4.3453862 2.46868902,4.97415423 2.00067732,5.72555579 C1.73061494,6.15430822 1.52564029,6.62077021 1.39236543,7.1096513 C0.166959974,11.5707429 -0.0887417807,21.4183082 15.700919,37.1991874 C28.9338723,50.4400957 37.9968723,52.3963433 43.2036832,51.9608755 Z" id="Path" fill="#FFFFFF"></path>
                <path d="M15.0749405,37.8250626 C12.3442524,35.091895 9.79622313,32.182164 7.44727966,29.1147761 C5.0230204,25.9718657 3.04693658,22.507546 1.5757475,18.8211016 C0.84562859,16.9413063 0.352511631,14.9778267 0.107864457,12.9760178 C-0.125418194,10.9323667 0.0204609483,8.86330043 0.538063287,6.87264935 L2.23778259,7.33900803 C1.77937908,9.11672928 1.65178648,10.9635675 1.86130695,12.7873667 C2.09076699,14.6415402 2.54948044,16.4601737 3.22690929,18.2013219 C4.64013931,21.7326922 6.53636153,25.0509262 8.86133619,28.0612848 C11.1592426,31.0612088 13.6515857,33.9069885 16.3224551,36.5803375 L15.0749405,37.8250626 Z" id="Path" fill="#FFFFFF"></path>
                <path d="M0.108690968,12.975088 C0.353338141,14.9768969 0.8464551,16.9403764 1.57657401,18.8201718 C3.04776309,22.5066162 5.02384691,25.9710392 7.44810617,29.1138462 C7.61795413,29.3589067 7.79782352,29.5964252 7.98761105,29.8261952 C8.29218025,30.2108326 8.84955841,30.2788131 9.23770851,29.9786864 C9.61656036,29.6809359 9.68278454,29.1326494 9.38586056,28.7532809 C9.20072216,28.5293998 9.02436543,28.2983901 8.8568937,28.060355 C6.53336543,25.0491698 4.6385896,21.730316 3.22690929,18.1986357 C2.54968707,16.4583141 2.09097362,14.6406104 1.86130695,12.7872634 C1.65209643,10.9649106 1.77968902,9.11951875 2.23778259,7.34334721 C2.55898531,6.20834136 3.30718415,5.24184039 4.32544535,4.64654604 L8.8031705,1.96028288 C9.42119389,1.58783649 10.2229093,1.76822245 10.6219073,2.36930238 L17.76296,13.0764388 C18.1528664,13.6660509 18.0247572,14.4562985 17.4685155,14.8925928 L13.4598352,18.0108111 C12.2399054,18.9436318 11.8915311,20.63147 12.6426227,21.9710373 L12.9609327,22.5493881 C14.0876734,24.6158716 15.4885058,27.1866299 20.6027475,32.3000451 C25.7169892,37.4134603 28.286921,38.8142926 30.3524746,39.9409301 L30.931652,40.2600665 C32.2712192,41.0110548 33.9590574,40.6627839 34.8918781,39.442854 L38.0100964,35.4341737 C38.4464941,34.8782419 39.2364317,34.7502361 39.8262504,35.1397293 L50.5333869,42.2807819 C51.1345701,42.6798833 51.3148528,43.4814954 50.9424064,44.0995187 L48.2561432,48.5772439 C47.6610555,49.5943687 46.6951744,50.3413277 45.5610984,50.661394 C40.1374317,52.1504564 30.6618995,50.9170957 16.3224551,36.5776513 L13.9024317,34.0571035 C13.5677982,33.709969 13.0186851,33.688893 12.6584298,34.0094759 C12.4837261,34.1670295 12.3802056,34.3885343 12.3712173,34.6235733 C12.362229,34.8586123 12.4487027,35.0873492 12.6108021,35.257817 L15.0749405,37.8250626 C26.9564454,49.7056377 35.8016598,52.9007614 41.881266,52.9007614 C43.2804454,52.9066104 44.6741491,52.7245714 46.0248742,52.359357 C47.5964843,51.9188267 48.9362582,50.8865149 49.7628723,49.4791737 L52.4553342,45.0041347 C53.3129424,43.5793336 52.8977241,41.7319788 51.5129054,40.8111425 L40.8048391,33.6700899 C39.4459522,32.7711562 37.6244259,33.0669437 36.6198021,34.3497917 L33.5006539,38.3602283 C33.0996929,38.8887819 32.3711237,39.0420996 31.7912231,38.7199671 L31.1978917,38.3928755 C29.2310029,37.3207878 26.7837046,35.9860763 21.852845,31.0534603 C16.9219853,26.1208443 15.5845877,23.6716864 14.5124999,21.7084135 L14.1871647,21.1150821 C13.8605896,20.5352848 14.0110146,19.8035129 14.5397748,19.3994525 L18.5476286,16.2812341 C19.82996,15.2765071 20.1261608,13.4554973 19.2282602,12.0961971 L12.0872075,1.38813084 C11.1667845,0.00393200487 9.32066953,-0.41159626 7.89597167,0.444772161 L3.41824652,3.13454799 C2.01131865,3.96188522 0.978903443,5.30134916 0.537236777,6.87264935 C0.0204609483,8.86319711 -0.124798311,10.9319534 0.108690968,12.975088 Z" id="Path" fill="#723288"></path>
                <path d="M10.9772036,31.1522283 C10.8632485,31.1443764 10.7488801,31.1587371 10.6404005,31.194587 C10.5303713,31.2273375 10.427884,31.2815772 10.3389307,31.3542069 C10.1607144,31.5078345 10.0465526,31.722624 10.0188645,31.9563199 C10.0085331,32.1900158 10.0876715,32.4189593 10.2401627,32.5963492 C10.3986461,32.7715694 10.616845,32.8812887 10.8519873,32.9040178 L11.0221452,32.8969924 C11.0826871,32.8906903 11.1420925,32.8758131 11.1985019,32.8528774 C11.252845,32.83924 11.3048118,32.8175441 11.3527494,32.7885129 C11.4032699,32.757932 11.4516208,32.7237351 11.4972855,32.6862322 C11.6707494,32.5308482 11.7793323,32.3158521 11.8014415,32.0841191 C11.8234473,31.6031932 11.4605058,31.1911776 10.980613,31.1522283 L10.9772036,31.1522283 L10.9772036,31.1522283 Z" id="Path" fill="#B53B88"></path>
                <path d="M29.9742426,8.82011524 C38.2477183,8.82931017 44.9523732,15.5340685 44.9616715,23.8075441 C44.9616715,24.2944622 45.3563303,24.6891211 45.8432485,24.6891211 C46.3301666,24.6891211 46.7248255,24.2944622 46.7248255,23.8075441 C46.7145974,14.5606455 39.2210379,7.067086 29.9742426,7.05696124 C29.4873245,7.05696124 29.0926656,7.45172343 29.0926656,7.93853824 C29.0926656,8.42535306 29.4873245,8.82011524 29.9742426,8.82011524 Z" id="Path" fill="#B53B88"></path>
                <path d="M29.9742426,14.1097839 C35.3275526,14.116086 39.6657007,18.4542341 39.6720029,23.8075441 C39.6720029,24.2944622 40.066765,24.6891211 40.5535799,24.6891211 C41.040498,24.6891211 41.4351569,24.2944622 41.4351569,23.8075441 C41.4278216,17.4808111 36.3008723,12.3538618 29.9742426,12.3466299 C29.4873245,12.3466299 29.0926656,12.741392 29.0926656,13.2282069 C29.0926656,13.7150217 29.4873245,14.1097839 29.9742426,14.1097839 Z" id="Path" fill="#B53B88"></path>
                <path d="M29.9742426,19.3994525 C32.4074902,19.4023453 34.3793381,21.3741932 34.3823342,23.8075441 C34.3823342,24.2944622 34.7769931,24.6891211 35.2639112,24.6891211 C35.7508294,24.6891211 36.1454882,24.2944622 36.1454882,23.8075441 C36.1415623,20.4008735 33.3809132,17.6401211 29.9742426,17.6362985 C29.4873245,17.6362985 29.0926656,18.0310607 29.0926656,18.5178755 C29.0925623,19.0046903 29.4873245,19.3994525 29.9742426,19.3994525 Z" id="Path" fill="#B53B88"></path>
            </g>
            <path d="M75,21.4996181 C75,23.4300469 73.4490822,25 71.5431229,25 C70.3281367,25 69.359316,24.1179037 68.4634146,23.0634615 C68.2089515,22.7638288 67.9600201,22.4504491 67.7131003,22.1398698 C67.0115665,21.2552278 66.0500377,20.0434593 65.45738,20.0434593 C64.6640684,20.0434593 64.0183556,20.6966942 64.0183556,21.4996181 C64.0183556,22.3033058 64.6640684,22.9565407 65.45738,22.9565407 C65.4734725,22.9565407 65.62434,22.950431 65.9343726,22.7467724 C66.4020619,22.4389934 67.0269047,22.5736626 67.3303998,23.0471688 C67.6338949,23.5199112 67.5011315,24.1525257 67.0336937,24.4605593 C66.4893136,24.8182347 65.9585114,25 65.45738,25 C63.5506663,25 62,23.4300469 62,21.4996181 C62,19.5699531 63.5506663,18 65.45738,18 C66.6394267,18 67.5881317,18.8342365 68.4634146,19.8504928 C68.7437767,20.1755828 69.016344,20.5195113 69.2866482,20.8601302 C69.9891878,21.7447722 70.9504651,22.9565407 71.5431229,22.9565407 C72.3364345,22.9565407 72.9816444,22.3033058 72.9816444,21.4996181 C72.9816444,20.6966942 72.3364345,20.0434593 71.5431229,20.0434593 C71.5230072,20.0434593 71.3379431,20.0516056 70.9512195,20.3329091 C70.4983656,20.6618176 69.8679909,20.5569335 69.5423686,20.0992108 C69.2175006,19.6407245 69.3210963,19.0020002 69.7739502,18.672837 C70.3879809,18.226061 70.9834046,18 71.5431229,18 C73.4490822,18 75,19.5699531 75,21.4996181 L75,21.4996181 Z" id="Path" fill="#E0BAD2" transform="translate(68.500000, 21.500000) rotate(-80.000000) translate(-68.500000, -21.500000) "></path>
            <path d="M90,33.4996181 C90,35.4300469 88.4490822,37 86.5431229,37 C85.3281367,37 84.359316,36.1179037 83.4634146,35.0634615 C83.2089515,34.7638288 82.9600201,34.4504491 82.7131003,34.1398698 C82.0115665,33.2552278 81.0500377,32.0434593 80.45738,32.0434593 C79.6640684,32.0434593 79.0183556,32.6966942 79.0183556,33.4996181 C79.0183556,34.3033058 79.6640684,34.9565407 80.45738,34.9565407 C80.4734725,34.9565407 80.62434,34.950431 80.9343726,34.7467724 C81.4020619,34.4389934 82.0269047,34.5736626 82.3303998,35.0471688 C82.6338949,35.5199112 82.5011315,36.1525257 82.0336937,36.4605593 C81.4893136,36.8182347 80.9585114,37 80.45738,37 C78.5506663,37 77,35.4300469 77,33.4996181 C77,31.5699531 78.5506663,30 80.45738,30 C81.6394267,30 82.5881317,30.8342365 83.4634146,31.8504928 C83.7437767,32.1755828 84.016344,32.5195113 84.2866482,32.8601302 C84.9891878,33.7447722 85.9504651,34.9565407 86.5431229,34.9565407 C87.3364345,34.9565407 87.9816444,34.3033058 87.9816444,33.4996181 C87.9816444,32.6966942 87.3364345,32.0434593 86.5431229,32.0434593 C86.5230072,32.0434593 86.3379431,32.0516056 85.9512195,32.3329091 C85.4983656,32.6618176 84.8679909,32.5569335 84.5423686,32.0992108 C84.2175006,31.6407245 84.3210963,31.0020002 84.7739502,30.672837 C85.3879809,30.226061 85.9834046,30 86.5431229,30 C88.4490822,30 90,31.5699531 90,33.4996181 L90,33.4996181 Z" id="Path-Copy-3" fill="#E0BAD2" transform="translate(83.500000, 33.500000) rotate(-80.000000) translate(-83.500000, -33.500000) "></path>
            <path d="M68.0419318,36.9995636 C68.0419318,39.2057679 66.2474088,41 64.0420772,41 C62.6362511,41 61.5152562,39.99189 60.478634,38.7868131 C60.1842019,38.4443758 59.8961705,38.0862276 59.6104665,37.7312798 C58.7987417,36.7202604 57.6861839,35.335382 57.0004364,35.335382 C56.0825181,35.335382 55.335382,36.0819362 55.335382,36.9995636 C55.335382,37.9180638 56.0825181,38.664618 57.0004364,38.664618 C57.0190566,38.664618 57.1936211,38.6576354 57.5523512,38.4248827 C58.0935011,38.0731353 58.816489,38.227043 59.1676546,38.7681929 C59.5188202,39.30847 59.3652035,40.0314579 58.8243445,40.3834964 C58.1944576,40.7922682 57.5802815,41 57.0004364,41 C54.7942321,41 53,39.2057679 53,36.9995636 C53,34.7942321 54.7942321,33 57.0004364,33 C58.3681492,33 59.465869,33.9534131 60.478634,35.1148489 C60.803033,35.4863804 61.1184129,35.8794414 61.4311743,36.2687202 C62.244063,37.2797396 63.3563297,38.664618 64.0420772,38.664618 C64.9599956,38.664618 65.7065498,37.9180638 65.7065498,36.9995636 C65.7065498,36.0819362 64.9599956,35.335382 64.0420772,35.335382 C64.018802,35.335382 63.8046695,35.3446922 63.3572026,35.6661818 C62.8332181,36.0420773 62.1038295,35.9222097 61.7270611,35.3990981 C61.3511655,34.8751137 61.4710331,34.1451431 61.9950176,33.7689566 C62.7054951,33.2583555 63.394443,33 64.0420772,33 C66.2474088,33 68.0419318,34.7942321 68.0419318,36.9995636 L68.0419318,36.9995636 Z" id="Path-Copy-2" fill="#E0BAD2" transform="translate(60.520966, 37.000000) rotate(50.000000) translate(-60.520966, -37.000000) "></path>
        </g>
    </g>
</svg>