<svg width="898" height="478" viewBox="0 0 898 478" fill="none" xmlns="http://www.w3.org/2000/svg">
<g filter="url(#filter0_ddi)">
<path fill-rule="evenodd" clip-rule="evenodd" d="M154 110H744C768.3 110 788 129.7 788 154V326C788 350.3 768.3 370 744 370H154C129.7 370 110 350.3 110 326V154C110 129.7 129.7 110 154 110Z" fill="#F1F3F6"/>
</g>
<path d="M343.7 269.6L341 274C340.5 274.8 339.9 275.4 339.2 275.9C338.8 276.2 338.3 276.4 337.8 276.5C333.3 277.7 323.5 278 307.7 262.2C291.9 246.4 292.2 236.6 293.4 232.1C293.5 231.6 293.7 231.1 294 230.7C294.5 229.9 295.1 229.3 295.9 228.9L300.4 226.2C301.4 225.6 302.7 225.9 303.4 226.9L307.3 232.7L310.6 237.6C311.2 238.6 311 239.9 310.1 240.6L309 241.4L306.1 243.7C305.2 244.4 305 245.6 305.5 246.5C306.7 248.6 307.8 251.1 313.3 256.6C318.8 262.1 321.3 263.2 323.4 264.4C324.4 264.9 325.6 264.7 326.2 263.8L328.5 260.9L329.3 259.8C330 258.9 331.3 258.7 332.3 259.3L337.3 262.7L343 266.5C344 267.2 344.3 268.5 343.7 269.6Z" fill="#E0BAD2"/>
<path d="M341.9 271.3L339.2 275.8C339.2 275.8 339.2 275.9 339.1 275.9C338.7 276.2 338.2 276.4 337.7 276.5C333.2 277.7 323.4 278 307.6 262.2C291.8 246.4 292.1 236.6 293.3 232.1C293.4 231.6 293.6 231.1 293.9 230.7C293.9 230.7 294 230.7 294 230.6L298.5 227.9C299.5 227.3 300.8 227.6 301.5 228.6L305.4 234.4L308.7 239.3C309.3 240.3 309.1 241.6 308.2 242.3L305.2 244.6L304.1 245.4C303.2 246.1 303 247.3 303.5 248.2C304.7 250.3 305.8 252.8 311.3 258.3C316.8 263.8 319.3 264.9 321.4 266.1C322.4 266.6 323.6 266.4 324.2 265.5L325 264.4L327.3 261.4C328 260.5 329.3 260.3 330.3 260.9L335.3 264.3L341 268.1C342.2 269 342.5 270.3 341.9 271.3Z" fill="white"/>
<path d="M335.2 277C329.8 276.6 321.6 273.5 310.3 262.2C294.6 246.4 294.8 236.6 296 232.1C296.1 231.6 296.3 231.1 296.6 230.7C297.1 229.9 297.7 229.3 298.5 228.9L302.8 226.3C302.1 225.8 301.1 225.7 300.3 226.2L295.8 228.9C295 229.4 294.4 230 293.9 230.7C293.6 231.1 293.4 231.6 293.3 232.1C292.1 236.6 291.8 246.4 307.6 262.2C320.9 275.4 330 277.4 335.2 277Z" fill="white"/>
<path d="M307.1 262.8C304.4 260.1 301.8 257.2 299.5 254.1C297.1 251 295.1 247.5 293.6 243.8C292.9 241.9 292.4 240 292.1 238C291.9 236 292 233.9 292.5 231.9L294.2 232.4C293.7 234.2 293.6 236 293.8 237.8C294 239.7 294.5 241.5 295.2 243.2C296.6 246.7 298.5 250 300.8 253.1C303.1 256.1 305.6 258.9 308.3 261.6L307.1 262.8Z" fill="white"/>
<path d="M292.1 238C292.3 240 292.8 242 293.6 243.8C295.1 247.5 297 251 299.5 254.1C299.7 254.3 299.8 254.6 300 254.8C300.3 255.2 300.9 255.3 301.3 255C301.7 254.7 301.7 254.2 301.4 253.8C301.2 253.6 301 253.3 300.9 253.1C298.6 250.1 296.7 246.8 295.3 243.2C294.6 241.5 294.2 239.6 293.9 237.8C293.7 236 293.8 234.1 294.3 232.4C294.6 231.3 295.4 230.3 296.4 229.7L300.9 227C301.5 226.6 302.3 226.8 302.7 227.4L309.8 238.1C310.2 238.7 310.1 239.5 309.5 239.9L305.5 243C304.3 243.9 303.9 245.6 304.7 247L305 247.6C306.1 249.7 307.5 252.2 312.6 257.4C317.7 262.5 320.3 263.9 322.3 265L322.9 265.3C324.2 266.1 325.9 265.7 326.9 264.5L330 260.5C330.4 259.9 331.2 259.8 331.8 260.2L342.5 267.3C343.1 267.7 343.3 268.5 342.9 269.1L340.2 273.6C339.6 274.6 338.6 275.4 337.5 275.7C332.1 277.2 322.6 276 308.3 261.6L305.9 259.1C305.6 258.8 305 258.7 304.7 259.1C304.5 259.3 304.4 259.5 304.4 259.7C304.4 259.9 304.5 260.2 304.6 260.3L307.1 262.9C319 274.7 327.8 277.9 333.9 277.9C335.3 277.9 336.7 277.7 338 277.4C339.6 277 340.9 275.9 341.7 274.5L344.4 270C345.3 268.6 344.8 266.7 343.5 265.8L332.8 258.7C331.4 257.8 329.6 258.1 328.6 259.4L325.5 263.4C325.1 263.9 324.4 264.1 323.8 263.8L323.2 263.5C321.2 262.4 318.8 261.1 313.9 256.2C309 251.3 307.6 248.8 306.6 246.9L306.3 246.3C306 245.7 306.1 245 306.7 244.6L310.7 241.5C312 240.5 312.3 238.7 311.4 237.3L304.3 226.6C303.4 225.2 301.5 224.8 300.1 225.7L295.6 228.4C294.2 229.2 293.2 230.6 292.7 232.1C292 233.9 291.9 235.9 292.1 238Z" fill="#723288"/>
<path d="M303 256.2C302.9 256.2 302.8 256.2 302.7 256.2C302.6 256.2 302.5 256.3 302.4 256.4C302.2 256.6 302.1 256.8 302.1 257C302.1 257.2 302.2 257.5 302.3 257.6C302.5 257.8 302.7 257.9 302.9 257.9H303.1C303.2 257.9 303.2 257.9 303.3 257.9C303.4 257.9 303.4 257.9 303.5 257.8C303.6 257.8 303.6 257.7 303.6 257.7C303.8 257.5 303.9 257.3 303.9 257.1C303.8 256.6 303.5 256.2 303 256.2Z" fill="#B53B88"/>
<path d="M322 233.8C330.3 233.8 337 240.5 337 248.8C337 249.3 337.4 249.7 337.9 249.7C338.4 249.7 338.8 249.3 338.8 248.8C338.8 239.6 331.3 232.1 322 232C321.5 232 321.1 232.4 321.1 232.9C321.1 233.4 321.5 233.8 322 233.8Z" fill="#35A9E0"/>
<path d="M322 239.1C327.4 239.1 331.7 243.4 331.7 248.8C331.7 249.3 332.1 249.7 332.6 249.7C333.1 249.7 333.5 249.3 333.5 248.8C333.5 242.5 328.4 237.3 322 237.3C321.5 237.3 321.1 237.7 321.1 238.2C321.1 238.7 321.5 239.1 322 239.1Z" fill="#35A9E0"/>
<path d="M322 244.4C324.4 244.4 326.4 246.4 326.4 248.8C326.4 249.3 326.8 249.7 327.3 249.7C327.8 249.7 328.2 249.3 328.2 248.8C328.2 245.4 325.4 242.6 322 242.6C321.5 242.6 321.1 243 321.1 243.5C321.1 244 321.5 244.4 322 244.4Z" fill="#35A9E0"/>
<path d="M361.6 240.1C363.5 240.4 364.8 242.2 364.4 244.1C364.2 245.3 363.2 246.1 362 246.8C361.7 247 361.3 247.2 361 247.4C360 247.9 358.6 248.7 358.5 249.3C358.4 250.1 358.9 250.8 359.7 251C360.5 251.1 361.2 250.6 361.4 249.8C361.4 249.8 361.4 249.6 361.3 249.3C361.1 248.8 361.3 248.2 361.8 248C362.3 247.8 362.9 248 363.1 248.5C363.4 249.1 363.4 249.7 363.4 250.1C363.1 252 361.3 253.2 359.4 252.9C357.5 252.6 356.2 250.8 356.6 248.9C356.8 247.7 357.8 246.9 358.9 246.3C359.3 246.1 359.7 245.9 360 245.7C361 245.2 362.4 244.4 362.5 243.8C362.6 243 362.1 242.3 361.3 242.1C360.5 242 359.8 242.5 359.6 243.3C359.6 243.3 359.6 243.5 359.8 243.9C360 244.4 359.8 245 359.3 245.2C358.8 245.4 358.2 245.2 357.9 244.7C357.6 244 357.4 243.4 357.5 242.8C357.9 241 359.7 239.8 361.6 240.1Z" fill="#E0BAD2"/>
<path d="M376.6 252.1C378.5 252.4 379.8 254.2 379.4 256.1C379.2 257.3 378.2 258.1 377 258.8C376.7 259 376.3 259.2 376 259.4C375 259.9 373.6 260.7 373.5 261.3C373.4 262.1 373.9 262.8 374.7 263C375.5 263.1 376.2 262.6 376.4 261.8C376.4 261.8 376.4 261.6 376.3 261.3C376.1 260.8 376.3 260.2 376.8 260C377.3 259.8 377.9 260 378.1 260.5C378.4 261.1 378.4 261.7 378.4 262.1C378.1 264 376.3 265.2 374.4 264.9C372.5 264.6 371.2 262.8 371.6 260.9C371.8 259.7 372.8 258.9 373.9 258.3C374.3 258.1 374.7 257.9 375 257.7C376 257.2 377.4 256.4 377.5 255.8C377.6 255 377.1 254.3 376.3 254.1C375.5 254 374.8 254.5 374.6 255.3C374.6 255.3 374.6 255.5 374.8 255.9C375 256.4 374.8 257 374.3 257.2C373.8 257.4 373.2 257.2 372.9 256.7C372.6 256 372.4 255.4 372.5 254.8C372.9 253 374.7 251.8 376.6 252.1Z" fill="#E0BAD2"/>
<path d="M357.4 267.8C355.7 269.2 353.2 269 351.8 267.3C350.9 266.2 350.9 264.7 351.2 263.1C351.3 262.7 351.4 262.2 351.5 261.8C351.8 260.5 352.1 258.8 351.7 258.3C351.1 257.6 350.1 257.5 349.4 258.1C348.7 258.7 348.6 259.7 349.2 260.4C349.2 260.4 349.3 260.5 349.7 260.7C350.3 260.9 350.7 261.5 350.5 262.2C350.3 262.8 349.7 263.2 349 263C348.3 262.8 347.7 262.4 347.4 262C346 260.3 346.2 257.8 347.9 256.4C349.6 255 352.1 255.2 353.5 256.9C354.4 257.9 354.4 259.4 354.1 260.9C354 261.4 353.9 261.9 353.8 262.4C353.5 263.7 353.2 265.4 353.6 265.9C354.2 266.6 355.2 266.7 355.9 266.1C356.6 265.5 356.7 264.5 356.1 263.8C356.1 263.8 355.9 263.6 355.4 263.5C354.8 263.3 354.4 262.7 354.6 262.1C354.8 261.5 355.4 261.1 356 261.3C356.8 261.5 357.5 261.9 357.9 262.4C359.3 263.8 359 266.3 357.4 267.8Z" fill="#E0BAD2"/>
<path d="M555.3 269.6L558 274C558.5 274.8 559.1 275.4 559.8 275.9C560.2 276.2 560.7 276.4 561.2 276.5C565.7 277.7 575.5 278 591.3 262.2C607.1 246.4 606.8 236.6 605.6 232.1C605.5 231.6 605.3 231.1 605 230.7C604.5 229.9 603.9 229.3 603.1 228.9L598.6 226.2C597.6 225.6 596.3 225.9 595.6 226.9L591.7 232.7L588.4 237.6C587.8 238.6 588 239.9 588.9 240.6L590 241.4L592.9 243.7C593.8 244.4 594 245.6 593.5 246.5C592.3 248.6 591.2 251.1 585.7 256.6C580.2 262.1 577.7 263.2 575.6 264.4C574.6 264.9 573.4 264.7 572.8 263.8L570.5 260.9L569.7 259.8C569 258.9 567.7 258.7 566.7 259.3L561.7 262.7L556 266.5C555 267.2 554.7 268.5 555.3 269.6Z" fill="#E0BAD2"/>
<path d="M557.1 271.3L559.8 275.8C559.8 275.8 559.8 275.9 559.9 275.9C560.3 276.2 560.8 276.4 561.3 276.5C565.8 277.7 575.6 278 591.4 262.2C607.2 246.4 606.9 236.6 605.7 232.1C605.6 231.6 605.4 231.1 605.1 230.7C605.1 230.7 605 230.7 605 230.6L600.5 227.9C599.5 227.3 598.2 227.6 597.5 228.6L593.6 234.4L590.3 239.3C589.7 240.3 589.9 241.6 590.8 242.3L593.8 244.6L594.9 245.4C595.8 246.1 596 247.3 595.5 248.2C594.3 250.3 593.2 252.8 587.7 258.3C582.2 263.8 579.7 264.9 577.6 266.1C576.6 266.6 575.4 266.4 574.8 265.5L574 264.4L571.7 261.4C571 260.5 569.7 260.3 568.7 260.9L563.7 264.3L558 268.1C556.8 269 556.5 270.3 557.1 271.3Z" fill="white"/>
<path d="M563.8 277C569.2 276.6 577.4 273.5 588.7 262.2C604.5 246.4 604.2 236.6 603 232.1C602.9 231.6 602.7 231.1 602.4 230.7C601.9 229.9 601.3 229.3 600.5 228.9L596.2 226.3C596.9 225.8 597.9 225.7 598.7 226.2L603.2 228.9C604 229.4 604.6 230 605.1 230.7C605.4 231.1 605.6 231.6 605.7 232.1C606.9 236.6 607.2 246.4 591.4 262.2C578.1 275.4 569 277.4 563.8 277Z" fill="white"/>
<path d="M591.9 262.8C594.6 260.1 597.2 257.2 599.5 254.1C601.9 251 603.9 247.5 605.4 243.8C606.1 241.9 606.6 240 606.9 238C607.1 236 607 233.9 606.5 231.9L604.8 232.4C605.3 234.2 605.4 236 605.2 237.8C605 239.7 604.5 241.5 603.8 243.2C602.4 246.7 600.5 250 598.2 253.1C595.9 256.1 593.4 258.9 590.7 261.6L591.9 262.8Z" fill="white"/>
<path d="M606.9 238C606.7 240 606.2 242 605.4 243.8C603.9 247.5 602 251 599.5 254.1C599.3 254.3 599.2 254.6 599 254.8C598.7 255.2 598.1 255.3 597.7 255C597.3 254.7 597.3 254.2 597.6 253.8C597.8 253.6 598 253.3 598.1 253.1C600.4 250.1 602.3 246.8 603.7 243.2C604.4 241.5 604.8 239.6 605.1 237.8C605.3 236 605.2 234.1 604.7 232.4C604.4 231.3 603.6 230.3 602.6 229.7L598.1 227C597.5 226.6 596.7 226.8 596.3 227.4L589.2 238.1C588.8 238.7 588.9 239.5 589.5 239.9L593.5 243C594.7 243.9 595.1 245.6 594.3 247L594 247.6C592.9 249.7 591.5 252.2 586.4 257.4C581.3 262.5 578.7 263.9 576.7 265L576.1 265.3C574.8 266.1 573.1 265.7 572.1 264.5L569 260.5C568.6 259.9 567.8 259.8 567.2 260.2L556.5 267.3C555.9 267.7 555.7 268.5 556.1 269.1L558.8 273.6C559.4 274.6 560.4 275.4 561.5 275.7C566.9 277.2 576.4 276 590.7 261.6L593.1 259.1C593.4 258.8 594 258.7 594.3 259.1C594.5 259.3 594.6 259.5 594.6 259.7C594.6 259.9 594.5 260.2 594.4 260.3L591.9 262.9C580 274.8 571.2 278 565.1 278C563.7 278 562.3 277.8 561 277.5C559.4 277.1 558.1 276 557.3 274.6L554.6 270.1C553.7 268.7 554.2 266.8 555.5 265.9L566.2 258.8C567.6 257.9 569.4 258.2 570.4 259.5L573.5 263.5C573.9 264 574.6 264.2 575.2 263.9L575.8 263.6C577.8 262.5 580.2 261.2 585.1 256.3C590 251.4 591.4 248.9 592.4 247L592.7 246.4C593 245.8 592.9 245.1 592.3 244.7L588.3 241.6C587 240.6 586.7 238.8 587.6 237.4L594.7 226.7C595.6 225.3 597.5 224.9 598.9 225.8L603.4 228.5C604.8 229.3 605.8 230.7 606.3 232.2C607 233.9 607.1 235.9 606.9 238Z" fill="#723288"/>
<path d="M596 256.2C596.1 256.2 596.2 256.2 596.3 256.2C596.4 256.2 596.5 256.3 596.6 256.4C596.8 256.6 596.9 256.8 596.9 257C596.9 257.2 596.8 257.5 596.7 257.6C596.5 257.8 596.3 257.9 596.1 257.9H595.9C595.8 257.9 595.8 257.9 595.7 257.9C595.6 257.9 595.6 257.9 595.5 257.8C595.4 257.8 595.4 257.7 595.4 257.7C595.2 257.5 595.1 257.3 595.1 257.1C595.2 256.6 595.5 256.2 596 256.2Z" fill="#B53B88"/>
<path d="M577 233.8C568.7 233.8 562 240.5 562 248.8C562 249.3 561.6 249.7 561.1 249.7C560.6 249.7 560.2 249.3 560.2 248.8C560.2 239.6 567.7 232.1 577 232C577.5 232 577.9 232.4 577.9 232.9C577.9 233.4 577.5 233.8 577 233.8Z" fill="#35A9E0"/>
<path d="M577 239.1C571.6 239.1 567.3 243.4 567.3 248.8C567.3 249.3 566.9 249.7 566.4 249.7C565.9 249.7 565.5 249.3 565.5 248.8C565.5 242.5 570.6 237.3 577 237.3C577.5 237.3 577.9 237.7 577.9 238.2C577.9 238.7 577.5 239.1 577 239.1Z" fill="#35A9E0"/>
<path d="M577 244.4C574.6 244.4 572.6 246.4 572.6 248.8C572.6 249.3 572.2 249.7 571.7 249.7C571.2 249.7 570.8 249.3 570.8 248.8C570.8 245.4 573.6 242.6 577 242.6C577.5 242.6 577.9 243 577.9 243.5C577.9 244 577.5 244.4 577 244.4Z" fill="#35A9E0"/>
<path d="M537.4 240.1C535.5 240.4 534.2 242.2 534.6 244.1C534.8 245.3 535.8 246.1 537 246.8C537.3 247 537.7 247.2 538 247.4C539 247.9 540.4 248.7 540.5 249.3C540.6 250.1 540.1 250.8 539.3 251C538.5 251.1 537.8 250.6 537.6 249.8C537.6 249.8 537.6 249.6 537.7 249.3C537.9 248.8 537.7 248.2 537.2 248C536.7 247.8 536.1 248 535.9 248.5C535.6 249.1 535.6 249.7 535.6 250.1C535.9 252 537.7 253.2 539.6 252.9C541.5 252.6 542.8 250.8 542.4 248.9C542.2 247.7 541.2 246.9 540.1 246.3C539.7 246.1 539.3 245.9 539 245.7C538 245.2 536.6 244.4 536.5 243.8C536.4 243 536.9 242.3 537.7 242.1C538.5 242 539.2 242.5 539.4 243.3C539.4 243.3 539.4 243.5 539.2 243.9C539 244.4 539.2 245 539.7 245.2C540.2 245.4 540.8 245.2 541.1 244.7C541.4 244 541.6 243.4 541.5 242.8C541.1 241 539.3 239.8 537.4 240.1Z" fill="#E0BAD2"/>
<path d="M522.4 252.1C520.5 252.4 519.2 254.2 519.6 256.1C519.8 257.3 520.8 258.1 522 258.8C522.3 259 522.7 259.2 523 259.4C524 259.9 525.4 260.7 525.5 261.3C525.6 262.1 525.1 262.8 524.3 263C523.5 263.1 522.8 262.6 522.6 261.8C522.6 261.8 522.6 261.6 522.7 261.3C522.9 260.8 522.7 260.2 522.2 260C521.7 259.8 521.1 260 520.9 260.5C520.6 261.1 520.6 261.7 520.6 262.1C520.9 264 522.7 265.2 524.6 264.9C526.5 264.6 527.8 262.8 527.4 260.9C527.2 259.7 526.2 258.9 525.1 258.3C524.7 258.1 524.3 257.9 524 257.7C523 257.2 521.6 256.4 521.5 255.8C521.4 255 521.9 254.3 522.7 254.1C523.5 254 524.2 254.5 524.4 255.3C524.4 255.3 524.4 255.5 524.2 255.9C524 256.4 524.2 257 524.7 257.2C525.2 257.4 525.8 257.2 526.1 256.7C526.4 256 526.6 255.4 526.5 254.8C526.1 253 524.3 251.8 522.4 252.1Z" fill="#E0BAD2"/>
<path d="M541.6 267.8C543.3 269.2 545.8 269 547.2 267.3C548.1 266.2 548.1 264.7 547.8 263.1C547.7 262.7 547.6 262.2 547.5 261.8C547.2 260.5 546.9 258.8 547.3 258.3C547.9 257.6 548.9 257.5 549.6 258.1C550.3 258.7 550.4 259.7 549.8 260.4C549.8 260.4 549.7 260.5 549.3 260.7C548.7 260.9 548.3 261.5 548.5 262.2C548.7 262.8 549.3 263.2 550 263C550.7 262.8 551.3 262.4 551.6 262C553 260.3 552.8 257.8 551.1 256.4C549.4 255 546.9 255.2 545.5 256.9C544.6 257.9 544.6 259.4 544.9 260.9C545 261.4 545.1 261.9 545.2 262.4C545.5 263.7 545.8 265.4 545.4 265.9C544.8 266.6 543.8 266.7 543.1 266.1C542.4 265.5 542.3 264.5 542.9 263.8C542.9 263.8 543.1 263.6 543.6 263.5C544.2 263.3 544.6 262.7 544.4 262.1C544.2 261.5 543.6 261.1 543 261.3C542.2 261.5 541.5 261.9 541.1 262.4C539.7 263.8 540 266.3 541.6 267.8Z" fill="#E0BAD2"/>
<path d="M377.94 334.16V336.38H381.828V337.94H377.94V341H375.996V332.6H382.344V334.16H377.94ZM385.199 335.396C385.423 335.084 385.723 334.848 386.099 334.688C386.483 334.528 386.923 334.448 387.419 334.448V336.176C387.211 336.16 387.071 336.152 386.999 336.152C386.463 336.152 386.043 336.304 385.739 336.608C385.435 336.904 385.283 337.352 385.283 337.952V341H383.411V334.544H385.199V335.396ZM394.797 337.796C394.797 337.82 394.785 337.988 394.761 338.3H389.877C389.965 338.7 390.173 339.016 390.501 339.248C390.829 339.48 391.237 339.596 391.725 339.596C392.061 339.596 392.357 339.548 392.613 339.452C392.877 339.348 393.121 339.188 393.345 338.972L394.341 340.052C393.733 340.748 392.845 341.096 391.677 341.096C390.949 341.096 390.305 340.956 389.745 340.676C389.185 340.388 388.753 339.992 388.449 339.488C388.145 338.984 387.993 338.412 387.993 337.772C387.993 337.14 388.141 336.572 388.437 336.068C388.741 335.556 389.153 335.16 389.673 334.88C390.201 334.592 390.789 334.448 391.437 334.448C392.069 334.448 392.641 334.584 393.153 334.856C393.665 335.128 394.065 335.52 394.353 336.032C394.649 336.536 394.797 337.124 394.797 337.796ZM391.449 335.864C391.025 335.864 390.669 335.984 390.381 336.224C390.093 336.464 389.917 336.792 389.853 337.208H393.033C392.969 336.8 392.793 336.476 392.505 336.236C392.217 335.988 391.865 335.864 391.449 335.864ZM402.368 337.796C402.368 337.82 402.356 337.988 402.332 338.3H397.448C397.536 338.7 397.744 339.016 398.072 339.248C398.4 339.48 398.808 339.596 399.296 339.596C399.632 339.596 399.928 339.548 400.184 339.452C400.448 339.348 400.692 339.188 400.916 338.972L401.912 340.052C401.304 340.748 400.416 341.096 399.248 341.096C398.52 341.096 397.876 340.956 397.316 340.676C396.756 340.388 396.324 339.992 396.02 339.488C395.716 338.984 395.564 338.412 395.564 337.772C395.564 337.14 395.712 336.572 396.008 336.068C396.312 335.556 396.724 335.16 397.244 334.88C397.772 334.592 398.36 334.448 399.008 334.448C399.64 334.448 400.212 334.584 400.724 334.856C401.236 335.128 401.636 335.52 401.924 336.032C402.22 336.536 402.368 337.124 402.368 337.796ZM399.02 335.864C398.596 335.864 398.24 335.984 397.952 336.224C397.664 336.464 397.488 336.792 397.424 337.208H400.604C400.54 336.8 400.364 336.476 400.076 336.236C399.788 335.988 399.436 335.864 399.02 335.864ZM414.788 341L414.776 335.96L412.304 340.112H411.428L408.968 336.068V341H407.144V332.6H408.752L411.896 337.82L414.992 332.6H416.588L416.612 341H414.788ZM418.473 334.544H420.345V341H418.473V334.544ZM419.409 333.644C419.065 333.644 418.785 333.544 418.569 333.344C418.353 333.144 418.245 332.896 418.245 332.6C418.245 332.304 418.353 332.056 418.569 331.856C418.785 331.656 419.065 331.556 419.409 331.556C419.753 331.556 420.033 331.652 420.249 331.844C420.465 332.036 420.573 332.276 420.573 332.564C420.573 332.876 420.465 333.136 420.249 333.344C420.033 333.544 419.753 333.644 419.409 333.644ZM426.007 334.448C426.807 334.448 427.451 334.688 427.939 335.168C428.435 335.648 428.683 336.36 428.683 337.304V341H426.811V337.592C426.811 337.08 426.699 336.7 426.475 336.452C426.251 336.196 425.927 336.068 425.503 336.068C425.031 336.068 424.655 336.216 424.375 336.512C424.095 336.8 423.955 337.232 423.955 337.808V341H422.083V334.544H423.871V335.3C424.119 335.028 424.427 334.82 424.795 334.676C425.163 334.524 425.567 334.448 426.007 334.448ZM436.884 334.544V341H435.108V340.232C434.86 340.512 434.564 340.728 434.22 340.88C433.876 341.024 433.504 341.096 433.104 341.096C432.256 341.096 431.584 340.852 431.088 340.364C430.592 339.876 430.344 339.152 430.344 338.192V334.544H432.216V337.916C432.216 338.956 432.652 339.476 433.524 339.476C433.972 339.476 434.332 339.332 434.604 339.044C434.876 338.748 435.012 338.312 435.012 337.736V334.544H436.884ZM442.782 340.688C442.598 340.824 442.37 340.928 442.098 341C441.834 341.064 441.554 341.096 441.258 341.096C440.49 341.096 439.894 340.9 439.47 340.508C439.054 340.116 438.846 339.54 438.846 338.78V336.128H437.85V334.688H438.846V333.116H440.718V334.688H442.326V336.128H440.718V338.756C440.718 339.028 440.786 339.24 440.922 339.392C441.066 339.536 441.266 339.608 441.522 339.608C441.818 339.608 442.07 339.528 442.278 339.368L442.782 340.688ZM449.958 337.796C449.958 337.82 449.946 337.988 449.922 338.3H445.038C445.126 338.7 445.334 339.016 445.662 339.248C445.99 339.48 446.398 339.596 446.886 339.596C447.222 339.596 447.518 339.548 447.774 339.452C448.038 339.348 448.282 339.188 448.506 338.972L449.502 340.052C448.894 340.748 448.006 341.096 446.838 341.096C446.11 341.096 445.466 340.956 444.906 340.676C444.346 340.388 443.914 339.992 443.61 339.488C443.306 338.984 443.154 338.412 443.154 337.772C443.154 337.14 443.302 336.572 443.598 336.068C443.902 335.556 444.314 335.16 444.834 334.88C445.362 334.592 445.95 334.448 446.598 334.448C447.23 334.448 447.802 334.584 448.314 334.856C448.826 335.128 449.226 335.52 449.514 336.032C449.81 336.536 449.958 337.124 449.958 337.796ZM446.61 335.864C446.186 335.864 445.83 335.984 445.542 336.224C445.254 336.464 445.078 336.792 445.014 337.208H448.194C448.13 336.8 447.954 336.476 447.666 336.236C447.378 335.988 447.026 335.864 446.61 335.864ZM453.376 341.096C452.84 341.096 452.316 341.032 451.804 340.904C451.292 340.768 450.884 340.6 450.58 340.4L451.204 339.056C451.492 339.24 451.84 339.392 452.248 339.512C452.656 339.624 453.056 339.68 453.448 339.68C454.24 339.68 454.636 339.484 454.636 339.092C454.636 338.908 454.528 338.776 454.312 338.696C454.096 338.616 453.764 338.548 453.316 338.492C452.788 338.412 452.352 338.32 452.008 338.216C451.664 338.112 451.364 337.928 451.108 337.664C450.86 337.4 450.736 337.024 450.736 336.536C450.736 336.128 450.852 335.768 451.084 335.456C451.324 335.136 451.668 334.888 452.116 334.712C452.572 334.536 453.108 334.448 453.724 334.448C454.18 334.448 454.632 334.5 455.08 334.604C455.536 334.7 455.912 334.836 456.208 335.012L455.584 336.344C455.016 336.024 454.396 335.864 453.724 335.864C453.324 335.864 453.024 335.92 452.824 336.032C452.624 336.144 452.524 336.288 452.524 336.464C452.524 336.664 452.632 336.804 452.848 336.884C453.064 336.964 453.408 337.04 453.88 337.112C454.408 337.2 454.84 337.296 455.176 337.4C455.512 337.496 455.804 337.676 456.052 337.94C456.3 338.204 456.424 338.572 456.424 339.044C456.424 339.444 456.304 339.8 456.064 340.112C455.824 340.424 455.472 340.668 455.008 340.844C454.552 341.012 454.008 341.096 453.376 341.096ZM465.129 341.144C464.273 341.144 463.497 340.96 462.801 340.592C462.113 340.216 461.569 339.7 461.169 339.044C460.777 338.38 460.581 337.632 460.581 336.8C460.581 335.968 460.777 335.224 461.169 334.568C461.569 333.904 462.113 333.388 462.801 333.02C463.497 332.644 464.277 332.456 465.141 332.456C465.869 332.456 466.525 332.584 467.109 332.84C467.701 333.096 468.197 333.464 468.597 333.944L467.349 335.096C466.781 334.44 466.077 334.112 465.237 334.112C464.717 334.112 464.253 334.228 463.845 334.46C463.437 334.684 463.117 335 462.885 335.408C462.661 335.816 462.549 336.28 462.549 336.8C462.549 337.32 462.661 337.784 462.885 338.192C463.117 338.6 463.437 338.92 463.845 339.152C464.253 339.376 464.717 339.488 465.237 339.488C466.077 339.488 466.781 339.156 467.349 338.492L468.597 339.644C468.197 340.132 467.701 340.504 467.109 340.76C466.517 341.016 465.857 341.144 465.129 341.144ZM469.778 332.096H471.65V341H469.778V332.096ZM473.387 334.544H475.259V341H473.387V334.544ZM474.323 333.644C473.979 333.644 473.699 333.544 473.483 333.344C473.267 333.144 473.159 332.896 473.159 332.6C473.159 332.304 473.267 332.056 473.483 331.856C473.699 331.656 473.979 331.556 474.323 331.556C474.667 331.556 474.947 331.652 475.163 331.844C475.379 332.036 475.487 332.276 475.487 332.564C475.487 332.876 475.379 333.136 475.163 333.344C474.947 333.544 474.667 333.644 474.323 333.644ZM480.117 341.096C479.429 341.096 478.809 340.956 478.257 340.676C477.713 340.388 477.285 339.992 476.973 339.488C476.669 338.984 476.517 338.412 476.517 337.772C476.517 337.132 476.669 336.56 476.973 336.056C477.285 335.552 477.713 335.16 478.257 334.88C478.809 334.592 479.429 334.448 480.117 334.448C480.797 334.448 481.389 334.592 481.893 334.88C482.405 335.16 482.777 335.564 483.009 336.092L481.557 336.872C481.221 336.28 480.737 335.984 480.105 335.984C479.617 335.984 479.213 336.144 478.893 336.464C478.573 336.784 478.413 337.22 478.413 337.772C478.413 338.324 478.573 338.76 478.893 339.08C479.213 339.4 479.617 339.56 480.105 339.56C480.745 339.56 481.229 339.264 481.557 338.672L483.009 339.464C482.777 339.976 482.405 340.376 481.893 340.664C481.389 340.952 480.797 341.096 480.117 341.096ZM486.812 338.468L485.912 339.356V341H484.04V332.096H485.912V337.136L488.648 334.544H490.88L488.192 337.28L491.12 341H488.852L486.812 338.468ZM503.196 332.6V341H501.252V337.556H497.436V341H495.492V332.6H497.436V335.912H501.252V332.6H503.196ZM511.376 337.796C511.376 337.82 511.364 337.988 511.34 338.3H506.456C506.544 338.7 506.752 339.016 507.08 339.248C507.408 339.48 507.816 339.596 508.304 339.596C508.64 339.596 508.936 339.548 509.192 339.452C509.456 339.348 509.7 339.188 509.924 338.972L510.92 340.052C510.312 340.748 509.424 341.096 508.256 341.096C507.528 341.096 506.884 340.956 506.324 340.676C505.764 340.388 505.332 339.992 505.028 339.488C504.724 338.984 504.572 338.412 504.572 337.772C504.572 337.14 504.72 336.572 505.016 336.068C505.32 335.556 505.732 335.16 506.252 334.88C506.78 334.592 507.368 334.448 508.016 334.448C508.648 334.448 509.22 334.584 509.732 334.856C510.244 335.128 510.644 335.52 510.932 336.032C511.228 336.536 511.376 337.124 511.376 337.796ZM508.028 335.864C507.604 335.864 507.248 335.984 506.96 336.224C506.672 336.464 506.496 336.792 506.432 337.208H509.612C509.548 336.8 509.372 336.476 509.084 336.236C508.796 335.988 508.444 335.864 508.028 335.864ZM514.41 335.396C514.634 335.084 514.934 334.848 515.31 334.688C515.694 334.528 516.134 334.448 516.63 334.448V336.176C516.422 336.16 516.282 336.152 516.21 336.152C515.674 336.152 515.254 336.304 514.95 336.608C514.646 336.904 514.494 337.352 514.494 337.952V341H512.622V334.544H514.41V335.396ZM524.008 337.796C524.008 337.82 523.996 337.988 523.972 338.3H519.088C519.176 338.7 519.384 339.016 519.712 339.248C520.04 339.48 520.448 339.596 520.936 339.596C521.272 339.596 521.568 339.548 521.824 339.452C522.088 339.348 522.332 339.188 522.556 338.972L523.552 340.052C522.944 340.748 522.056 341.096 520.888 341.096C520.16 341.096 519.516 340.956 518.956 340.676C518.396 340.388 517.964 339.992 517.66 339.488C517.356 338.984 517.204 338.412 517.204 337.772C517.204 337.14 517.352 336.572 517.648 336.068C517.952 335.556 518.364 335.16 518.884 334.88C519.412 334.592 520 334.448 520.648 334.448C521.28 334.448 521.852 334.584 522.364 334.856C522.876 335.128 523.276 335.52 523.564 336.032C523.86 336.536 524.008 337.124 524.008 337.796ZM520.66 335.864C520.236 335.864 519.88 335.984 519.592 336.224C519.304 336.464 519.128 336.792 519.064 337.208H522.244C522.18 336.8 522.004 336.476 521.716 336.236C521.428 335.988 521.076 335.864 520.66 335.864ZM525.015 332.6H527.247L526.875 338.084H525.387L525.015 332.6ZM526.131 341.096C525.803 341.096 525.527 340.992 525.303 340.784C525.087 340.568 524.979 340.308 524.979 340.004C524.979 339.7 525.087 339.448 525.303 339.248C525.519 339.04 525.795 338.936 526.131 338.936C526.467 338.936 526.743 339.04 526.959 339.248C527.175 339.448 527.283 339.7 527.283 340.004C527.283 340.308 527.171 340.568 526.947 340.784C526.731 340.992 526.459 341.096 526.131 341.096Z" fill="#2CAA9A"/>
<path d="M297.016 171.504H292.088V168.6H305.508V171.504H300.58V184H297.016V171.504ZM316.794 180.7H309.644L308.28 184H304.628L311.492 168.6H315.012L321.898 184H318.158L316.794 180.7ZM315.672 177.994L313.23 172.098L310.788 177.994H315.672ZM323.496 168.6H327.06V181.096H334.782V184H323.496V168.6ZM342.383 177.95L340.315 180.106V184H336.773V168.6H340.315V175.794L347.135 168.6H351.095L344.715 175.464L351.469 184H347.311L342.383 177.95ZM369.431 180.7H362.281L360.917 184H357.265L364.129 168.6H367.649L374.535 184H370.795L369.431 180.7ZM368.309 177.994L365.867 172.098L363.425 177.994H368.309ZM405.639 168.6L400.601 184H396.773L393.385 173.572L389.887 184H386.081L381.021 168.6H384.717L388.193 179.424L391.823 168.6H395.123L398.643 179.512L402.229 168.6H405.639ZM421.753 168.6V184H418.189V177.686H411.193V184H407.629V168.6H411.193V174.672H418.189V168.6H421.753ZM432.854 184.264C431.256 184.264 429.811 183.919 428.52 183.23C427.244 182.541 426.24 181.595 425.506 180.392C424.788 179.175 424.428 177.811 424.428 176.3C424.428 174.789 424.788 173.433 425.506 172.23C426.24 171.013 427.244 170.059 428.52 169.37C429.811 168.681 431.256 168.336 432.854 168.336C434.453 168.336 435.89 168.681 437.166 169.37C438.442 170.059 439.447 171.013 440.18 172.23C440.914 173.433 441.28 174.789 441.28 176.3C441.28 177.811 440.914 179.175 440.18 180.392C439.447 181.595 438.442 182.541 437.166 183.23C435.89 183.919 434.453 184.264 432.854 184.264ZM432.854 181.228C433.764 181.228 434.585 181.023 435.318 180.612C436.052 180.187 436.624 179.6 437.034 178.852C437.46 178.104 437.672 177.253 437.672 176.3C437.672 175.347 437.46 174.496 437.034 173.748C436.624 173 436.052 172.421 435.318 172.01C434.585 171.585 433.764 171.372 432.854 171.372C431.945 171.372 431.124 171.585 430.39 172.01C429.657 172.421 429.078 173 428.652 173.748C428.242 174.496 428.036 175.347 428.036 176.3C428.036 177.253 428.242 178.104 428.652 178.852C429.078 179.6 429.657 180.187 430.39 180.612C431.124 181.023 431.945 181.228 432.854 181.228ZM443.959 168.6H447.523V181.096H455.245V184H443.959V168.6ZM469.16 181.14V184H457.236V168.6H468.874V171.46H460.778V174.804H467.928V177.576H460.778V181.14H469.16ZM478.226 168.6H481.79V181.096H489.512V184H478.226V168.6ZM498.704 184.264C497.105 184.264 495.661 183.919 494.37 183.23C493.094 182.541 492.089 181.595 491.356 180.392C490.637 179.175 490.278 177.811 490.278 176.3C490.278 174.789 490.637 173.433 491.356 172.23C492.089 171.013 493.094 170.059 494.37 169.37C495.661 168.681 497.105 168.336 498.704 168.336C500.303 168.336 501.74 168.681 503.016 169.37C504.292 170.059 505.297 171.013 506.03 172.23C506.763 173.433 507.13 174.789 507.13 176.3C507.13 177.811 506.763 179.175 506.03 180.392C505.297 181.595 504.292 182.541 503.016 183.23C501.74 183.919 500.303 184.264 498.704 184.264ZM498.704 181.228C499.613 181.228 500.435 181.023 501.168 180.612C501.901 180.187 502.473 179.6 502.884 178.852C503.309 178.104 503.522 177.253 503.522 176.3C503.522 175.347 503.309 174.496 502.884 173.748C502.473 173 501.901 172.421 501.168 172.01C500.435 171.585 499.613 171.372 498.704 171.372C497.795 171.372 496.973 171.585 496.24 172.01C495.507 172.421 494.927 173 494.502 173.748C494.091 174.496 493.886 175.347 493.886 176.3C493.886 177.253 494.091 178.104 494.502 178.852C494.927 179.6 495.507 180.187 496.24 180.612C496.973 181.023 497.795 181.228 498.704 181.228ZM512.784 171.504H507.856V168.6H521.276V171.504H516.348V184H512.784V171.504ZM543.438 184L543.416 174.76L538.884 182.372H537.278L532.768 174.958V184H529.424V168.6H532.372L538.136 178.17L543.812 168.6H546.738L546.782 184H543.438ZM557.893 184.264C556.295 184.264 554.85 183.919 553.559 183.23C552.283 182.541 551.279 181.595 550.545 180.392C549.827 179.175 549.467 177.811 549.467 176.3C549.467 174.789 549.827 173.433 550.545 172.23C551.279 171.013 552.283 170.059 553.559 169.37C554.85 168.681 556.295 168.336 557.893 168.336C559.492 168.336 560.929 168.681 562.205 169.37C563.481 170.059 564.486 171.013 565.219 172.23C565.953 173.433 566.319 174.789 566.319 176.3C566.319 177.811 565.953 179.175 565.219 180.392C564.486 181.595 563.481 182.541 562.205 183.23C560.929 183.919 559.492 184.264 557.893 184.264ZM557.893 181.228C558.803 181.228 559.624 181.023 560.357 180.612C561.091 180.187 561.663 179.6 562.073 178.852C562.499 178.104 562.711 177.253 562.711 176.3C562.711 175.347 562.499 174.496 562.073 173.748C561.663 173 561.091 172.421 560.357 172.01C559.624 171.585 558.803 171.372 557.893 171.372C556.984 171.372 556.163 171.585 555.429 172.01C554.696 172.421 554.117 173 553.691 173.748C553.281 174.496 553.075 175.347 553.075 176.3C553.075 177.253 553.281 178.104 553.691 178.852C554.117 179.6 554.696 180.187 555.429 180.612C556.163 181.023 556.984 181.228 557.893 181.228ZM578.81 184L575.84 179.71H575.664H572.562V184H568.998V168.6H575.664C577.028 168.6 578.209 168.827 579.206 169.282C580.218 169.737 580.995 170.382 581.538 171.218C582.081 172.054 582.352 173.044 582.352 174.188C582.352 175.332 582.073 176.322 581.516 177.158C580.973 177.979 580.196 178.61 579.184 179.05L582.638 184H578.81ZM578.744 174.188C578.744 173.323 578.465 172.663 577.908 172.208C577.351 171.739 576.537 171.504 575.466 171.504H572.562V176.872H575.466C576.537 176.872 577.351 176.637 577.908 176.168C578.465 175.699 578.744 175.039 578.744 174.188ZM597.1 181.14V184H585.176V168.6H596.814V171.46H588.718V174.804H595.868V177.576H588.718V181.14H597.1Z" fill="#723288"/>
<path d="M298.886 211.264C297.669 211.264 296.488 211.103 295.344 210.78C294.215 210.443 293.305 210.01 292.616 209.482L293.826 206.798C294.486 207.282 295.271 207.671 296.18 207.964C297.089 208.257 297.999 208.404 298.908 208.404C299.92 208.404 300.668 208.257 301.152 207.964C301.636 207.656 301.878 207.253 301.878 206.754C301.878 206.387 301.731 206.087 301.438 205.852C301.159 205.603 300.793 205.405 300.338 205.258C299.898 205.111 299.297 204.95 298.534 204.774C297.361 204.495 296.4 204.217 295.652 203.938C294.904 203.659 294.259 203.212 293.716 202.596C293.188 201.98 292.924 201.159 292.924 200.132C292.924 199.237 293.166 198.431 293.65 197.712C294.134 196.979 294.86 196.399 295.828 195.974C296.811 195.549 298.006 195.336 299.414 195.336C300.397 195.336 301.357 195.453 302.296 195.688C303.235 195.923 304.056 196.26 304.76 196.7L303.66 199.406C302.237 198.599 300.815 198.196 299.392 198.196C298.395 198.196 297.654 198.357 297.17 198.68C296.701 199.003 296.466 199.428 296.466 199.956C296.466 200.484 296.737 200.88 297.28 201.144C297.837 201.393 298.681 201.643 299.81 201.892C300.983 202.171 301.944 202.449 302.692 202.728C303.44 203.007 304.078 203.447 304.606 204.048C305.149 204.649 305.42 205.463 305.42 206.49C305.42 207.37 305.171 208.177 304.672 208.91C304.188 209.629 303.455 210.201 302.472 210.626C301.489 211.051 300.294 211.264 298.886 211.264ZM314.521 195.6C315.885 195.6 317.066 195.827 318.063 196.282C319.075 196.737 319.853 197.382 320.395 198.218C320.938 199.054 321.209 200.044 321.209 201.188C321.209 202.317 320.938 203.307 320.395 204.158C319.853 204.994 319.075 205.639 318.063 206.094C317.066 206.534 315.885 206.754 314.521 206.754H311.419V211H307.855V195.6H314.521ZM314.323 203.85C315.394 203.85 316.208 203.623 316.765 203.168C317.323 202.699 317.601 202.039 317.601 201.188C317.601 200.323 317.323 199.663 316.765 199.208C316.208 198.739 315.394 198.504 314.323 198.504H311.419V203.85H314.323ZM335.678 208.14V211H323.754V195.6H335.392V198.46H327.296V201.804H334.446V204.576H327.296V208.14H335.678ZM352.638 195.6V211H349.712L342.034 201.65V211H338.514V195.6H341.462L349.117 204.95V195.6H352.638ZM356.281 195.6H363.277C364.949 195.6 366.423 195.923 367.699 196.568C368.99 197.199 369.987 198.093 370.691 199.252C371.41 200.411 371.769 201.76 371.769 203.3C371.769 204.84 371.41 206.189 370.691 207.348C369.987 208.507 368.99 209.409 367.699 210.054C366.423 210.685 364.949 211 363.277 211H356.281V195.6ZM363.101 208.074C364.641 208.074 365.866 207.649 366.775 206.798C367.699 205.933 368.161 204.767 368.161 203.3C368.161 201.833 367.699 200.675 366.775 199.824C365.866 198.959 364.641 198.526 363.101 198.526H359.845V208.074H363.101ZM390.829 207.7H383.679L382.315 211H378.663L385.527 195.6H389.047L395.933 211H392.193L390.829 207.7ZM389.707 204.994L387.265 199.098L384.823 204.994H389.707ZM427.038 195.6L422 211H418.172L414.784 200.572L411.286 211H407.48L402.42 195.6H406.116L409.592 206.424L413.222 195.6H416.522L420.042 206.512L423.628 195.6H427.038ZM443.151 195.6V211H439.587V204.686H432.591V211H429.027V195.6H432.591V201.672H439.587V195.6H443.151ZM454.253 211.264C452.654 211.264 451.209 210.919 449.919 210.23C448.643 209.541 447.638 208.595 446.905 207.392C446.186 206.175 445.827 204.811 445.827 203.3C445.827 201.789 446.186 200.433 446.905 199.23C447.638 198.013 448.643 197.059 449.919 196.37C451.209 195.681 452.654 195.336 454.253 195.336C455.851 195.336 457.289 195.681 458.565 196.37C459.841 197.059 460.845 198.013 461.579 199.23C462.312 200.433 462.679 201.789 462.679 203.3C462.679 204.811 462.312 206.175 461.579 207.392C460.845 208.595 459.841 209.541 458.565 210.23C457.289 210.919 455.851 211.264 454.253 211.264ZM454.253 208.228C455.162 208.228 455.983 208.023 456.717 207.612C457.45 207.187 458.022 206.6 458.433 205.852C458.858 205.104 459.071 204.253 459.071 203.3C459.071 202.347 458.858 201.496 458.433 200.748C458.022 200 457.45 199.421 456.717 199.01C455.983 198.585 455.162 198.372 454.253 198.372C453.343 198.372 452.522 198.585 451.789 199.01C451.055 199.421 450.476 200 450.051 200.748C449.64 201.496 449.435 202.347 449.435 203.3C449.435 204.253 449.64 205.104 450.051 205.852C450.476 206.6 451.055 207.187 451.789 207.612C452.522 208.023 453.343 208.228 454.253 208.228ZM465.357 195.6H468.921V208.096H476.643V211H465.357V195.6ZM490.559 208.14V211H478.635V195.6H490.273V198.46H482.177V201.804H489.327V204.576H482.177V208.14H490.559ZM499.625 195.6H503.189V208.096H510.911V211H499.625V195.6ZM520.102 211.264C518.504 211.264 517.059 210.919 515.768 210.23C514.492 209.541 513.488 208.595 512.754 207.392C512.036 206.175 511.676 204.811 511.676 203.3C511.676 201.789 512.036 200.433 512.754 199.23C513.488 198.013 514.492 197.059 515.768 196.37C517.059 195.681 518.504 195.336 520.102 195.336C521.701 195.336 523.138 195.681 524.414 196.37C525.69 197.059 526.695 198.013 527.428 199.23C528.162 200.433 528.528 201.789 528.528 203.3C528.528 204.811 528.162 206.175 527.428 207.392C526.695 208.595 525.69 209.541 524.414 210.23C523.138 210.919 521.701 211.264 520.102 211.264ZM520.102 208.228C521.012 208.228 521.833 208.023 522.566 207.612C523.3 207.187 523.872 206.6 524.282 205.852C524.708 205.104 524.92 204.253 524.92 203.3C524.92 202.347 524.708 201.496 524.282 200.748C523.872 200 523.3 199.421 522.566 199.01C521.833 198.585 521.012 198.372 520.102 198.372C519.193 198.372 518.372 198.585 517.638 199.01C516.905 199.421 516.326 200 515.9 200.748C515.49 201.496 515.284 202.347 515.284 203.3C515.284 204.253 515.49 205.104 515.9 205.852C516.326 206.6 516.905 207.187 517.638 207.612C518.372 208.023 519.193 208.228 520.102 208.228ZM534.182 198.504H529.254V195.6H542.674V198.504H537.746V211H534.182V198.504ZM550.822 195.6H554.386V208.096H562.108V211H550.822V195.6ZM576.023 208.14V211H564.099V195.6H575.737V198.46H567.641V201.804H574.791V204.576H567.641V208.14H576.023ZM583.919 211.264C582.702 211.264 581.521 211.103 580.377 210.78C579.248 210.443 578.339 210.01 577.649 209.482L578.859 206.798C579.519 207.282 580.304 207.671 581.213 207.964C582.123 208.257 583.032 208.404 583.941 208.404C584.953 208.404 585.701 208.257 586.185 207.964C586.669 207.656 586.911 207.253 586.911 206.754C586.911 206.387 586.765 206.087 586.471 205.852C586.193 205.603 585.826 205.405 585.371 205.258C584.931 205.111 584.33 204.95 583.567 204.774C582.394 204.495 581.433 204.217 580.685 203.938C579.937 203.659 579.292 203.212 578.749 202.596C578.221 201.98 577.957 201.159 577.957 200.132C577.957 199.237 578.199 198.431 578.683 197.712C579.167 196.979 579.893 196.399 580.861 195.974C581.844 195.549 583.039 195.336 584.447 195.336C585.43 195.336 586.391 195.453 587.329 195.688C588.268 195.923 589.089 196.26 589.793 196.7L588.693 199.406C587.271 198.599 585.848 198.196 584.425 198.196C583.428 198.196 582.687 198.357 582.203 198.68C581.734 199.003 581.499 199.428 581.499 199.956C581.499 200.484 581.771 200.88 582.313 201.144C582.871 201.393 583.714 201.643 584.843 201.892C586.017 202.171 586.977 202.449 587.725 202.728C588.473 203.007 589.111 203.447 589.639 204.048C590.182 204.649 590.453 205.463 590.453 206.49C590.453 207.37 590.204 208.177 589.705 208.91C589.221 209.629 588.488 210.201 587.505 210.626C586.523 211.051 585.327 211.264 583.919 211.264ZM597.949 211.264C596.731 211.264 595.551 211.103 594.407 210.78C593.277 210.443 592.368 210.01 591.679 209.482L592.889 206.798C593.549 207.282 594.333 207.671 595.243 207.964C596.152 208.257 597.061 208.404 597.971 208.404C598.983 208.404 599.731 208.257 600.215 207.964C600.699 207.656 600.941 207.253 600.941 206.754C600.941 206.387 600.794 206.087 600.501 205.852C600.222 205.603 599.855 205.405 599.401 205.258C598.961 205.111 598.359 204.95 597.597 204.774C596.423 204.495 595.463 204.217 594.715 203.938C593.967 203.659 593.321 203.212 592.779 202.596C592.251 201.98 591.987 201.159 591.987 200.132C591.987 199.237 592.229 198.431 592.713 197.712C593.197 196.979 593.923 196.399 594.891 195.974C595.873 195.549 597.069 195.336 598.477 195.336C599.459 195.336 600.42 195.453 601.359 195.688C602.297 195.923 603.119 196.26 603.823 196.7L602.723 199.406C601.3 198.599 599.877 198.196 598.455 198.196C597.457 198.196 596.717 198.357 596.233 198.68C595.763 199.003 595.529 199.428 595.529 199.956C595.529 200.484 595.8 200.88 596.343 201.144C596.9 201.393 597.743 201.643 598.873 201.892C600.046 202.171 601.007 202.449 601.755 202.728C602.503 203.007 603.141 203.447 603.669 204.048C604.211 204.649 604.483 205.463 604.483 206.49C604.483 207.37 604.233 208.177 603.735 208.91C603.251 209.629 602.517 210.201 601.535 210.626C600.552 211.051 599.357 211.264 597.949 211.264Z" fill="#723288"/>
<path d="M396.968 149.168C396.305 149.168 395.694 149.047 395.134 148.804C394.583 148.552 394.131 148.197 393.776 147.74L395.036 146.228C395.568 146.947 396.175 147.306 396.856 147.306C397.78 147.306 398.242 146.765 398.242 145.682V141.02H394.798V139.2H400.496V145.556C400.496 146.76 400.197 147.665 399.6 148.272C399.003 148.869 398.125 149.168 396.968 149.168ZM410.17 141.468V149H408.098V148.104C407.809 148.431 407.464 148.683 407.062 148.86C406.661 149.028 406.227 149.112 405.76 149.112C404.771 149.112 403.987 148.827 403.408 148.258C402.83 147.689 402.54 146.844 402.54 145.724V141.468H404.724V145.402C404.724 146.615 405.233 147.222 406.25 147.222C406.773 147.222 407.193 147.054 407.51 146.718C407.828 146.373 407.986 145.864 407.986 145.192V141.468H410.17ZM414.728 149.112C414.102 149.112 413.491 149.037 412.894 148.888C412.296 148.729 411.82 148.533 411.466 148.3L412.194 146.732C412.53 146.947 412.936 147.124 413.412 147.264C413.888 147.395 414.354 147.46 414.812 147.46C415.736 147.46 416.198 147.231 416.198 146.774C416.198 146.559 416.072 146.405 415.82 146.312C415.568 146.219 415.18 146.139 414.658 146.074C414.042 145.981 413.533 145.873 413.132 145.752C412.73 145.631 412.38 145.416 412.082 145.108C411.792 144.8 411.648 144.361 411.648 143.792C411.648 143.316 411.783 142.896 412.054 142.532C412.334 142.159 412.735 141.869 413.258 141.664C413.79 141.459 414.415 141.356 415.134 141.356C415.666 141.356 416.193 141.417 416.716 141.538C417.248 141.65 417.686 141.809 418.032 142.014L417.304 143.568C416.641 143.195 415.918 143.008 415.134 143.008C414.667 143.008 414.317 143.073 414.084 143.204C413.85 143.335 413.734 143.503 413.734 143.708C413.734 143.941 413.86 144.105 414.112 144.198C414.364 144.291 414.765 144.38 415.316 144.464C415.932 144.567 416.436 144.679 416.828 144.8C417.22 144.912 417.56 145.122 417.85 145.43C418.139 145.738 418.284 146.167 418.284 146.718C418.284 147.185 418.144 147.6 417.864 147.964C417.584 148.328 417.173 148.613 416.632 148.818C416.1 149.014 415.465 149.112 414.728 149.112ZM424.489 148.636C424.274 148.795 424.008 148.916 423.691 149C423.383 149.075 423.056 149.112 422.711 149.112C421.815 149.112 421.12 148.883 420.625 148.426C420.14 147.969 419.897 147.297 419.897 146.41V143.316H418.735V141.636H419.897V139.802H422.081V141.636H423.957V143.316H422.081V146.382C422.081 146.699 422.16 146.947 422.319 147.124C422.487 147.292 422.72 147.376 423.019 147.376C423.364 147.376 423.658 147.283 423.901 147.096L424.489 148.636ZM432.074 141.636H434.006V143.316H432.13V149H429.946V143.316H428.784V141.636H429.946V141.3C429.946 140.441 430.198 139.76 430.702 139.256C431.215 138.752 431.934 138.5 432.858 138.5C433.185 138.5 433.493 138.537 433.782 138.612C434.081 138.677 434.328 138.775 434.524 138.906L433.95 140.488C433.698 140.311 433.404 140.222 433.068 140.222C432.405 140.222 432.074 140.586 432.074 141.314V141.636ZM438.582 149.112C437.789 149.112 437.075 148.949 436.44 148.622C435.815 148.286 435.325 147.824 434.97 147.236C434.616 146.648 434.438 145.981 434.438 145.234C434.438 144.487 434.616 143.82 434.97 143.232C435.325 142.644 435.815 142.187 436.44 141.86C437.075 141.524 437.789 141.356 438.582 141.356C439.376 141.356 440.085 141.524 440.71 141.86C441.336 142.187 441.826 142.644 442.18 143.232C442.535 143.82 442.712 144.487 442.712 145.234C442.712 145.981 442.535 146.648 442.18 147.236C441.826 147.824 441.336 148.286 440.71 148.622C440.085 148.949 439.376 149.112 438.582 149.112ZM438.582 147.32C439.142 147.32 439.6 147.133 439.954 146.76C440.318 146.377 440.5 145.869 440.5 145.234C440.5 144.599 440.318 144.095 439.954 143.722C439.6 143.339 439.142 143.148 438.582 143.148C438.022 143.148 437.56 143.339 437.196 143.722C436.832 144.095 436.65 144.599 436.65 145.234C436.65 145.869 436.832 146.377 437.196 146.76C437.56 147.133 438.022 147.32 438.582 147.32ZM446.258 142.462C446.519 142.098 446.869 141.823 447.308 141.636C447.756 141.449 448.269 141.356 448.848 141.356V143.372C448.605 143.353 448.442 143.344 448.358 143.344C447.733 143.344 447.243 143.521 446.888 143.876C446.533 144.221 446.356 144.744 446.356 145.444V149H444.172V141.468H446.258V142.462ZM461.642 141.468L458.24 149.462C457.895 150.33 457.466 150.941 456.952 151.296C456.448 151.651 455.837 151.828 455.118 151.828C454.726 151.828 454.339 151.767 453.956 151.646C453.574 151.525 453.261 151.357 453.018 151.142L453.816 149.588C453.984 149.737 454.176 149.854 454.39 149.938C454.614 150.022 454.834 150.064 455.048 150.064C455.347 150.064 455.59 149.989 455.776 149.84C455.963 149.7 456.131 149.462 456.28 149.126L456.308 149.056L453.046 141.468H455.3L457.414 146.578L459.542 141.468H461.642ZM465.912 149.112C465.119 149.112 464.405 148.949 463.77 148.622C463.145 148.286 462.655 147.824 462.3 147.236C461.946 146.648 461.768 145.981 461.768 145.234C461.768 144.487 461.946 143.82 462.3 143.232C462.655 142.644 463.145 142.187 463.77 141.86C464.405 141.524 465.119 141.356 465.912 141.356C466.706 141.356 467.415 141.524 468.04 141.86C468.666 142.187 469.156 142.644 469.51 143.232C469.865 143.82 470.042 144.487 470.042 145.234C470.042 145.981 469.865 146.648 469.51 147.236C469.156 147.824 468.666 148.286 468.04 148.622C467.415 148.949 466.706 149.112 465.912 149.112ZM465.912 147.32C466.472 147.32 466.93 147.133 467.284 146.76C467.648 146.377 467.83 145.869 467.83 145.234C467.83 144.599 467.648 144.095 467.284 143.722C466.93 143.339 466.472 143.148 465.912 143.148C465.352 143.148 464.89 143.339 464.526 143.722C464.162 144.095 463.98 144.599 463.98 145.234C463.98 145.869 464.162 146.377 464.526 146.76C464.89 147.133 465.352 147.32 465.912 147.32ZM479.09 141.468V149H477.018V148.104C476.729 148.431 476.383 148.683 475.982 148.86C475.581 149.028 475.147 149.112 474.68 149.112C473.691 149.112 472.907 148.827 472.328 148.258C471.749 147.689 471.46 146.844 471.46 145.724V141.468H473.644V145.402C473.644 146.615 474.153 147.222 475.17 147.222C475.693 147.222 476.113 147.054 476.43 146.718C476.747 146.373 476.906 145.864 476.906 145.192V141.468H479.09ZM480.833 139.2H483.437L483.003 145.598H481.267L480.833 139.2ZM482.135 149.112C481.753 149.112 481.431 148.991 481.169 148.748C480.917 148.496 480.791 148.193 480.791 147.838C480.791 147.483 480.917 147.189 481.169 146.956C481.421 146.713 481.743 146.592 482.135 146.592C482.527 146.592 482.849 146.713 483.101 146.956C483.353 147.189 483.479 147.483 483.479 147.838C483.479 148.193 483.349 148.496 483.087 148.748C482.835 148.991 482.518 149.112 482.135 149.112Z" fill="#E861A7"/>
<path d="M404.016 237.584L402.336 246H401.248L401.52 244.656C400.731 245.605 399.648 246.08 398.272 246.08C397.333 246.08 396.597 245.84 396.064 245.36C395.541 244.869 395.28 244.192 395.28 243.328C395.28 243.029 395.312 242.715 395.376 242.384L396.336 237.584H397.472L396.512 242.384C396.459 242.683 396.432 242.933 396.432 243.136C396.432 243.755 396.608 244.229 396.96 244.56C397.323 244.891 397.861 245.056 398.576 245.056C399.472 245.056 400.213 244.805 400.8 244.304C401.387 243.803 401.781 243.072 401.984 242.112L402.88 237.584H404.016ZM411.294 237.52C412.243 237.52 412.979 237.765 413.502 238.256C414.035 238.736 414.302 239.403 414.302 240.256C414.302 240.555 414.27 240.875 414.206 241.216L413.246 246H412.11L413.07 241.2C413.123 240.901 413.15 240.645 413.15 240.432C413.15 239.824 412.963 239.36 412.59 239.04C412.227 238.709 411.688 238.544 410.974 238.544C410.067 238.544 409.32 238.795 408.734 239.296C408.147 239.787 407.752 240.517 407.55 241.488L406.654 246H405.518L407.182 237.584H408.27L407.998 238.928C408.798 237.989 409.896 237.52 411.294 237.52ZM418.714 234.128H419.85L417.482 246H416.346L418.714 234.128ZM422.307 237.584H423.443L421.779 246H420.643L422.307 237.584ZM423.363 235.744C423.139 235.744 422.952 235.669 422.803 235.52C422.664 235.371 422.595 235.195 422.595 234.992C422.595 234.747 422.675 234.544 422.835 234.384C423.005 234.213 423.219 234.128 423.475 234.128C423.699 234.128 423.885 234.203 424.035 234.352C424.184 234.491 424.259 234.656 424.259 234.848C424.259 235.104 424.173 235.317 424.003 235.488C423.832 235.659 423.619 235.744 423.363 235.744ZM436.908 237.52C437.857 237.52 438.588 237.76 439.1 238.24C439.622 238.709 439.884 239.371 439.884 240.224C439.884 240.469 439.846 240.8 439.772 241.216L438.812 246H437.676L438.636 241.2C438.689 240.955 438.716 240.693 438.716 240.416C438.716 239.819 438.54 239.36 438.188 239.04C437.836 238.709 437.318 238.544 436.636 238.544C435.782 238.544 435.073 238.784 434.508 239.264C433.942 239.733 433.564 240.432 433.372 241.36L432.444 246H431.308L432.267 241.2C432.321 240.901 432.348 240.645 432.348 240.432C432.348 239.824 432.172 239.36 431.82 239.04C431.478 238.709 430.961 238.544 430.268 238.544C429.404 238.544 428.689 238.795 428.124 239.296C427.558 239.787 427.174 240.517 426.972 241.488L426.076 246H424.94L426.604 237.584H427.692L427.42 238.928C428.188 237.989 429.249 237.52 430.604 237.52C431.308 237.52 431.894 237.664 432.364 237.952C432.844 238.24 433.174 238.656 433.356 239.2C433.772 238.645 434.278 238.229 434.876 237.952C435.484 237.664 436.161 237.52 436.908 237.52ZM443.572 237.584H444.708L443.044 246H441.908L443.572 237.584ZM444.628 235.744C444.404 235.744 444.218 235.669 444.068 235.52C443.93 235.371 443.86 235.195 443.86 234.992C443.86 234.747 443.94 234.544 444.1 234.384C444.271 234.213 444.484 234.128 444.74 234.128C444.964 234.128 445.151 234.203 445.3 234.352C445.45 234.491 445.524 234.656 445.524 234.848C445.524 235.104 445.439 235.317 445.268 235.488C445.098 235.659 444.884 235.744 444.628 235.744ZM448.029 243.456C447.986 243.712 447.965 243.888 447.965 243.984C447.965 244.731 448.37 245.104 449.181 245.104C449.661 245.104 450.093 244.96 450.477 244.672L450.749 245.536C450.269 245.899 449.645 246.08 448.877 246.08C448.248 246.08 447.746 245.909 447.373 245.568C447.01 245.227 446.829 244.757 446.829 244.16C446.829 243.925 446.85 243.707 446.893 243.504L447.869 238.544H446.381L446.557 237.584H448.061L448.429 235.744H449.565L449.197 237.584H451.757L451.565 238.544H449.005L448.029 243.456ZM453.464 242.112C453.454 242.187 453.448 242.299 453.448 242.448C453.448 243.301 453.688 243.952 454.168 244.4C454.659 244.848 455.384 245.072 456.344 245.072C456.899 245.072 457.416 244.981 457.896 244.8C458.387 244.608 458.787 244.347 459.096 244.016L459.608 244.832C459.214 245.227 458.718 245.536 458.12 245.76C457.534 245.973 456.91 246.08 456.248 246.08C455.032 246.08 454.072 245.76 453.368 245.12C452.675 244.48 452.328 243.605 452.328 242.496C452.328 241.557 452.526 240.709 452.92 239.952C453.326 239.195 453.88 238.603 454.584 238.176C455.299 237.739 456.099 237.52 456.984 237.52C458.104 237.52 458.995 237.84 459.656 238.48C460.318 239.109 460.648 239.979 460.648 241.088C460.648 241.397 460.611 241.739 460.536 242.112H453.464ZM456.952 238.48C456.11 238.48 455.39 238.731 454.792 239.232C454.195 239.733 453.79 240.411 453.576 241.264H459.576C459.587 241.189 459.592 241.088 459.592 240.96C459.592 240.171 459.352 239.563 458.872 239.136C458.392 238.699 457.752 238.48 456.952 238.48ZM472.113 234.128L469.745 246H468.657L468.929 244.672C468.523 245.12 468.043 245.467 467.489 245.712C466.934 245.957 466.321 246.08 465.649 246.08C464.934 246.08 464.299 245.936 463.745 245.648C463.19 245.36 462.758 244.949 462.449 244.416C462.139 243.872 461.985 243.237 461.985 242.512C461.985 241.563 462.187 240.709 462.593 239.952C463.009 239.195 463.579 238.603 464.305 238.176C465.03 237.739 465.841 237.52 466.737 237.52C467.526 237.52 468.193 237.68 468.737 238C469.291 238.309 469.691 238.757 469.937 239.344L470.977 234.128H472.113ZM465.889 245.072C466.582 245.072 467.206 244.907 467.761 244.576C468.315 244.235 468.747 243.765 469.057 243.168C469.377 242.56 469.536 241.883 469.536 241.136C469.536 240.315 469.291 239.675 468.801 239.216C468.321 238.747 467.643 238.512 466.769 238.512C466.075 238.512 465.451 238.683 464.897 239.024C464.342 239.365 463.905 239.84 463.585 240.448C463.275 241.045 463.121 241.717 463.121 242.464C463.121 243.285 463.361 243.925 463.841 244.384C464.331 244.843 465.014 245.072 465.889 245.072ZM480.904 246.08C480.114 246.08 479.426 245.936 478.84 245.648C478.253 245.349 477.8 244.933 477.48 244.4C477.17 243.856 477.016 243.227 477.016 242.512C477.016 241.563 477.224 240.709 477.64 239.952C478.056 239.195 478.637 238.603 479.384 238.176C480.13 237.739 480.973 237.52 481.912 237.52C482.69 237.52 483.357 237.664 483.912 237.952C484.477 238.229 484.914 238.645 485.224 239.2L484.264 239.76C483.784 238.928 482.968 238.512 481.816 238.512C481.122 238.512 480.493 238.683 479.928 239.024C479.373 239.365 478.936 239.835 478.616 240.432C478.306 241.029 478.152 241.707 478.152 242.464C478.152 243.285 478.392 243.925 478.872 244.384C479.362 244.843 480.056 245.072 480.952 245.072C481.496 245.072 481.997 244.971 482.456 244.768C482.925 244.555 483.309 244.251 483.608 243.856L484.424 244.48C484.05 244.981 483.549 245.376 482.92 245.664C482.301 245.941 481.629 246.08 480.904 246.08ZM495.331 237.584L493.651 246H492.563L492.835 244.672C492.429 245.12 491.949 245.467 491.395 245.712C490.84 245.957 490.227 246.08 489.555 246.08C488.84 246.08 488.205 245.936 487.651 245.648C487.096 245.36 486.664 244.949 486.355 244.416C486.045 243.872 485.891 243.237 485.891 242.512C485.891 241.563 486.093 240.709 486.499 239.952C486.915 239.195 487.485 238.603 488.211 238.176C488.936 237.739 489.747 237.52 490.643 237.52C491.443 237.52 492.115 237.68 492.659 238C493.203 238.309 493.597 238.757 493.843 239.344L494.195 237.584H495.331ZM489.795 245.072C490.488 245.072 491.112 244.907 491.667 244.576C492.221 244.235 492.653 243.765 492.963 243.168C493.283 242.56 493.443 241.883 493.443 241.136C493.443 240.315 493.197 239.675 492.707 239.216C492.227 238.747 491.549 238.512 490.675 238.512C489.981 238.512 489.357 238.683 488.803 239.024C488.248 239.365 487.811 239.84 487.491 240.448C487.181 241.045 487.027 241.717 487.027 242.464C487.027 243.285 487.267 243.925 487.747 244.384C488.237 244.843 488.92 245.072 489.795 245.072ZM499.183 234.128H500.319L497.951 246H496.815L499.183 234.128ZM503.479 234.128H504.615L502.247 246H501.111L503.479 234.128ZM507.856 246.08C507.184 246.08 506.539 245.984 505.92 245.792C505.312 245.6 504.843 245.355 504.512 245.056L505.056 244.16C505.376 244.437 505.798 244.661 506.32 244.832C506.843 245.003 507.392 245.088 507.968 245.088C508.768 245.088 509.382 244.96 509.808 244.704C510.246 244.437 510.464 244.064 510.464 243.584C510.464 243.317 510.374 243.104 510.192 242.944C510.022 242.784 509.808 242.661 509.552 242.576C509.296 242.491 508.923 242.395 508.432 242.288C507.846 242.16 507.371 242.032 507.008 241.904C506.646 241.776 506.336 241.573 506.08 241.296C505.824 241.019 505.696 240.635 505.696 240.144C505.696 239.344 506.027 238.709 506.688 238.24C507.35 237.76 508.235 237.52 509.344 237.52C509.888 237.52 510.416 237.595 510.928 237.744C511.451 237.883 511.872 238.069 512.192 238.304L511.712 239.216C511.392 238.981 511.014 238.805 510.576 238.688C510.15 238.56 509.707 238.496 509.248 238.496C508.48 238.496 507.883 238.635 507.456 238.912C507.03 239.189 506.816 239.563 506.816 240.032C506.816 240.309 506.907 240.533 507.088 240.704C507.27 240.875 507.494 241.003 507.76 241.088C508.038 241.173 508.411 241.264 508.88 241.36C509.456 241.488 509.92 241.616 510.272 241.744C510.635 241.861 510.944 242.059 511.2 242.336C511.456 242.613 511.584 242.987 511.584 243.456C511.584 244.277 511.243 244.923 510.56 245.392C509.888 245.851 508.987 246.08 507.856 246.08Z" fill="#BD5296"/>
<path d="M399.712 254.008C399.211 254.008 398.816 254.141 398.528 254.408C398.24 254.675 398.037 255.091 397.92 255.656L397.728 256.584H400.304L400.112 257.544H397.568L396.08 265H394.944L396.432 257.544H394.928L395.104 256.584H396.624L396.832 255.528C396.992 254.728 397.312 254.115 397.792 253.688C398.283 253.261 398.923 253.048 399.712 253.048C400.053 253.048 400.373 253.096 400.672 253.192C400.971 253.288 401.216 253.421 401.408 253.592L400.912 254.424C400.603 254.147 400.203 254.008 399.712 254.008ZM403.777 265.08C403.009 265.08 402.337 264.936 401.761 264.648C401.185 264.349 400.737 263.933 400.417 263.4C400.108 262.856 399.953 262.227 399.953 261.512C399.953 260.563 400.161 259.709 400.577 258.952C400.993 258.195 401.569 257.603 402.305 257.176C403.052 256.739 403.889 256.52 404.817 256.52C405.991 256.52 406.919 256.84 407.601 257.48C408.295 258.12 408.641 258.984 408.641 260.072C408.641 261.021 408.433 261.88 408.017 262.648C407.601 263.405 407.02 264.003 406.273 264.44C405.537 264.867 404.705 265.08 403.777 265.08ZM403.857 264.072C404.551 264.072 405.175 263.907 405.729 263.576C406.284 263.235 406.716 262.765 407.025 262.168C407.345 261.56 407.505 260.883 407.505 260.136C407.505 259.315 407.26 258.675 406.769 258.216C406.289 257.747 405.612 257.512 404.737 257.512C404.044 257.512 403.42 257.683 402.865 258.024C402.311 258.365 401.873 258.84 401.553 259.448C401.244 260.045 401.089 260.717 401.089 261.464C401.089 262.285 401.329 262.925 401.809 263.384C402.3 263.843 402.983 264.072 403.857 264.072ZM412.529 258.12C412.902 257.576 413.371 257.176 413.937 256.92C414.502 256.653 415.185 256.52 415.985 256.52L415.777 257.624L415.457 257.608C414.55 257.608 413.803 257.869 413.217 258.392C412.641 258.915 412.251 259.693 412.049 260.728L411.201 265H410.065L411.729 256.584H412.817L412.529 258.12ZM418.914 268.184C418.551 268.184 418.221 268.136 417.922 268.04C417.613 267.955 417.351 267.827 417.138 267.656L417.666 266.776C417.986 267.064 418.407 267.208 418.93 267.208C419.389 267.208 419.757 267.08 420.034 266.824C420.311 266.568 420.503 266.163 420.61 265.608L422.418 256.584H423.554L421.746 265.64C421.405 267.336 420.461 268.184 418.914 268.184ZM423.458 254.728C423.234 254.728 423.047 254.653 422.898 254.504C422.759 254.355 422.69 254.179 422.69 253.976C422.69 253.731 422.77 253.528 422.93 253.368C423.101 253.197 423.314 253.112 423.57 253.112C423.794 253.112 423.981 253.187 424.13 253.336C424.279 253.475 424.354 253.64 424.354 253.832C424.354 254.088 424.269 254.301 424.098 254.472C423.927 254.643 423.714 254.728 423.458 254.728ZM434.329 256.584L432.649 265H431.561L431.833 263.656C431.043 264.605 429.961 265.08 428.585 265.08C427.646 265.08 426.91 264.84 426.377 264.36C425.854 263.869 425.593 263.192 425.593 262.328C425.593 262.029 425.625 261.715 425.689 261.384L426.649 256.584H427.785L426.825 261.384C426.771 261.683 426.745 261.933 426.745 262.136C426.745 262.755 426.921 263.229 427.273 263.56C427.635 263.891 428.174 264.056 428.889 264.056C429.785 264.056 430.526 263.805 431.113 263.304C431.699 262.803 432.094 262.072 432.297 261.112L433.193 256.584H434.329ZM438.278 265.08C437.606 265.08 436.961 264.984 436.342 264.792C435.734 264.6 435.265 264.355 434.934 264.056L435.478 263.16C435.798 263.437 436.219 263.661 436.742 263.832C437.265 264.003 437.814 264.088 438.39 264.088C439.19 264.088 439.803 263.96 440.23 263.704C440.667 263.437 440.886 263.064 440.886 262.584C440.886 262.317 440.795 262.104 440.614 261.944C440.443 261.784 440.23 261.661 439.974 261.576C439.718 261.491 439.345 261.395 438.854 261.288C438.267 261.16 437.793 261.032 437.43 260.904C437.067 260.776 436.758 260.573 436.502 260.296C436.246 260.019 436.118 259.635 436.118 259.144C436.118 258.344 436.449 257.709 437.11 257.24C437.771 256.76 438.657 256.52 439.766 256.52C440.31 256.52 440.838 256.595 441.35 256.744C441.873 256.883 442.294 257.069 442.614 257.304L442.134 258.216C441.814 257.981 441.435 257.805 440.998 257.688C440.571 257.56 440.129 257.496 439.67 257.496C438.902 257.496 438.305 257.635 437.878 257.912C437.451 258.189 437.238 258.563 437.238 259.032C437.238 259.309 437.329 259.533 437.51 259.704C437.691 259.875 437.915 260.003 438.182 260.088C438.459 260.173 438.833 260.264 439.302 260.36C439.878 260.488 440.342 260.616 440.694 260.744C441.057 260.861 441.366 261.059 441.622 261.336C441.878 261.613 442.006 261.987 442.006 262.456C442.006 263.277 441.665 263.923 440.982 264.392C440.31 264.851 439.409 265.08 438.278 265.08ZM445.482 262.456C445.44 262.712 445.418 262.888 445.418 262.984C445.418 263.731 445.824 264.104 446.634 264.104C447.114 264.104 447.546 263.96 447.93 263.672L448.202 264.536C447.722 264.899 447.098 265.08 446.33 265.08C445.701 265.08 445.2 264.909 444.826 264.568C444.464 264.227 444.282 263.757 444.282 263.16C444.282 262.925 444.304 262.707 444.346 262.504L445.322 257.544H443.834L444.01 256.584H445.514L445.882 254.744H447.018L446.65 256.584H449.21L449.018 257.544H446.458L445.482 262.456ZM462.634 254.616L458.682 258.616C459.642 258.691 460.378 258.973 460.89 259.464C461.412 259.955 461.674 260.611 461.674 261.432C461.674 262.147 461.482 262.781 461.098 263.336C460.714 263.891 460.175 264.323 459.482 264.632C458.788 264.941 457.988 265.096 457.082 265.096C456.228 265.096 455.466 264.968 454.794 264.712C454.122 264.445 453.604 264.088 453.242 263.64L453.882 262.744C454.191 263.139 454.628 263.453 455.194 263.688C455.77 263.923 456.42 264.04 457.146 264.04C458.191 264.04 459.007 263.811 459.594 263.352C460.191 262.893 460.49 262.275 460.49 261.496C460.49 260.205 459.588 259.56 457.786 259.56H457.066L457.242 258.712L461.082 254.824H455.402L455.61 253.8H462.794L462.634 254.616ZM467.857 253.704C469.105 253.704 470.102 254.088 470.849 254.856C471.596 255.613 471.969 256.707 471.969 258.136C471.969 259.277 471.756 260.381 471.329 261.448C470.902 262.504 470.225 263.379 469.297 264.072C468.38 264.755 467.212 265.096 465.793 265.096C464.641 265.096 463.75 264.888 463.121 264.472L463.665 263.544C464.22 263.907 464.956 264.088 465.873 264.088C466.908 264.088 467.777 263.843 468.481 263.352C469.196 262.851 469.734 262.205 470.097 261.416C470.46 260.627 470.673 259.784 470.737 258.888C470.374 259.443 469.9 259.853 469.313 260.12C468.737 260.376 468.102 260.504 467.409 260.504C466.737 260.504 466.124 260.381 465.569 260.136C465.025 259.88 464.593 259.517 464.273 259.048C463.964 258.568 463.809 258.003 463.809 257.352C463.809 256.616 463.98 255.976 464.321 255.432C464.673 254.877 465.153 254.451 465.761 254.152C466.38 253.853 467.078 253.704 467.857 253.704ZM467.649 259.528C468.236 259.528 468.758 259.416 469.217 259.192C469.676 258.968 470.028 258.664 470.273 258.28C470.529 257.885 470.657 257.453 470.657 256.984C470.657 256.589 470.55 256.216 470.337 255.864C470.124 255.512 469.804 255.229 469.377 255.016C468.961 254.792 468.46 254.68 467.873 254.68C466.998 254.68 466.294 254.915 465.761 255.384C465.238 255.843 464.977 256.472 464.977 257.272C464.977 257.987 465.222 258.541 465.713 258.936C466.204 259.331 466.849 259.528 467.649 259.528ZM481.671 255.624C480.903 255.08 479.996 254.781 478.951 254.728L478.103 259C478.764 259.192 479.303 259.384 479.719 259.576C480.135 259.768 480.487 260.04 480.775 260.392C481.063 260.733 481.207 261.176 481.207 261.72C481.207 262.744 480.812 263.555 480.023 264.152C479.234 264.739 478.188 265.053 476.887 265.096L476.519 266.92H475.735L476.103 265.08C475.367 265.027 474.679 264.872 474.039 264.616C473.399 264.36 472.908 264.045 472.567 263.672L473.143 262.744C473.484 263.107 473.938 263.411 474.503 263.656C475.068 263.891 475.671 264.029 476.311 264.072L477.143 259.848C476.535 259.656 476.028 259.464 475.623 259.272C475.218 259.069 474.882 258.792 474.615 258.44C474.348 258.088 474.215 257.635 474.215 257.08C474.215 256.088 474.594 255.293 475.351 254.696C476.119 254.088 477.127 253.757 478.375 253.704L478.743 251.88H479.527L479.159 253.72C479.735 253.752 480.284 253.853 480.807 254.024C481.33 254.184 481.783 254.397 482.167 254.664L481.671 255.624ZM475.367 256.968C475.367 257.437 475.538 257.805 475.879 258.072C476.22 258.339 476.716 258.573 477.367 258.776L478.167 254.728C477.314 254.792 476.631 255.027 476.119 255.432C475.618 255.827 475.367 256.339 475.367 256.968ZM480.039 261.88C480.039 261.4 479.852 261.032 479.479 260.776C479.116 260.509 478.588 260.269 477.895 260.056L477.095 264.072C477.991 264.029 478.706 263.816 479.239 263.432C479.772 263.048 480.039 262.531 480.039 261.88Z" fill="#BD5296"/>
<defs>
<filter id="filter0_ddi" x="0" y="0" width="898" height="480" filterUnits="userSpaceOnUse" color-interpolation-filters="sRGB">
<feFlood flood-opacity="0" result="BackgroundImageFix"/>
<feColorMatrix in="SourceAlpha" type="matrix" values="0 0 0 0 0 0 0 0 0 0 0 0 0 0 0 0 0 0 127 0"/>
<feOffset dx="30" dy="30"/>
<feGaussianBlur stdDeviation="40"/>
<feColorMatrix type="matrix" values="0 0 0 0 0.215686 0 0 0 0 0.329412 0 0 0 0 0.666667 0 0 0 0.1 0"/>
<feBlend mode="normal" in2="BackgroundImageFix" result="effect1_dropShadow"/>
<feColorMatrix in="SourceAlpha" type="matrix" values="0 0 0 0 0 0 0 0 0 0 0 0 0 0 0 0 0 0 127 0"/>
<feOffset dx="-30" dy="-30"/>
<feGaussianBlur stdDeviation="40"/>
<feColorMatrix type="matrix" values="0 0 0 0 1 0 0 0 0 1 0 0 0 0 1 0 0 0 1 0"/>
<feBlend mode="normal" in2="effect1_dropShadow" result="effect2_dropShadow"/>
<feBlend mode="normal" in="SourceGraphic" in2="effect2_dropShadow" result="shape"/>
<feColorMatrix in="SourceAlpha" type="matrix" values="0 0 0 0 0 0 0 0 0 0 0 0 0 0 0 0 0 0 127 0" result="hardAlpha"/>
<feOffset dx="4" dy="4"/>
<feGaussianBlur stdDeviation="10"/>
<feComposite in2="hardAlpha" operator="arithmetic" k2="-1" k3="1"/>
<feColorMatrix type="matrix" values="0 0 0 0 1 0 0 0 0 1 0 0 0 0 1 0 0 0 0.5 0"/>
<feBlend mode="normal" in2="shape" result="effect3_innerShadow"/>
</filter>
</defs>
</svg>
