<svg width="672" height="476" viewBox="0 0 672 476" fill="none" xmlns="http://www.w3.org/2000/svg">
<g filter="url(#filter0_ddi)">
<path fill-rule="evenodd" clip-rule="evenodd" d="M139.333 110H532.667C548.867 110 562 129.7 562 154V326C562 350.3 548.867 370 532.667 370H139.333C123.133 370 110 350.3 110 326V154C110 129.7 123.133 110 139.333 110Z" fill="#F1F3F6"/>
</g>
<path d="M562 303H111V345C111 363.225 125.775 378 144 378H529C547.225 378 562 363.225 562 345V303Z" fill="#2CAA9A"/>
<path d="M239.7 269.6L237 274C236.5 274.8 235.9 275.4 235.2 275.9C234.8 276.2 234.3 276.4 233.8 276.5C229.3 277.7 219.5 278 203.7 262.2C187.9 246.4 188.2 236.6 189.4 232.1C189.5 231.6 189.7 231.1 190 230.7C190.5 229.9 191.1 229.3 191.9 228.9L196.4 226.2C197.4 225.6 198.7 225.9 199.4 226.9L203.3 232.7L206.6 237.6C207.2 238.6 207 239.9 206.1 240.6L205 241.4L202.1 243.7C201.2 244.4 201 245.6 201.5 246.5C202.7 248.6 203.8 251.1 209.3 256.6C214.8 262.1 217.3 263.2 219.4 264.4C220.4 264.9 221.6 264.7 222.2 263.8L224.5 260.9L225.3 259.8C226 258.9 227.3 258.7 228.3 259.3L233.3 262.7L239 266.5C240 267.2 240.3 268.5 239.7 269.6Z" fill="#E0BAD2"/>
<path d="M237.9 271.3L235.2 275.8C235.2 275.8 235.2 275.9 235.1 275.9C234.7 276.2 234.2 276.4 233.7 276.5C229.2 277.7 219.4 278 203.6 262.2C187.8 246.4 188.1 236.6 189.3 232.1C189.4 231.6 189.6 231.1 189.9 230.7C189.9 230.7 190 230.7 190 230.6L194.5 227.9C195.5 227.3 196.8 227.6 197.5 228.6L201.4 234.4L204.7 239.3C205.3 240.3 205.1 241.6 204.2 242.3L201.2 244.6L200.1 245.4C199.2 246.1 199 247.3 199.5 248.2C200.7 250.3 201.8 252.8 207.3 258.3C212.8 263.8 215.3 264.9 217.4 266.1C218.4 266.6 219.6 266.4 220.2 265.5L221 264.4L223.3 261.4C224 260.5 225.3 260.3 226.3 260.9L231.3 264.3L237 268.1C238.2 269 238.5 270.3 237.9 271.3Z" fill="white"/>
<path d="M231.2 277C225.8 276.6 217.6 273.5 206.3 262.2C190.6 246.4 190.8 236.6 192 232.1C192.1 231.6 192.3 231.1 192.6 230.7C193.1 229.9 193.7 229.3 194.5 228.9L198.8 226.3C198.1 225.8 197.1 225.7 196.3 226.2L191.8 228.9C191 229.4 190.4 230 189.9 230.7C189.6 231.1 189.4 231.6 189.3 232.1C188.1 236.6 187.8 246.4 203.6 262.2C216.9 275.4 226 277.4 231.2 277Z" fill="white"/>
<path d="M203.1 262.8C200.4 260.1 197.8 257.2 195.5 254.1C193.1 251 191.1 247.5 189.6 243.8C188.9 241.9 188.4 240 188.1 238C187.9 236 188 233.9 188.5 231.9L190.2 232.4C189.7 234.2 189.6 236 189.8 237.8C190 239.7 190.5 241.5 191.2 243.2C192.6 246.7 194.5 250 196.8 253.1C199.1 256.1 201.6 258.9 204.3 261.6L203.1 262.8Z" fill="white"/>
<path d="M188.1 238C188.3 240 188.8 242 189.6 243.8C191.1 247.5 193 251 195.5 254.1C195.7 254.3 195.8 254.6 196 254.8C196.3 255.2 196.9 255.3 197.3 255C197.7 254.7 197.7 254.2 197.4 253.8C197.2 253.6 197 253.3 196.9 253.1C194.6 250.1 192.7 246.8 191.3 243.2C190.6 241.5 190.2 239.6 189.9 237.8C189.7 236 189.8 234.1 190.3 232.4C190.6 231.3 191.4 230.3 192.4 229.7L196.9 227C197.5 226.6 198.3 226.8 198.7 227.4L205.8 238.1C206.2 238.7 206.1 239.5 205.5 239.9L201.5 243C200.3 243.9 199.9 245.6 200.7 247L201 247.6C202.1 249.7 203.5 252.2 208.6 257.4C213.7 262.5 216.3 263.9 218.3 265L218.9 265.3C220.2 266.1 221.9 265.7 222.9 264.5L226 260.5C226.4 259.9 227.2 259.8 227.8 260.2L238.5 267.3C239.1 267.7 239.3 268.5 238.9 269.1L236.2 273.6C235.6 274.6 234.6 275.4 233.5 275.7C228.1 277.2 218.6 276 204.3 261.6L201.9 259.1C201.6 258.8 201 258.7 200.7 259.1C200.5 259.3 200.4 259.5 200.4 259.7C200.4 259.9 200.5 260.2 200.6 260.3L203.1 262.9C215 274.7 223.8 277.9 229.9 277.9C231.3 277.9 232.7 277.7 234 277.4C235.6 277 236.9 275.9 237.7 274.5L240.4 270C241.3 268.6 240.8 266.7 239.5 265.8L228.8 258.7C227.4 257.8 225.6 258.1 224.6 259.4L221.5 263.4C221.1 263.9 220.4 264.1 219.8 263.8L219.2 263.5C217.2 262.4 214.8 261.1 209.9 256.2C205 251.3 203.6 248.8 202.6 246.9L202.3 246.3C202 245.7 202.1 245 202.7 244.6L206.7 241.5C208 240.5 208.3 238.7 207.4 237.3L200.3 226.6C199.4 225.2 197.5 224.8 196.1 225.7L191.6 228.4C190.2 229.2 189.2 230.6 188.7 232.1C188 233.9 187.9 235.9 188.1 238Z" fill="#723288"/>
<path d="M199 256.2C198.9 256.2 198.8 256.2 198.7 256.2C198.6 256.2 198.5 256.3 198.4 256.4C198.2 256.6 198.1 256.8 198.1 257C198.1 257.2 198.2 257.5 198.3 257.6C198.5 257.8 198.7 257.9 198.9 257.9H199.1C199.2 257.9 199.2 257.9 199.3 257.9C199.4 257.9 199.4 257.9 199.5 257.8C199.6 257.8 199.6 257.7 199.6 257.7C199.8 257.5 199.9 257.3 199.9 257.1C199.8 256.6 199.5 256.2 199 256.2Z" fill="#B53B88"/>
<path d="M218 233.8C226.3 233.8 233 240.5 233 248.8C233 249.3 233.4 249.7 233.9 249.7C234.4 249.7 234.8 249.3 234.8 248.8C234.8 239.6 227.3 232.1 218 232C217.5 232 217.1 232.4 217.1 232.9C217.1 233.4 217.5 233.8 218 233.8Z" fill="#35A9E0"/>
<path d="M218 239.1C223.4 239.1 227.7 243.4 227.7 248.8C227.7 249.3 228.1 249.7 228.6 249.7C229.1 249.7 229.5 249.3 229.5 248.8C229.5 242.5 224.4 237.3 218 237.3C217.5 237.3 217.1 237.7 217.1 238.2C217.1 238.7 217.5 239.1 218 239.1Z" fill="#35A9E0"/>
<path d="M218 244.4C220.4 244.4 222.4 246.4 222.4 248.8C222.4 249.3 222.8 249.7 223.3 249.7C223.8 249.7 224.2 249.3 224.2 248.8C224.2 245.4 221.4 242.6 218 242.6C217.5 242.6 217.1 243 217.1 243.5C217.1 244 217.5 244.4 218 244.4Z" fill="#35A9E0"/>
<path d="M257.6 240.1C259.5 240.4 260.8 242.2 260.4 244.1C260.2 245.3 259.2 246.1 258 246.8C257.7 247 257.3 247.2 257 247.4C256 247.9 254.6 248.7 254.5 249.3C254.4 250.1 254.9 250.8 255.7 251C256.5 251.1 257.2 250.6 257.4 249.8C257.4 249.8 257.4 249.6 257.3 249.3C257.1 248.8 257.3 248.2 257.8 248C258.3 247.8 258.9 248 259.1 248.5C259.4 249.1 259.4 249.7 259.4 250.1C259.1 252 257.3 253.2 255.4 252.9C253.5 252.6 252.2 250.8 252.6 248.9C252.8 247.7 253.8 246.9 254.9 246.3C255.3 246.1 255.7 245.9 256 245.7C257 245.2 258.4 244.4 258.5 243.8C258.6 243 258.1 242.3 257.3 242.1C256.5 242 255.8 242.5 255.6 243.3C255.6 243.3 255.6 243.5 255.8 243.9C256 244.4 255.8 245 255.3 245.2C254.8 245.4 254.2 245.2 253.9 244.7C253.6 244 253.4 243.4 253.5 242.8C253.9 241 255.7 239.8 257.6 240.1Z" fill="#E0BAD2"/>
<path d="M272.6 252.1C274.5 252.4 275.8 254.2 275.4 256.1C275.2 257.3 274.2 258.1 273 258.8C272.7 259 272.3 259.2 272 259.4C271 259.9 269.6 260.7 269.5 261.3C269.4 262.1 269.9 262.8 270.7 263C271.5 263.1 272.2 262.6 272.4 261.8C272.4 261.8 272.4 261.6 272.3 261.3C272.1 260.8 272.3 260.2 272.8 260C273.3 259.8 273.9 260 274.1 260.5C274.4 261.1 274.4 261.7 274.4 262.1C274.1 264 272.3 265.2 270.4 264.9C268.5 264.6 267.2 262.8 267.6 260.9C267.8 259.7 268.8 258.9 269.9 258.3C270.3 258.1 270.7 257.9 271 257.7C272 257.2 273.4 256.4 273.5 255.8C273.6 255 273.1 254.3 272.3 254.1C271.5 254 270.8 254.5 270.6 255.3C270.6 255.3 270.6 255.5 270.8 255.9C271 256.4 270.8 257 270.3 257.2C269.8 257.4 269.2 257.2 268.9 256.7C268.6 256 268.4 255.4 268.5 254.8C268.9 253 270.7 251.8 272.6 252.1Z" fill="#E0BAD2"/>
<path d="M253.4 267.8C251.7 269.2 249.2 269 247.8 267.3C246.9 266.2 246.9 264.7 247.2 263.1C247.3 262.7 247.4 262.2 247.5 261.8C247.8 260.5 248.1 258.8 247.7 258.3C247.1 257.6 246.1 257.5 245.4 258.1C244.7 258.7 244.6 259.7 245.2 260.4C245.2 260.4 245.3 260.5 245.7 260.7C246.3 260.9 246.7 261.5 246.5 262.2C246.3 262.8 245.7 263.2 245 263C244.3 262.8 243.7 262.4 243.4 262C242 260.3 242.2 257.8 243.9 256.4C245.6 255 248.1 255.2 249.5 256.9C250.4 257.9 250.4 259.4 250.1 260.9C250 261.4 249.9 261.9 249.8 262.4C249.5 263.7 249.2 265.4 249.6 265.9C250.2 266.6 251.2 266.7 251.9 266.1C252.6 265.5 252.7 264.5 252.1 263.8C252.1 263.8 251.9 263.6 251.4 263.5C250.8 263.3 250.4 262.7 250.6 262.1C250.8 261.5 251.4 261.1 252 261.3C252.8 261.5 253.5 261.9 253.9 262.4C255.3 263.8 255 266.3 253.4 267.8Z" fill="#E0BAD2"/>
<path d="M451.3 269.6L454 274C454.5 274.8 455.1 275.4 455.8 275.9C456.2 276.2 456.7 276.4 457.2 276.5C461.7 277.7 471.5 278 487.3 262.2C503.1 246.4 502.8 236.6 501.6 232.1C501.5 231.6 501.3 231.1 501 230.7C500.5 229.9 499.9 229.3 499.1 228.9L494.6 226.2C493.6 225.6 492.3 225.9 491.6 226.9L487.7 232.7L484.4 237.6C483.8 238.6 484 239.9 484.9 240.6L486 241.4L488.9 243.7C489.8 244.4 490 245.6 489.5 246.5C488.3 248.6 487.2 251.1 481.7 256.6C476.2 262.1 473.7 263.2 471.6 264.4C470.6 264.9 469.4 264.7 468.8 263.8L466.5 260.9L465.7 259.8C465 258.9 463.7 258.7 462.7 259.3L457.7 262.7L452 266.5C451 267.2 450.7 268.5 451.3 269.6Z" fill="#E0BAD2"/>
<path d="M453.1 271.3L455.8 275.8C455.8 275.8 455.8 275.9 455.9 275.9C456.3 276.2 456.8 276.4 457.3 276.5C461.8 277.7 471.6 278 487.4 262.2C503.2 246.4 502.9 236.6 501.7 232.1C501.6 231.6 501.4 231.1 501.1 230.7C501.1 230.7 501 230.7 501 230.6L496.5 227.9C495.5 227.3 494.2 227.6 493.5 228.6L489.6 234.4L486.3 239.3C485.7 240.3 485.9 241.6 486.8 242.3L489.8 244.6L490.9 245.4C491.8 246.1 492 247.3 491.5 248.2C490.3 250.3 489.2 252.8 483.7 258.3C478.2 263.8 475.7 264.9 473.6 266.1C472.6 266.6 471.4 266.4 470.8 265.5L470 264.4L467.7 261.4C467 260.5 465.7 260.3 464.7 260.9L459.7 264.3L454 268.1C452.8 269 452.5 270.3 453.1 271.3Z" fill="white"/>
<path d="M459.8 277C465.2 276.6 473.4 273.5 484.7 262.2C500.5 246.4 500.2 236.6 499 232.1C498.9 231.6 498.7 231.1 498.4 230.7C497.9 229.9 497.3 229.3 496.5 228.9L492.2 226.3C492.9 225.8 493.9 225.7 494.7 226.2L499.2 228.9C500 229.4 500.6 230 501.1 230.7C501.4 231.1 501.6 231.6 501.7 232.1C502.9 236.6 503.2 246.4 487.4 262.2C474.1 275.4 465 277.4 459.8 277Z" fill="white"/>
<path d="M487.9 262.8C490.6 260.1 493.2 257.2 495.5 254.1C497.9 251 499.9 247.5 501.4 243.8C502.1 241.9 502.6 240 502.9 238C503.1 236 503 233.9 502.5 231.9L500.8 232.4C501.3 234.2 501.4 236 501.2 237.8C501 239.7 500.5 241.5 499.8 243.2C498.4 246.7 496.5 250 494.2 253.1C491.9 256.1 489.4 258.9 486.7 261.6L487.9 262.8Z" fill="white"/>
<path d="M502.9 238C502.7 240 502.2 242 501.4 243.8C499.9 247.5 498 251 495.5 254.1C495.3 254.3 495.2 254.6 495 254.8C494.7 255.2 494.1 255.3 493.7 255C493.3 254.7 493.3 254.2 493.6 253.8C493.8 253.6 494 253.3 494.1 253.1C496.4 250.1 498.3 246.8 499.7 243.2C500.4 241.5 500.8 239.6 501.1 237.8C501.3 236 501.2 234.1 500.7 232.4C500.4 231.3 499.6 230.3 498.6 229.7L494.1 227C493.5 226.6 492.7 226.8 492.3 227.4L485.2 238.1C484.8 238.7 484.9 239.5 485.5 239.9L489.5 243C490.7 243.9 491.1 245.6 490.3 247L490 247.6C488.9 249.7 487.5 252.2 482.4 257.4C477.3 262.5 474.7 263.9 472.7 265L472.1 265.3C470.8 266.1 469.1 265.7 468.1 264.5L465 260.5C464.6 259.9 463.8 259.8 463.2 260.2L452.5 267.3C451.9 267.7 451.7 268.5 452.1 269.1L454.8 273.6C455.4 274.6 456.4 275.4 457.5 275.7C462.9 277.2 472.4 276 486.7 261.6L489.1 259.1C489.4 258.8 490 258.7 490.3 259.1C490.5 259.3 490.6 259.5 490.6 259.7C490.6 259.9 490.5 260.2 490.4 260.3L487.9 262.9C476 274.8 467.2 278 461.1 278C459.7 278 458.3 277.8 457 277.5C455.4 277.1 454.1 276 453.3 274.6L450.6 270.1C449.7 268.7 450.2 266.8 451.5 265.9L462.2 258.8C463.6 257.9 465.4 258.2 466.4 259.5L469.5 263.5C469.9 264 470.6 264.2 471.2 263.9L471.8 263.6C473.8 262.5 476.2 261.2 481.1 256.3C486 251.4 487.4 248.9 488.4 247L488.7 246.4C489 245.8 488.9 245.1 488.3 244.7L484.3 241.6C483 240.6 482.7 238.8 483.6 237.4L490.7 226.7C491.6 225.3 493.5 224.9 494.9 225.8L499.4 228.5C500.8 229.3 501.8 230.7 502.3 232.2C503 233.9 503.1 235.9 502.9 238Z" fill="#723288"/>
<path d="M492 256.2C492.1 256.2 492.2 256.2 492.3 256.2C492.4 256.2 492.5 256.3 492.6 256.4C492.8 256.6 492.9 256.8 492.9 257C492.9 257.2 492.8 257.5 492.7 257.6C492.5 257.8 492.3 257.9 492.1 257.9H491.9C491.8 257.9 491.8 257.9 491.7 257.9C491.6 257.9 491.6 257.9 491.5 257.8C491.4 257.8 491.4 257.7 491.4 257.7C491.2 257.5 491.1 257.3 491.1 257.1C491.2 256.6 491.5 256.2 492 256.2Z" fill="#B53B88"/>
<path d="M473 233.8C464.7 233.8 458 240.5 458 248.8C458 249.3 457.6 249.7 457.1 249.7C456.6 249.7 456.2 249.3 456.2 248.8C456.2 239.6 463.7 232.1 473 232C473.5 232 473.9 232.4 473.9 232.9C473.9 233.4 473.5 233.8 473 233.8Z" fill="#35A9E0"/>
<path d="M473 239.1C467.6 239.1 463.3 243.4 463.3 248.8C463.3 249.3 462.9 249.7 462.4 249.7C461.9 249.7 461.5 249.3 461.5 248.8C461.5 242.5 466.6 237.3 473 237.3C473.5 237.3 473.9 237.7 473.9 238.2C473.9 238.7 473.5 239.1 473 239.1Z" fill="#35A9E0"/>
<path d="M473 244.4C470.6 244.4 468.6 246.4 468.6 248.8C468.6 249.3 468.2 249.7 467.7 249.7C467.2 249.7 466.8 249.3 466.8 248.8C466.8 245.4 469.6 242.6 473 242.6C473.5 242.6 473.9 243 473.9 243.5C473.9 244 473.5 244.4 473 244.4Z" fill="#35A9E0"/>
<path d="M433.4 240.1C431.5 240.4 430.2 242.2 430.6 244.1C430.8 245.3 431.8 246.1 433 246.8C433.3 247 433.7 247.2 434 247.4C435 247.9 436.4 248.7 436.5 249.3C436.6 250.1 436.1 250.8 435.3 251C434.5 251.1 433.8 250.6 433.6 249.8C433.6 249.8 433.6 249.6 433.7 249.3C433.9 248.8 433.7 248.2 433.2 248C432.7 247.8 432.1 248 431.9 248.5C431.6 249.1 431.6 249.7 431.6 250.1C431.9 252 433.7 253.2 435.6 252.9C437.5 252.6 438.8 250.8 438.4 248.9C438.2 247.7 437.2 246.9 436.1 246.3C435.7 246.1 435.3 245.9 435 245.7C434 245.2 432.6 244.4 432.5 243.8C432.4 243 432.9 242.3 433.7 242.1C434.5 242 435.2 242.5 435.4 243.3C435.4 243.3 435.4 243.5 435.2 243.9C435 244.4 435.2 245 435.7 245.2C436.2 245.4 436.8 245.2 437.1 244.7C437.4 244 437.6 243.4 437.5 242.8C437.1 241 435.3 239.8 433.4 240.1Z" fill="#E0BAD2"/>
<path d="M418.4 252.1C416.5 252.4 415.2 254.2 415.6 256.1C415.8 257.3 416.8 258.1 418 258.8C418.3 259 418.7 259.2 419 259.4C420 259.9 421.4 260.7 421.5 261.3C421.6 262.1 421.1 262.8 420.3 263C419.5 263.1 418.8 262.6 418.6 261.8C418.6 261.8 418.6 261.6 418.7 261.3C418.9 260.8 418.7 260.2 418.2 260C417.7 259.8 417.1 260 416.9 260.5C416.6 261.1 416.6 261.7 416.6 262.1C416.9 264 418.7 265.2 420.6 264.9C422.5 264.6 423.8 262.8 423.4 260.9C423.2 259.7 422.2 258.9 421.1 258.3C420.7 258.1 420.3 257.9 420 257.7C419 257.2 417.6 256.4 417.5 255.8C417.4 255 417.9 254.3 418.7 254.1C419.5 254 420.2 254.5 420.4 255.3C420.4 255.3 420.4 255.5 420.2 255.9C420 256.4 420.2 257 420.7 257.2C421.2 257.4 421.8 257.2 422.1 256.7C422.4 256 422.6 255.4 422.5 254.8C422.1 253 420.3 251.8 418.4 252.1Z" fill="#E0BAD2"/>
<path d="M437.6 267.8C439.3 269.2 441.8 269 443.2 267.3C444.1 266.2 444.1 264.7 443.8 263.1C443.7 262.7 443.6 262.2 443.5 261.8C443.2 260.5 442.9 258.8 443.3 258.3C443.9 257.6 444.9 257.5 445.6 258.1C446.3 258.7 446.4 259.7 445.8 260.4C445.8 260.4 445.7 260.5 445.3 260.7C444.7 260.9 444.3 261.5 444.5 262.2C444.7 262.8 445.3 263.2 446 263C446.7 262.8 447.3 262.4 447.6 262C449 260.3 448.8 257.8 447.1 256.4C445.4 255 442.9 255.2 441.5 256.9C440.6 257.9 440.6 259.4 440.9 260.9C441 261.4 441.1 261.9 441.2 262.4C441.5 263.7 441.8 265.4 441.4 265.9C440.8 266.6 439.8 266.7 439.1 266.1C438.4 265.5 438.3 264.5 438.9 263.8C438.9 263.8 439.1 263.6 439.6 263.5C440.2 263.3 440.6 262.7 440.4 262.1C440.2 261.5 439.6 261.1 439 261.3C438.2 261.5 437.5 261.9 437.1 262.4C435.7 263.8 436 266.3 437.6 267.8Z" fill="#E0BAD2"/>
<path d="M273.94 334.16V336.38H277.828V337.94H273.94V341H271.996V332.6H278.344V334.16H273.94ZM281.199 335.396C281.423 335.084 281.723 334.848 282.099 334.688C282.483 334.528 282.923 334.448 283.419 334.448V336.176C283.211 336.16 283.071 336.152 282.999 336.152C282.463 336.152 282.043 336.304 281.739 336.608C281.435 336.904 281.283 337.352 281.283 337.952V341H279.411V334.544H281.199V335.396ZM290.797 337.796C290.797 337.82 290.785 337.988 290.761 338.3H285.877C285.965 338.7 286.173 339.016 286.501 339.248C286.829 339.48 287.237 339.596 287.725 339.596C288.061 339.596 288.357 339.548 288.613 339.452C288.877 339.348 289.121 339.188 289.345 338.972L290.341 340.052C289.733 340.748 288.845 341.096 287.677 341.096C286.949 341.096 286.305 340.956 285.745 340.676C285.185 340.388 284.753 339.992 284.449 339.488C284.145 338.984 283.993 338.412 283.993 337.772C283.993 337.14 284.141 336.572 284.437 336.068C284.741 335.556 285.153 335.16 285.673 334.88C286.201 334.592 286.789 334.448 287.437 334.448C288.069 334.448 288.641 334.584 289.153 334.856C289.665 335.128 290.065 335.52 290.353 336.032C290.649 336.536 290.797 337.124 290.797 337.796ZM287.449 335.864C287.025 335.864 286.669 335.984 286.381 336.224C286.093 336.464 285.917 336.792 285.853 337.208H289.033C288.969 336.8 288.793 336.476 288.505 336.236C288.217 335.988 287.865 335.864 287.449 335.864ZM298.368 337.796C298.368 337.82 298.356 337.988 298.332 338.3H293.448C293.536 338.7 293.744 339.016 294.072 339.248C294.4 339.48 294.808 339.596 295.296 339.596C295.632 339.596 295.928 339.548 296.184 339.452C296.448 339.348 296.692 339.188 296.916 338.972L297.912 340.052C297.304 340.748 296.416 341.096 295.248 341.096C294.52 341.096 293.876 340.956 293.316 340.676C292.756 340.388 292.324 339.992 292.02 339.488C291.716 338.984 291.564 338.412 291.564 337.772C291.564 337.14 291.712 336.572 292.008 336.068C292.312 335.556 292.724 335.16 293.244 334.88C293.772 334.592 294.36 334.448 295.008 334.448C295.64 334.448 296.212 334.584 296.724 334.856C297.236 335.128 297.636 335.52 297.924 336.032C298.22 336.536 298.368 337.124 298.368 337.796ZM295.02 335.864C294.596 335.864 294.24 335.984 293.952 336.224C293.664 336.464 293.488 336.792 293.424 337.208H296.604C296.54 336.8 296.364 336.476 296.076 336.236C295.788 335.988 295.436 335.864 295.02 335.864ZM310.788 341L310.776 335.96L308.304 340.112H307.428L304.968 336.068V341H303.144V332.6H304.752L307.896 337.82L310.992 332.6H312.588L312.612 341H310.788ZM314.473 334.544H316.345V341H314.473V334.544ZM315.409 333.644C315.065 333.644 314.785 333.544 314.569 333.344C314.353 333.144 314.245 332.896 314.245 332.6C314.245 332.304 314.353 332.056 314.569 331.856C314.785 331.656 315.065 331.556 315.409 331.556C315.753 331.556 316.033 331.652 316.249 331.844C316.465 332.036 316.573 332.276 316.573 332.564C316.573 332.876 316.465 333.136 316.249 333.344C316.033 333.544 315.753 333.644 315.409 333.644ZM322.007 334.448C322.807 334.448 323.451 334.688 323.939 335.168C324.435 335.648 324.683 336.36 324.683 337.304V341H322.811V337.592C322.811 337.08 322.699 336.7 322.475 336.452C322.251 336.196 321.927 336.068 321.503 336.068C321.031 336.068 320.655 336.216 320.375 336.512C320.095 336.8 319.955 337.232 319.955 337.808V341H318.083V334.544H319.871V335.3C320.119 335.028 320.427 334.82 320.795 334.676C321.163 334.524 321.567 334.448 322.007 334.448ZM332.884 334.544V341H331.108V340.232C330.86 340.512 330.564 340.728 330.22 340.88C329.876 341.024 329.504 341.096 329.104 341.096C328.256 341.096 327.584 340.852 327.088 340.364C326.592 339.876 326.344 339.152 326.344 338.192V334.544H328.216V337.916C328.216 338.956 328.652 339.476 329.524 339.476C329.972 339.476 330.332 339.332 330.604 339.044C330.876 338.748 331.012 338.312 331.012 337.736V334.544H332.884ZM338.782 340.688C338.598 340.824 338.37 340.928 338.098 341C337.834 341.064 337.554 341.096 337.258 341.096C336.49 341.096 335.894 340.9 335.47 340.508C335.054 340.116 334.846 339.54 334.846 338.78V336.128H333.85V334.688H334.846V333.116H336.718V334.688H338.326V336.128H336.718V338.756C336.718 339.028 336.786 339.24 336.922 339.392C337.066 339.536 337.266 339.608 337.522 339.608C337.818 339.608 338.07 339.528 338.278 339.368L338.782 340.688ZM345.958 337.796C345.958 337.82 345.946 337.988 345.922 338.3H341.038C341.126 338.7 341.334 339.016 341.662 339.248C341.99 339.48 342.398 339.596 342.886 339.596C343.222 339.596 343.518 339.548 343.774 339.452C344.038 339.348 344.282 339.188 344.506 338.972L345.502 340.052C344.894 340.748 344.006 341.096 342.838 341.096C342.11 341.096 341.466 340.956 340.906 340.676C340.346 340.388 339.914 339.992 339.61 339.488C339.306 338.984 339.154 338.412 339.154 337.772C339.154 337.14 339.302 336.572 339.598 336.068C339.902 335.556 340.314 335.16 340.834 334.88C341.362 334.592 341.95 334.448 342.598 334.448C343.23 334.448 343.802 334.584 344.314 334.856C344.826 335.128 345.226 335.52 345.514 336.032C345.81 336.536 345.958 337.124 345.958 337.796ZM342.61 335.864C342.186 335.864 341.83 335.984 341.542 336.224C341.254 336.464 341.078 336.792 341.014 337.208H344.194C344.13 336.8 343.954 336.476 343.666 336.236C343.378 335.988 343.026 335.864 342.61 335.864ZM349.376 341.096C348.84 341.096 348.316 341.032 347.804 340.904C347.292 340.768 346.884 340.6 346.58 340.4L347.204 339.056C347.492 339.24 347.84 339.392 348.248 339.512C348.656 339.624 349.056 339.68 349.448 339.68C350.24 339.68 350.636 339.484 350.636 339.092C350.636 338.908 350.528 338.776 350.312 338.696C350.096 338.616 349.764 338.548 349.316 338.492C348.788 338.412 348.352 338.32 348.008 338.216C347.664 338.112 347.364 337.928 347.108 337.664C346.86 337.4 346.736 337.024 346.736 336.536C346.736 336.128 346.852 335.768 347.084 335.456C347.324 335.136 347.668 334.888 348.116 334.712C348.572 334.536 349.108 334.448 349.724 334.448C350.18 334.448 350.632 334.5 351.08 334.604C351.536 334.7 351.912 334.836 352.208 335.012L351.584 336.344C351.016 336.024 350.396 335.864 349.724 335.864C349.324 335.864 349.024 335.92 348.824 336.032C348.624 336.144 348.524 336.288 348.524 336.464C348.524 336.664 348.632 336.804 348.848 336.884C349.064 336.964 349.408 337.04 349.88 337.112C350.408 337.2 350.84 337.296 351.176 337.4C351.512 337.496 351.804 337.676 352.052 337.94C352.3 338.204 352.424 338.572 352.424 339.044C352.424 339.444 352.304 339.8 352.064 340.112C351.824 340.424 351.472 340.668 351.008 340.844C350.552 341.012 350.008 341.096 349.376 341.096ZM361.129 341.144C360.273 341.144 359.497 340.96 358.801 340.592C358.113 340.216 357.569 339.7 357.169 339.044C356.777 338.38 356.581 337.632 356.581 336.8C356.581 335.968 356.777 335.224 357.169 334.568C357.569 333.904 358.113 333.388 358.801 333.02C359.497 332.644 360.277 332.456 361.141 332.456C361.869 332.456 362.525 332.584 363.109 332.84C363.701 333.096 364.197 333.464 364.597 333.944L363.349 335.096C362.781 334.44 362.077 334.112 361.237 334.112C360.717 334.112 360.253 334.228 359.845 334.46C359.437 334.684 359.117 335 358.885 335.408C358.661 335.816 358.549 336.28 358.549 336.8C358.549 337.32 358.661 337.784 358.885 338.192C359.117 338.6 359.437 338.92 359.845 339.152C360.253 339.376 360.717 339.488 361.237 339.488C362.077 339.488 362.781 339.156 363.349 338.492L364.597 339.644C364.197 340.132 363.701 340.504 363.109 340.76C362.517 341.016 361.857 341.144 361.129 341.144ZM365.778 332.096H367.65V341H365.778V332.096ZM369.387 334.544H371.259V341H369.387V334.544ZM370.323 333.644C369.979 333.644 369.699 333.544 369.483 333.344C369.267 333.144 369.159 332.896 369.159 332.6C369.159 332.304 369.267 332.056 369.483 331.856C369.699 331.656 369.979 331.556 370.323 331.556C370.667 331.556 370.947 331.652 371.163 331.844C371.379 332.036 371.487 332.276 371.487 332.564C371.487 332.876 371.379 333.136 371.163 333.344C370.947 333.544 370.667 333.644 370.323 333.644ZM376.117 341.096C375.429 341.096 374.809 340.956 374.257 340.676C373.713 340.388 373.285 339.992 372.973 339.488C372.669 338.984 372.517 338.412 372.517 337.772C372.517 337.132 372.669 336.56 372.973 336.056C373.285 335.552 373.713 335.16 374.257 334.88C374.809 334.592 375.429 334.448 376.117 334.448C376.797 334.448 377.389 334.592 377.893 334.88C378.405 335.16 378.777 335.564 379.009 336.092L377.557 336.872C377.221 336.28 376.737 335.984 376.105 335.984C375.617 335.984 375.213 336.144 374.893 336.464C374.573 336.784 374.413 337.22 374.413 337.772C374.413 338.324 374.573 338.76 374.893 339.08C375.213 339.4 375.617 339.56 376.105 339.56C376.745 339.56 377.229 339.264 377.557 338.672L379.009 339.464C378.777 339.976 378.405 340.376 377.893 340.664C377.389 340.952 376.797 341.096 376.117 341.096ZM382.812 338.468L381.912 339.356V341H380.04V332.096H381.912V337.136L384.648 334.544H386.88L384.192 337.28L387.12 341H384.852L382.812 338.468ZM399.196 332.6V341H397.252V337.556H393.436V341H391.492V332.6H393.436V335.912H397.252V332.6H399.196ZM407.376 337.796C407.376 337.82 407.364 337.988 407.34 338.3H402.456C402.544 338.7 402.752 339.016 403.08 339.248C403.408 339.48 403.816 339.596 404.304 339.596C404.64 339.596 404.936 339.548 405.192 339.452C405.456 339.348 405.7 339.188 405.924 338.972L406.92 340.052C406.312 340.748 405.424 341.096 404.256 341.096C403.528 341.096 402.884 340.956 402.324 340.676C401.764 340.388 401.332 339.992 401.028 339.488C400.724 338.984 400.572 338.412 400.572 337.772C400.572 337.14 400.72 336.572 401.016 336.068C401.32 335.556 401.732 335.16 402.252 334.88C402.78 334.592 403.368 334.448 404.016 334.448C404.648 334.448 405.22 334.584 405.732 334.856C406.244 335.128 406.644 335.52 406.932 336.032C407.228 336.536 407.376 337.124 407.376 337.796ZM404.028 335.864C403.604 335.864 403.248 335.984 402.96 336.224C402.672 336.464 402.496 336.792 402.432 337.208H405.612C405.548 336.8 405.372 336.476 405.084 336.236C404.796 335.988 404.444 335.864 404.028 335.864ZM410.41 335.396C410.634 335.084 410.934 334.848 411.31 334.688C411.694 334.528 412.134 334.448 412.63 334.448V336.176C412.422 336.16 412.282 336.152 412.21 336.152C411.674 336.152 411.254 336.304 410.95 336.608C410.646 336.904 410.494 337.352 410.494 337.952V341H408.622V334.544H410.41V335.396ZM420.008 337.796C420.008 337.82 419.996 337.988 419.972 338.3H415.088C415.176 338.7 415.384 339.016 415.712 339.248C416.04 339.48 416.448 339.596 416.936 339.596C417.272 339.596 417.568 339.548 417.824 339.452C418.088 339.348 418.332 339.188 418.556 338.972L419.552 340.052C418.944 340.748 418.056 341.096 416.888 341.096C416.16 341.096 415.516 340.956 414.956 340.676C414.396 340.388 413.964 339.992 413.66 339.488C413.356 338.984 413.204 338.412 413.204 337.772C413.204 337.14 413.352 336.572 413.648 336.068C413.952 335.556 414.364 335.16 414.884 334.88C415.412 334.592 416 334.448 416.648 334.448C417.28 334.448 417.852 334.584 418.364 334.856C418.876 335.128 419.276 335.52 419.564 336.032C419.86 336.536 420.008 337.124 420.008 337.796ZM416.66 335.864C416.236 335.864 415.88 335.984 415.592 336.224C415.304 336.464 415.128 336.792 415.064 337.208H418.244C418.18 336.8 418.004 336.476 417.716 336.236C417.428 335.988 417.076 335.864 416.66 335.864ZM421.015 332.6H423.247L422.875 338.084H421.387L421.015 332.6ZM422.131 341.096C421.803 341.096 421.527 340.992 421.303 340.784C421.087 340.568 420.979 340.308 420.979 340.004C420.979 339.7 421.087 339.448 421.303 339.248C421.519 339.04 421.795 338.936 422.131 338.936C422.467 338.936 422.743 339.04 422.959 339.248C423.175 339.448 423.283 339.7 423.283 340.004C423.283 340.308 423.171 340.568 422.947 340.784C422.731 340.992 422.459 341.096 422.131 341.096Z" fill="white"/>
<path d="M193.016 171.504H188.088V168.6H201.508V171.504H196.58V184H193.016V171.504ZM212.794 180.7H205.644L204.28 184H200.628L207.492 168.6H211.012L217.898 184H214.158L212.794 180.7ZM211.672 177.994L209.23 172.098L206.788 177.994H211.672ZM219.496 168.6H223.06V181.096H230.782V184H219.496V168.6ZM238.383 177.95L236.315 180.106V184H232.773V168.6H236.315V175.794L243.135 168.6H247.095L240.715 175.464L247.469 184H243.311L238.383 177.95ZM265.431 180.7H258.281L256.917 184H253.265L260.129 168.6H263.649L270.535 184H266.795L265.431 180.7ZM264.309 177.994L261.867 172.098L259.425 177.994H264.309ZM301.639 168.6L296.601 184H292.773L289.385 173.572L285.887 184H282.081L277.021 168.6H280.717L284.193 179.424L287.823 168.6H291.123L294.643 179.512L298.229 168.6H301.639ZM317.753 168.6V184H314.189V177.686H307.193V184H303.629V168.6H307.193V174.672H314.189V168.6H317.753ZM328.854 184.264C327.256 184.264 325.811 183.919 324.52 183.23C323.244 182.541 322.24 181.595 321.506 180.392C320.788 179.175 320.428 177.811 320.428 176.3C320.428 174.789 320.788 173.433 321.506 172.23C322.24 171.013 323.244 170.059 324.52 169.37C325.811 168.681 327.256 168.336 328.854 168.336C330.453 168.336 331.89 168.681 333.166 169.37C334.442 170.059 335.447 171.013 336.18 172.23C336.914 173.433 337.28 174.789 337.28 176.3C337.28 177.811 336.914 179.175 336.18 180.392C335.447 181.595 334.442 182.541 333.166 183.23C331.89 183.919 330.453 184.264 328.854 184.264ZM328.854 181.228C329.764 181.228 330.585 181.023 331.318 180.612C332.052 180.187 332.624 179.6 333.034 178.852C333.46 178.104 333.672 177.253 333.672 176.3C333.672 175.347 333.46 174.496 333.034 173.748C332.624 173 332.052 172.421 331.318 172.01C330.585 171.585 329.764 171.372 328.854 171.372C327.945 171.372 327.124 171.585 326.39 172.01C325.657 172.421 325.078 173 324.652 173.748C324.242 174.496 324.036 175.347 324.036 176.3C324.036 177.253 324.242 178.104 324.652 178.852C325.078 179.6 325.657 180.187 326.39 180.612C327.124 181.023 327.945 181.228 328.854 181.228ZM339.959 168.6H343.523V181.096H351.245V184H339.959V168.6ZM365.16 181.14V184H353.236V168.6H364.874V171.46H356.778V174.804H363.928V177.576H356.778V181.14H365.16ZM374.226 168.6H377.79V181.096H385.512V184H374.226V168.6ZM394.704 184.264C393.105 184.264 391.661 183.919 390.37 183.23C389.094 182.541 388.089 181.595 387.356 180.392C386.637 179.175 386.278 177.811 386.278 176.3C386.278 174.789 386.637 173.433 387.356 172.23C388.089 171.013 389.094 170.059 390.37 169.37C391.661 168.681 393.105 168.336 394.704 168.336C396.303 168.336 397.74 168.681 399.016 169.37C400.292 170.059 401.297 171.013 402.03 172.23C402.763 173.433 403.13 174.789 403.13 176.3C403.13 177.811 402.763 179.175 402.03 180.392C401.297 181.595 400.292 182.541 399.016 183.23C397.74 183.919 396.303 184.264 394.704 184.264ZM394.704 181.228C395.613 181.228 396.435 181.023 397.168 180.612C397.901 180.187 398.473 179.6 398.884 178.852C399.309 178.104 399.522 177.253 399.522 176.3C399.522 175.347 399.309 174.496 398.884 173.748C398.473 173 397.901 172.421 397.168 172.01C396.435 171.585 395.613 171.372 394.704 171.372C393.795 171.372 392.973 171.585 392.24 172.01C391.507 172.421 390.927 173 390.502 173.748C390.091 174.496 389.886 175.347 389.886 176.3C389.886 177.253 390.091 178.104 390.502 178.852C390.927 179.6 391.507 180.187 392.24 180.612C392.973 181.023 393.795 181.228 394.704 181.228ZM408.784 171.504H403.856V168.6H417.276V171.504H412.348V184H408.784V171.504ZM439.438 184L439.416 174.76L434.884 182.372H433.278L428.768 174.958V184H425.424V168.6H428.372L434.136 178.17L439.812 168.6H442.738L442.782 184H439.438ZM453.893 184.264C452.295 184.264 450.85 183.919 449.559 183.23C448.283 182.541 447.279 181.595 446.545 180.392C445.827 179.175 445.467 177.811 445.467 176.3C445.467 174.789 445.827 173.433 446.545 172.23C447.279 171.013 448.283 170.059 449.559 169.37C450.85 168.681 452.295 168.336 453.893 168.336C455.492 168.336 456.929 168.681 458.205 169.37C459.481 170.059 460.486 171.013 461.219 172.23C461.953 173.433 462.319 174.789 462.319 176.3C462.319 177.811 461.953 179.175 461.219 180.392C460.486 181.595 459.481 182.541 458.205 183.23C456.929 183.919 455.492 184.264 453.893 184.264ZM453.893 181.228C454.803 181.228 455.624 181.023 456.357 180.612C457.091 180.187 457.663 179.6 458.073 178.852C458.499 178.104 458.711 177.253 458.711 176.3C458.711 175.347 458.499 174.496 458.073 173.748C457.663 173 457.091 172.421 456.357 172.01C455.624 171.585 454.803 171.372 453.893 171.372C452.984 171.372 452.163 171.585 451.429 172.01C450.696 172.421 450.117 173 449.691 173.748C449.281 174.496 449.075 175.347 449.075 176.3C449.075 177.253 449.281 178.104 449.691 178.852C450.117 179.6 450.696 180.187 451.429 180.612C452.163 181.023 452.984 181.228 453.893 181.228ZM474.81 184L471.84 179.71H471.664H468.562V184H464.998V168.6H471.664C473.028 168.6 474.209 168.827 475.206 169.282C476.218 169.737 476.995 170.382 477.538 171.218C478.081 172.054 478.352 173.044 478.352 174.188C478.352 175.332 478.073 176.322 477.516 177.158C476.973 177.979 476.196 178.61 475.184 179.05L478.638 184H474.81ZM474.744 174.188C474.744 173.323 474.465 172.663 473.908 172.208C473.351 171.739 472.537 171.504 471.466 171.504H468.562V176.872H471.466C472.537 176.872 473.351 176.637 473.908 176.168C474.465 175.699 474.744 175.039 474.744 174.188ZM493.1 181.14V184H481.176V168.6H492.814V171.46H484.718V174.804H491.868V177.576H484.718V181.14H493.1Z" fill="#723288"/>
<path d="M194.886 211.264C193.669 211.264 192.488 211.103 191.344 210.78C190.215 210.443 189.305 210.01 188.616 209.482L189.826 206.798C190.486 207.282 191.271 207.671 192.18 207.964C193.089 208.257 193.999 208.404 194.908 208.404C195.92 208.404 196.668 208.257 197.152 207.964C197.636 207.656 197.878 207.253 197.878 206.754C197.878 206.387 197.731 206.087 197.438 205.852C197.159 205.603 196.793 205.405 196.338 205.258C195.898 205.111 195.297 204.95 194.534 204.774C193.361 204.495 192.4 204.217 191.652 203.938C190.904 203.659 190.259 203.212 189.716 202.596C189.188 201.98 188.924 201.159 188.924 200.132C188.924 199.237 189.166 198.431 189.65 197.712C190.134 196.979 190.86 196.399 191.828 195.974C192.811 195.549 194.006 195.336 195.414 195.336C196.397 195.336 197.357 195.453 198.296 195.688C199.235 195.923 200.056 196.26 200.76 196.7L199.66 199.406C198.237 198.599 196.815 198.196 195.392 198.196C194.395 198.196 193.654 198.357 193.17 198.68C192.701 199.003 192.466 199.428 192.466 199.956C192.466 200.484 192.737 200.88 193.28 201.144C193.837 201.393 194.681 201.643 195.81 201.892C196.983 202.171 197.944 202.449 198.692 202.728C199.44 203.007 200.078 203.447 200.606 204.048C201.149 204.649 201.42 205.463 201.42 206.49C201.42 207.37 201.171 208.177 200.672 208.91C200.188 209.629 199.455 210.201 198.472 210.626C197.489 211.051 196.294 211.264 194.886 211.264ZM210.521 195.6C211.885 195.6 213.066 195.827 214.063 196.282C215.075 196.737 215.853 197.382 216.395 198.218C216.938 199.054 217.209 200.044 217.209 201.188C217.209 202.317 216.938 203.307 216.395 204.158C215.853 204.994 215.075 205.639 214.063 206.094C213.066 206.534 211.885 206.754 210.521 206.754H207.419V211H203.855V195.6H210.521ZM210.323 203.85C211.394 203.85 212.208 203.623 212.765 203.168C213.323 202.699 213.601 202.039 213.601 201.188C213.601 200.323 213.323 199.663 212.765 199.208C212.208 198.739 211.394 198.504 210.323 198.504H207.419V203.85H210.323ZM231.678 208.14V211H219.754V195.6H231.392V198.46H223.296V201.804H230.446V204.576H223.296V208.14H231.678ZM248.638 195.6V211H245.712L238.034 201.65V211H234.514V195.6H237.462L245.117 204.95V195.6H248.638ZM252.281 195.6H259.277C260.949 195.6 262.423 195.923 263.699 196.568C264.99 197.199 265.987 198.093 266.691 199.252C267.41 200.411 267.769 201.76 267.769 203.3C267.769 204.84 267.41 206.189 266.691 207.348C265.987 208.507 264.99 209.409 263.699 210.054C262.423 210.685 260.949 211 259.277 211H252.281V195.6ZM259.101 208.074C260.641 208.074 261.866 207.649 262.775 206.798C263.699 205.933 264.161 204.767 264.161 203.3C264.161 201.833 263.699 200.675 262.775 199.824C261.866 198.959 260.641 198.526 259.101 198.526H255.845V208.074H259.101ZM286.829 207.7H279.679L278.315 211H274.663L281.527 195.6H285.047L291.933 211H288.193L286.829 207.7ZM285.707 204.994L283.265 199.098L280.823 204.994H285.707ZM323.038 195.6L318 211H314.172L310.784 200.572L307.286 211H303.48L298.42 195.6H302.116L305.592 206.424L309.222 195.6H312.522L316.042 206.512L319.628 195.6H323.038ZM339.151 195.6V211H335.587V204.686H328.591V211H325.027V195.6H328.591V201.672H335.587V195.6H339.151ZM350.253 211.264C348.654 211.264 347.209 210.919 345.919 210.23C344.643 209.541 343.638 208.595 342.905 207.392C342.186 206.175 341.827 204.811 341.827 203.3C341.827 201.789 342.186 200.433 342.905 199.23C343.638 198.013 344.643 197.059 345.919 196.37C347.209 195.681 348.654 195.336 350.253 195.336C351.851 195.336 353.289 195.681 354.565 196.37C355.841 197.059 356.845 198.013 357.579 199.23C358.312 200.433 358.679 201.789 358.679 203.3C358.679 204.811 358.312 206.175 357.579 207.392C356.845 208.595 355.841 209.541 354.565 210.23C353.289 210.919 351.851 211.264 350.253 211.264ZM350.253 208.228C351.162 208.228 351.983 208.023 352.717 207.612C353.45 207.187 354.022 206.6 354.433 205.852C354.858 205.104 355.071 204.253 355.071 203.3C355.071 202.347 354.858 201.496 354.433 200.748C354.022 200 353.45 199.421 352.717 199.01C351.983 198.585 351.162 198.372 350.253 198.372C349.343 198.372 348.522 198.585 347.789 199.01C347.055 199.421 346.476 200 346.051 200.748C345.64 201.496 345.435 202.347 345.435 203.3C345.435 204.253 345.64 205.104 346.051 205.852C346.476 206.6 347.055 207.187 347.789 207.612C348.522 208.023 349.343 208.228 350.253 208.228ZM361.357 195.6H364.921V208.096H372.643V211H361.357V195.6ZM386.559 208.14V211H374.635V195.6H386.273V198.46H378.177V201.804H385.327V204.576H378.177V208.14H386.559ZM395.625 195.6H399.189V208.096H406.911V211H395.625V195.6ZM416.102 211.264C414.504 211.264 413.059 210.919 411.768 210.23C410.492 209.541 409.488 208.595 408.754 207.392C408.036 206.175 407.676 204.811 407.676 203.3C407.676 201.789 408.036 200.433 408.754 199.23C409.488 198.013 410.492 197.059 411.768 196.37C413.059 195.681 414.504 195.336 416.102 195.336C417.701 195.336 419.138 195.681 420.414 196.37C421.69 197.059 422.695 198.013 423.428 199.23C424.162 200.433 424.528 201.789 424.528 203.3C424.528 204.811 424.162 206.175 423.428 207.392C422.695 208.595 421.69 209.541 420.414 210.23C419.138 210.919 417.701 211.264 416.102 211.264ZM416.102 208.228C417.012 208.228 417.833 208.023 418.566 207.612C419.3 207.187 419.872 206.6 420.282 205.852C420.708 205.104 420.92 204.253 420.92 203.3C420.92 202.347 420.708 201.496 420.282 200.748C419.872 200 419.3 199.421 418.566 199.01C417.833 198.585 417.012 198.372 416.102 198.372C415.193 198.372 414.372 198.585 413.638 199.01C412.905 199.421 412.326 200 411.9 200.748C411.49 201.496 411.284 202.347 411.284 203.3C411.284 204.253 411.49 205.104 411.9 205.852C412.326 206.6 412.905 207.187 413.638 207.612C414.372 208.023 415.193 208.228 416.102 208.228ZM430.182 198.504H425.254V195.6H438.674V198.504H433.746V211H430.182V198.504ZM446.822 195.6H450.386V208.096H458.108V211H446.822V195.6ZM472.023 208.14V211H460.099V195.6H471.737V198.46H463.641V201.804H470.791V204.576H463.641V208.14H472.023ZM479.919 211.264C478.702 211.264 477.521 211.103 476.377 210.78C475.248 210.443 474.339 210.01 473.649 209.482L474.859 206.798C475.519 207.282 476.304 207.671 477.213 207.964C478.123 208.257 479.032 208.404 479.941 208.404C480.953 208.404 481.701 208.257 482.185 207.964C482.669 207.656 482.911 207.253 482.911 206.754C482.911 206.387 482.765 206.087 482.471 205.852C482.193 205.603 481.826 205.405 481.371 205.258C480.931 205.111 480.33 204.95 479.567 204.774C478.394 204.495 477.433 204.217 476.685 203.938C475.937 203.659 475.292 203.212 474.749 202.596C474.221 201.98 473.957 201.159 473.957 200.132C473.957 199.237 474.199 198.431 474.683 197.712C475.167 196.979 475.893 196.399 476.861 195.974C477.844 195.549 479.039 195.336 480.447 195.336C481.43 195.336 482.391 195.453 483.329 195.688C484.268 195.923 485.089 196.26 485.793 196.7L484.693 199.406C483.271 198.599 481.848 198.196 480.425 198.196C479.428 198.196 478.687 198.357 478.203 198.68C477.734 199.003 477.499 199.428 477.499 199.956C477.499 200.484 477.771 200.88 478.313 201.144C478.871 201.393 479.714 201.643 480.843 201.892C482.017 202.171 482.977 202.449 483.725 202.728C484.473 203.007 485.111 203.447 485.639 204.048C486.182 204.649 486.453 205.463 486.453 206.49C486.453 207.37 486.204 208.177 485.705 208.91C485.221 209.629 484.488 210.201 483.505 210.626C482.523 211.051 481.327 211.264 479.919 211.264ZM493.949 211.264C492.731 211.264 491.551 211.103 490.407 210.78C489.277 210.443 488.368 210.01 487.679 209.482L488.889 206.798C489.549 207.282 490.333 207.671 491.243 207.964C492.152 208.257 493.061 208.404 493.971 208.404C494.983 208.404 495.731 208.257 496.215 207.964C496.699 207.656 496.941 207.253 496.941 206.754C496.941 206.387 496.794 206.087 496.501 205.852C496.222 205.603 495.855 205.405 495.401 205.258C494.961 205.111 494.359 204.95 493.597 204.774C492.423 204.495 491.463 204.217 490.715 203.938C489.967 203.659 489.321 203.212 488.779 202.596C488.251 201.98 487.987 201.159 487.987 200.132C487.987 199.237 488.229 198.431 488.713 197.712C489.197 196.979 489.923 196.399 490.891 195.974C491.873 195.549 493.069 195.336 494.477 195.336C495.459 195.336 496.42 195.453 497.359 195.688C498.297 195.923 499.119 196.26 499.823 196.7L498.723 199.406C497.3 198.599 495.877 198.196 494.455 198.196C493.457 198.196 492.717 198.357 492.233 198.68C491.763 199.003 491.529 199.428 491.529 199.956C491.529 200.484 491.8 200.88 492.343 201.144C492.9 201.393 493.743 201.643 494.873 201.892C496.046 202.171 497.007 202.449 497.755 202.728C498.503 203.007 499.141 203.447 499.669 204.048C500.211 204.649 500.483 205.463 500.483 206.49C500.483 207.37 500.233 208.177 499.735 208.91C499.251 209.629 498.517 210.201 497.535 210.626C496.552 211.051 495.357 211.264 493.949 211.264Z" fill="#723288"/>
<path d="M292.968 149.168C292.305 149.168 291.694 149.047 291.134 148.804C290.583 148.552 290.131 148.197 289.776 147.74L291.036 146.228C291.568 146.947 292.175 147.306 292.856 147.306C293.78 147.306 294.242 146.765 294.242 145.682V141.02H290.798V139.2H296.496V145.556C296.496 146.76 296.197 147.665 295.6 148.272C295.003 148.869 294.125 149.168 292.968 149.168ZM306.17 141.468V149H304.098V148.104C303.809 148.431 303.464 148.683 303.062 148.86C302.661 149.028 302.227 149.112 301.76 149.112C300.771 149.112 299.987 148.827 299.408 148.258C298.83 147.689 298.54 146.844 298.54 145.724V141.468H300.724V145.402C300.724 146.615 301.233 147.222 302.25 147.222C302.773 147.222 303.193 147.054 303.51 146.718C303.828 146.373 303.986 145.864 303.986 145.192V141.468H306.17ZM310.728 149.112C310.102 149.112 309.491 149.037 308.894 148.888C308.296 148.729 307.82 148.533 307.466 148.3L308.194 146.732C308.53 146.947 308.936 147.124 309.412 147.264C309.888 147.395 310.354 147.46 310.812 147.46C311.736 147.46 312.198 147.231 312.198 146.774C312.198 146.559 312.072 146.405 311.82 146.312C311.568 146.219 311.18 146.139 310.658 146.074C310.042 145.981 309.533 145.873 309.132 145.752C308.73 145.631 308.38 145.416 308.082 145.108C307.792 144.8 307.648 144.361 307.648 143.792C307.648 143.316 307.783 142.896 308.054 142.532C308.334 142.159 308.735 141.869 309.258 141.664C309.79 141.459 310.415 141.356 311.134 141.356C311.666 141.356 312.193 141.417 312.716 141.538C313.248 141.65 313.686 141.809 314.032 142.014L313.304 143.568C312.641 143.195 311.918 143.008 311.134 143.008C310.667 143.008 310.317 143.073 310.084 143.204C309.85 143.335 309.734 143.503 309.734 143.708C309.734 143.941 309.86 144.105 310.112 144.198C310.364 144.291 310.765 144.38 311.316 144.464C311.932 144.567 312.436 144.679 312.828 144.8C313.22 144.912 313.56 145.122 313.85 145.43C314.139 145.738 314.284 146.167 314.284 146.718C314.284 147.185 314.144 147.6 313.864 147.964C313.584 148.328 313.173 148.613 312.632 148.818C312.1 149.014 311.465 149.112 310.728 149.112ZM320.489 148.636C320.274 148.795 320.008 148.916 319.691 149C319.383 149.075 319.056 149.112 318.711 149.112C317.815 149.112 317.12 148.883 316.625 148.426C316.14 147.969 315.897 147.297 315.897 146.41V143.316H314.735V141.636H315.897V139.802H318.081V141.636H319.957V143.316H318.081V146.382C318.081 146.699 318.16 146.947 318.319 147.124C318.487 147.292 318.72 147.376 319.019 147.376C319.364 147.376 319.658 147.283 319.901 147.096L320.489 148.636ZM328.074 141.636H330.006V143.316H328.13V149H325.946V143.316H324.784V141.636H325.946V141.3C325.946 140.441 326.198 139.76 326.702 139.256C327.215 138.752 327.934 138.5 328.858 138.5C329.185 138.5 329.493 138.537 329.782 138.612C330.081 138.677 330.328 138.775 330.524 138.906L329.95 140.488C329.698 140.311 329.404 140.222 329.068 140.222C328.405 140.222 328.074 140.586 328.074 141.314V141.636ZM334.582 149.112C333.789 149.112 333.075 148.949 332.44 148.622C331.815 148.286 331.325 147.824 330.97 147.236C330.616 146.648 330.438 145.981 330.438 145.234C330.438 144.487 330.616 143.82 330.97 143.232C331.325 142.644 331.815 142.187 332.44 141.86C333.075 141.524 333.789 141.356 334.582 141.356C335.376 141.356 336.085 141.524 336.71 141.86C337.336 142.187 337.826 142.644 338.18 143.232C338.535 143.82 338.712 144.487 338.712 145.234C338.712 145.981 338.535 146.648 338.18 147.236C337.826 147.824 337.336 148.286 336.71 148.622C336.085 148.949 335.376 149.112 334.582 149.112ZM334.582 147.32C335.142 147.32 335.6 147.133 335.954 146.76C336.318 146.377 336.5 145.869 336.5 145.234C336.5 144.599 336.318 144.095 335.954 143.722C335.6 143.339 335.142 143.148 334.582 143.148C334.022 143.148 333.56 143.339 333.196 143.722C332.832 144.095 332.65 144.599 332.65 145.234C332.65 145.869 332.832 146.377 333.196 146.76C333.56 147.133 334.022 147.32 334.582 147.32ZM342.258 142.462C342.519 142.098 342.869 141.823 343.308 141.636C343.756 141.449 344.269 141.356 344.848 141.356V143.372C344.605 143.353 344.442 143.344 344.358 143.344C343.733 143.344 343.243 143.521 342.888 143.876C342.533 144.221 342.356 144.744 342.356 145.444V149H340.172V141.468H342.258V142.462ZM357.642 141.468L354.24 149.462C353.895 150.33 353.466 150.941 352.952 151.296C352.448 151.651 351.837 151.828 351.118 151.828C350.726 151.828 350.339 151.767 349.956 151.646C349.574 151.525 349.261 151.357 349.018 151.142L349.816 149.588C349.984 149.737 350.176 149.854 350.39 149.938C350.614 150.022 350.834 150.064 351.048 150.064C351.347 150.064 351.59 149.989 351.776 149.84C351.963 149.7 352.131 149.462 352.28 149.126L352.308 149.056L349.046 141.468H351.3L353.414 146.578L355.542 141.468H357.642ZM361.912 149.112C361.119 149.112 360.405 148.949 359.77 148.622C359.145 148.286 358.655 147.824 358.3 147.236C357.946 146.648 357.768 145.981 357.768 145.234C357.768 144.487 357.946 143.82 358.3 143.232C358.655 142.644 359.145 142.187 359.77 141.86C360.405 141.524 361.119 141.356 361.912 141.356C362.706 141.356 363.415 141.524 364.04 141.86C364.666 142.187 365.156 142.644 365.51 143.232C365.865 143.82 366.042 144.487 366.042 145.234C366.042 145.981 365.865 146.648 365.51 147.236C365.156 147.824 364.666 148.286 364.04 148.622C363.415 148.949 362.706 149.112 361.912 149.112ZM361.912 147.32C362.472 147.32 362.93 147.133 363.284 146.76C363.648 146.377 363.83 145.869 363.83 145.234C363.83 144.599 363.648 144.095 363.284 143.722C362.93 143.339 362.472 143.148 361.912 143.148C361.352 143.148 360.89 143.339 360.526 143.722C360.162 144.095 359.98 144.599 359.98 145.234C359.98 145.869 360.162 146.377 360.526 146.76C360.89 147.133 361.352 147.32 361.912 147.32ZM375.09 141.468V149H373.018V148.104C372.729 148.431 372.383 148.683 371.982 148.86C371.581 149.028 371.147 149.112 370.68 149.112C369.691 149.112 368.907 148.827 368.328 148.258C367.749 147.689 367.46 146.844 367.46 145.724V141.468H369.644V145.402C369.644 146.615 370.153 147.222 371.17 147.222C371.693 147.222 372.113 147.054 372.43 146.718C372.747 146.373 372.906 145.864 372.906 145.192V141.468H375.09ZM376.833 139.2H379.437L379.003 145.598H377.267L376.833 139.2ZM378.135 149.112C377.753 149.112 377.431 148.991 377.169 148.748C376.917 148.496 376.791 148.193 376.791 147.838C376.791 147.483 376.917 147.189 377.169 146.956C377.421 146.713 377.743 146.592 378.135 146.592C378.527 146.592 378.849 146.713 379.101 146.956C379.353 147.189 379.479 147.483 379.479 147.838C379.479 148.193 379.349 148.496 379.087 148.748C378.835 148.991 378.518 149.112 378.135 149.112Z" fill="#E861A7"/>
<path d="M300.016 237.584L298.336 246H297.248L297.52 244.656C296.731 245.605 295.648 246.08 294.272 246.08C293.333 246.08 292.597 245.84 292.064 245.36C291.541 244.869 291.28 244.192 291.28 243.328C291.28 243.029 291.312 242.715 291.376 242.384L292.336 237.584H293.472L292.512 242.384C292.459 242.683 292.432 242.933 292.432 243.136C292.432 243.755 292.608 244.229 292.96 244.56C293.323 244.891 293.861 245.056 294.576 245.056C295.472 245.056 296.213 244.805 296.8 244.304C297.387 243.803 297.781 243.072 297.984 242.112L298.88 237.584H300.016ZM307.294 237.52C308.243 237.52 308.979 237.765 309.502 238.256C310.035 238.736 310.302 239.403 310.302 240.256C310.302 240.555 310.27 240.875 310.206 241.216L309.246 246H308.11L309.07 241.2C309.123 240.901 309.15 240.645 309.15 240.432C309.15 239.824 308.963 239.36 308.59 239.04C308.227 238.709 307.688 238.544 306.974 238.544C306.067 238.544 305.32 238.795 304.734 239.296C304.147 239.787 303.752 240.517 303.55 241.488L302.654 246H301.518L303.182 237.584H304.27L303.998 238.928C304.798 237.989 305.896 237.52 307.294 237.52ZM314.714 234.128H315.85L313.482 246H312.346L314.714 234.128ZM318.307 237.584H319.443L317.779 246H316.643L318.307 237.584ZM319.363 235.744C319.139 235.744 318.952 235.669 318.803 235.52C318.664 235.371 318.595 235.195 318.595 234.992C318.595 234.747 318.675 234.544 318.835 234.384C319.005 234.213 319.219 234.128 319.475 234.128C319.699 234.128 319.885 234.203 320.035 234.352C320.184 234.491 320.259 234.656 320.259 234.848C320.259 235.104 320.173 235.317 320.003 235.488C319.832 235.659 319.619 235.744 319.363 235.744ZM332.908 237.52C333.857 237.52 334.588 237.76 335.1 238.24C335.622 238.709 335.884 239.371 335.884 240.224C335.884 240.469 335.846 240.8 335.772 241.216L334.812 246H333.676L334.636 241.2C334.689 240.955 334.716 240.693 334.716 240.416C334.716 239.819 334.54 239.36 334.188 239.04C333.836 238.709 333.318 238.544 332.636 238.544C331.782 238.544 331.073 238.784 330.508 239.264C329.942 239.733 329.564 240.432 329.372 241.36L328.444 246H327.308L328.267 241.2C328.321 240.901 328.348 240.645 328.348 240.432C328.348 239.824 328.172 239.36 327.82 239.04C327.478 238.709 326.961 238.544 326.268 238.544C325.404 238.544 324.689 238.795 324.124 239.296C323.558 239.787 323.174 240.517 322.972 241.488L322.076 246H320.94L322.604 237.584H323.692L323.42 238.928C324.188 237.989 325.249 237.52 326.604 237.52C327.308 237.52 327.894 237.664 328.364 237.952C328.844 238.24 329.174 238.656 329.356 239.2C329.772 238.645 330.278 238.229 330.876 237.952C331.484 237.664 332.161 237.52 332.908 237.52ZM339.572 237.584H340.708L339.044 246H337.908L339.572 237.584ZM340.628 235.744C340.404 235.744 340.218 235.669 340.068 235.52C339.93 235.371 339.86 235.195 339.86 234.992C339.86 234.747 339.94 234.544 340.1 234.384C340.271 234.213 340.484 234.128 340.74 234.128C340.964 234.128 341.151 234.203 341.3 234.352C341.45 234.491 341.524 234.656 341.524 234.848C341.524 235.104 341.439 235.317 341.268 235.488C341.098 235.659 340.884 235.744 340.628 235.744ZM344.029 243.456C343.986 243.712 343.965 243.888 343.965 243.984C343.965 244.731 344.37 245.104 345.181 245.104C345.661 245.104 346.093 244.96 346.477 244.672L346.749 245.536C346.269 245.899 345.645 246.08 344.877 246.08C344.248 246.08 343.746 245.909 343.373 245.568C343.01 245.227 342.829 244.757 342.829 244.16C342.829 243.925 342.85 243.707 342.893 243.504L343.869 238.544H342.381L342.557 237.584H344.061L344.429 235.744H345.565L345.197 237.584H347.757L347.565 238.544H345.005L344.029 243.456ZM349.464 242.112C349.454 242.187 349.448 242.299 349.448 242.448C349.448 243.301 349.688 243.952 350.168 244.4C350.659 244.848 351.384 245.072 352.344 245.072C352.899 245.072 353.416 244.981 353.896 244.8C354.387 244.608 354.787 244.347 355.096 244.016L355.608 244.832C355.214 245.227 354.718 245.536 354.12 245.76C353.534 245.973 352.91 246.08 352.248 246.08C351.032 246.08 350.072 245.76 349.368 245.12C348.675 244.48 348.328 243.605 348.328 242.496C348.328 241.557 348.526 240.709 348.92 239.952C349.326 239.195 349.88 238.603 350.584 238.176C351.299 237.739 352.099 237.52 352.984 237.52C354.104 237.52 354.995 237.84 355.656 238.48C356.318 239.109 356.648 239.979 356.648 241.088C356.648 241.397 356.611 241.739 356.536 242.112H349.464ZM352.952 238.48C352.11 238.48 351.39 238.731 350.792 239.232C350.195 239.733 349.79 240.411 349.576 241.264H355.576C355.587 241.189 355.592 241.088 355.592 240.96C355.592 240.171 355.352 239.563 354.872 239.136C354.392 238.699 353.752 238.48 352.952 238.48ZM368.113 234.128L365.745 246H364.657L364.929 244.672C364.523 245.12 364.043 245.467 363.489 245.712C362.934 245.957 362.321 246.08 361.649 246.08C360.934 246.08 360.299 245.936 359.745 245.648C359.19 245.36 358.758 244.949 358.449 244.416C358.139 243.872 357.985 243.237 357.985 242.512C357.985 241.563 358.187 240.709 358.593 239.952C359.009 239.195 359.579 238.603 360.305 238.176C361.03 237.739 361.841 237.52 362.737 237.52C363.526 237.52 364.193 237.68 364.737 238C365.291 238.309 365.691 238.757 365.937 239.344L366.977 234.128H368.113ZM361.889 245.072C362.582 245.072 363.206 244.907 363.761 244.576C364.315 244.235 364.747 243.765 365.057 243.168C365.377 242.56 365.536 241.883 365.536 241.136C365.536 240.315 365.291 239.675 364.801 239.216C364.321 238.747 363.643 238.512 362.769 238.512C362.075 238.512 361.451 238.683 360.897 239.024C360.342 239.365 359.905 239.84 359.585 240.448C359.275 241.045 359.121 241.717 359.121 242.464C359.121 243.285 359.361 243.925 359.841 244.384C360.331 244.843 361.014 245.072 361.889 245.072ZM376.904 246.08C376.114 246.08 375.426 245.936 374.84 245.648C374.253 245.349 373.8 244.933 373.48 244.4C373.17 243.856 373.016 243.227 373.016 242.512C373.016 241.563 373.224 240.709 373.64 239.952C374.056 239.195 374.637 238.603 375.384 238.176C376.13 237.739 376.973 237.52 377.912 237.52C378.69 237.52 379.357 237.664 379.912 237.952C380.477 238.229 380.914 238.645 381.224 239.2L380.264 239.76C379.784 238.928 378.968 238.512 377.816 238.512C377.122 238.512 376.493 238.683 375.928 239.024C375.373 239.365 374.936 239.835 374.616 240.432C374.306 241.029 374.152 241.707 374.152 242.464C374.152 243.285 374.392 243.925 374.872 244.384C375.362 244.843 376.056 245.072 376.952 245.072C377.496 245.072 377.997 244.971 378.456 244.768C378.925 244.555 379.309 244.251 379.608 243.856L380.424 244.48C380.05 244.981 379.549 245.376 378.92 245.664C378.301 245.941 377.629 246.08 376.904 246.08ZM391.331 237.584L389.651 246H388.563L388.835 244.672C388.429 245.12 387.949 245.467 387.395 245.712C386.84 245.957 386.227 246.08 385.555 246.08C384.84 246.08 384.205 245.936 383.651 245.648C383.096 245.36 382.664 244.949 382.355 244.416C382.045 243.872 381.891 243.237 381.891 242.512C381.891 241.563 382.093 240.709 382.499 239.952C382.915 239.195 383.485 238.603 384.211 238.176C384.936 237.739 385.747 237.52 386.643 237.52C387.443 237.52 388.115 237.68 388.659 238C389.203 238.309 389.597 238.757 389.843 239.344L390.195 237.584H391.331ZM385.795 245.072C386.488 245.072 387.112 244.907 387.667 244.576C388.221 244.235 388.653 243.765 388.963 243.168C389.283 242.56 389.443 241.883 389.443 241.136C389.443 240.315 389.197 239.675 388.707 239.216C388.227 238.747 387.549 238.512 386.675 238.512C385.981 238.512 385.357 238.683 384.803 239.024C384.248 239.365 383.811 239.84 383.491 240.448C383.181 241.045 383.027 241.717 383.027 242.464C383.027 243.285 383.267 243.925 383.747 244.384C384.237 244.843 384.92 245.072 385.795 245.072ZM395.183 234.128H396.319L393.951 246H392.815L395.183 234.128ZM399.479 234.128H400.615L398.247 246H397.111L399.479 234.128ZM403.856 246.08C403.184 246.08 402.539 245.984 401.92 245.792C401.312 245.6 400.843 245.355 400.512 245.056L401.056 244.16C401.376 244.437 401.798 244.661 402.32 244.832C402.843 245.003 403.392 245.088 403.968 245.088C404.768 245.088 405.382 244.96 405.808 244.704C406.246 244.437 406.464 244.064 406.464 243.584C406.464 243.317 406.374 243.104 406.192 242.944C406.022 242.784 405.808 242.661 405.552 242.576C405.296 242.491 404.923 242.395 404.432 242.288C403.846 242.16 403.371 242.032 403.008 241.904C402.646 241.776 402.336 241.573 402.08 241.296C401.824 241.019 401.696 240.635 401.696 240.144C401.696 239.344 402.027 238.709 402.688 238.24C403.35 237.76 404.235 237.52 405.344 237.52C405.888 237.52 406.416 237.595 406.928 237.744C407.451 237.883 407.872 238.069 408.192 238.304L407.712 239.216C407.392 238.981 407.014 238.805 406.576 238.688C406.15 238.56 405.707 238.496 405.248 238.496C404.48 238.496 403.883 238.635 403.456 238.912C403.03 239.189 402.816 239.563 402.816 240.032C402.816 240.309 402.907 240.533 403.088 240.704C403.27 240.875 403.494 241.003 403.76 241.088C404.038 241.173 404.411 241.264 404.88 241.36C405.456 241.488 405.92 241.616 406.272 241.744C406.635 241.861 406.944 242.059 407.2 242.336C407.456 242.613 407.584 242.987 407.584 243.456C407.584 244.277 407.243 244.923 406.56 245.392C405.888 245.851 404.987 246.08 403.856 246.08Z" fill="#BD5296"/>
<path d="M295.712 254.008C295.211 254.008 294.816 254.141 294.528 254.408C294.24 254.675 294.037 255.091 293.92 255.656L293.728 256.584H296.304L296.112 257.544H293.568L292.08 265H290.944L292.432 257.544H290.928L291.104 256.584H292.624L292.832 255.528C292.992 254.728 293.312 254.115 293.792 253.688C294.283 253.261 294.923 253.048 295.712 253.048C296.053 253.048 296.373 253.096 296.672 253.192C296.971 253.288 297.216 253.421 297.408 253.592L296.912 254.424C296.603 254.147 296.203 254.008 295.712 254.008ZM299.777 265.08C299.009 265.08 298.337 264.936 297.761 264.648C297.185 264.349 296.737 263.933 296.417 263.4C296.108 262.856 295.953 262.227 295.953 261.512C295.953 260.563 296.161 259.709 296.577 258.952C296.993 258.195 297.569 257.603 298.305 257.176C299.052 256.739 299.889 256.52 300.817 256.52C301.991 256.52 302.919 256.84 303.601 257.48C304.295 258.12 304.641 258.984 304.641 260.072C304.641 261.021 304.433 261.88 304.017 262.648C303.601 263.405 303.02 264.003 302.273 264.44C301.537 264.867 300.705 265.08 299.777 265.08ZM299.857 264.072C300.551 264.072 301.175 263.907 301.729 263.576C302.284 263.235 302.716 262.765 303.025 262.168C303.345 261.56 303.505 260.883 303.505 260.136C303.505 259.315 303.26 258.675 302.769 258.216C302.289 257.747 301.612 257.512 300.737 257.512C300.044 257.512 299.42 257.683 298.865 258.024C298.311 258.365 297.873 258.84 297.553 259.448C297.244 260.045 297.089 260.717 297.089 261.464C297.089 262.285 297.329 262.925 297.809 263.384C298.3 263.843 298.983 264.072 299.857 264.072ZM308.529 258.12C308.902 257.576 309.371 257.176 309.937 256.92C310.502 256.653 311.185 256.52 311.985 256.52L311.777 257.624L311.457 257.608C310.55 257.608 309.803 257.869 309.217 258.392C308.641 258.915 308.251 259.693 308.049 260.728L307.201 265H306.065L307.729 256.584H308.817L308.529 258.12ZM314.914 268.184C314.551 268.184 314.221 268.136 313.922 268.04C313.613 267.955 313.351 267.827 313.138 267.656L313.666 266.776C313.986 267.064 314.407 267.208 314.93 267.208C315.389 267.208 315.757 267.08 316.034 266.824C316.311 266.568 316.503 266.163 316.61 265.608L318.418 256.584H319.554L317.746 265.64C317.405 267.336 316.461 268.184 314.914 268.184ZM319.458 254.728C319.234 254.728 319.047 254.653 318.898 254.504C318.759 254.355 318.69 254.179 318.69 253.976C318.69 253.731 318.77 253.528 318.93 253.368C319.101 253.197 319.314 253.112 319.57 253.112C319.794 253.112 319.981 253.187 320.13 253.336C320.279 253.475 320.354 253.64 320.354 253.832C320.354 254.088 320.269 254.301 320.098 254.472C319.927 254.643 319.714 254.728 319.458 254.728ZM330.329 256.584L328.649 265H327.561L327.833 263.656C327.043 264.605 325.961 265.08 324.585 265.08C323.646 265.08 322.91 264.84 322.377 264.36C321.854 263.869 321.593 263.192 321.593 262.328C321.593 262.029 321.625 261.715 321.689 261.384L322.649 256.584H323.785L322.825 261.384C322.771 261.683 322.745 261.933 322.745 262.136C322.745 262.755 322.921 263.229 323.273 263.56C323.635 263.891 324.174 264.056 324.889 264.056C325.785 264.056 326.526 263.805 327.113 263.304C327.699 262.803 328.094 262.072 328.297 261.112L329.193 256.584H330.329ZM334.278 265.08C333.606 265.08 332.961 264.984 332.342 264.792C331.734 264.6 331.265 264.355 330.934 264.056L331.478 263.16C331.798 263.437 332.219 263.661 332.742 263.832C333.265 264.003 333.814 264.088 334.39 264.088C335.19 264.088 335.803 263.96 336.23 263.704C336.667 263.437 336.886 263.064 336.886 262.584C336.886 262.317 336.795 262.104 336.614 261.944C336.443 261.784 336.23 261.661 335.974 261.576C335.718 261.491 335.345 261.395 334.854 261.288C334.267 261.16 333.793 261.032 333.43 260.904C333.067 260.776 332.758 260.573 332.502 260.296C332.246 260.019 332.118 259.635 332.118 259.144C332.118 258.344 332.449 257.709 333.11 257.24C333.771 256.76 334.657 256.52 335.766 256.52C336.31 256.52 336.838 256.595 337.35 256.744C337.873 256.883 338.294 257.069 338.614 257.304L338.134 258.216C337.814 257.981 337.435 257.805 336.998 257.688C336.571 257.56 336.129 257.496 335.67 257.496C334.902 257.496 334.305 257.635 333.878 257.912C333.451 258.189 333.238 258.563 333.238 259.032C333.238 259.309 333.329 259.533 333.51 259.704C333.691 259.875 333.915 260.003 334.182 260.088C334.459 260.173 334.833 260.264 335.302 260.36C335.878 260.488 336.342 260.616 336.694 260.744C337.057 260.861 337.366 261.059 337.622 261.336C337.878 261.613 338.006 261.987 338.006 262.456C338.006 263.277 337.665 263.923 336.982 264.392C336.31 264.851 335.409 265.08 334.278 265.08ZM341.482 262.456C341.44 262.712 341.418 262.888 341.418 262.984C341.418 263.731 341.824 264.104 342.634 264.104C343.114 264.104 343.546 263.96 343.93 263.672L344.202 264.536C343.722 264.899 343.098 265.08 342.33 265.08C341.701 265.08 341.2 264.909 340.826 264.568C340.464 264.227 340.282 263.757 340.282 263.16C340.282 262.925 340.304 262.707 340.346 262.504L341.322 257.544H339.834L340.01 256.584H341.514L341.882 254.744H343.018L342.65 256.584H345.21L345.018 257.544H342.458L341.482 262.456ZM358.634 254.616L354.682 258.616C355.642 258.691 356.378 258.973 356.89 259.464C357.412 259.955 357.674 260.611 357.674 261.432C357.674 262.147 357.482 262.781 357.098 263.336C356.714 263.891 356.175 264.323 355.482 264.632C354.788 264.941 353.988 265.096 353.082 265.096C352.228 265.096 351.466 264.968 350.794 264.712C350.122 264.445 349.604 264.088 349.242 263.64L349.882 262.744C350.191 263.139 350.628 263.453 351.194 263.688C351.77 263.923 352.42 264.04 353.146 264.04C354.191 264.04 355.007 263.811 355.594 263.352C356.191 262.893 356.49 262.275 356.49 261.496C356.49 260.205 355.588 259.56 353.786 259.56H353.066L353.242 258.712L357.082 254.824H351.402L351.61 253.8H358.794L358.634 254.616ZM363.857 253.704C365.105 253.704 366.102 254.088 366.849 254.856C367.596 255.613 367.969 256.707 367.969 258.136C367.969 259.277 367.756 260.381 367.329 261.448C366.902 262.504 366.225 263.379 365.297 264.072C364.38 264.755 363.212 265.096 361.793 265.096C360.641 265.096 359.75 264.888 359.121 264.472L359.665 263.544C360.22 263.907 360.956 264.088 361.873 264.088C362.908 264.088 363.777 263.843 364.481 263.352C365.196 262.851 365.734 262.205 366.097 261.416C366.46 260.627 366.673 259.784 366.737 258.888C366.374 259.443 365.9 259.853 365.313 260.12C364.737 260.376 364.102 260.504 363.409 260.504C362.737 260.504 362.124 260.381 361.569 260.136C361.025 259.88 360.593 259.517 360.273 259.048C359.964 258.568 359.809 258.003 359.809 257.352C359.809 256.616 359.98 255.976 360.321 255.432C360.673 254.877 361.153 254.451 361.761 254.152C362.38 253.853 363.078 253.704 363.857 253.704ZM363.649 259.528C364.236 259.528 364.758 259.416 365.217 259.192C365.676 258.968 366.028 258.664 366.273 258.28C366.529 257.885 366.657 257.453 366.657 256.984C366.657 256.589 366.55 256.216 366.337 255.864C366.124 255.512 365.804 255.229 365.377 255.016C364.961 254.792 364.46 254.68 363.873 254.68C362.998 254.68 362.294 254.915 361.761 255.384C361.238 255.843 360.977 256.472 360.977 257.272C360.977 257.987 361.222 258.541 361.713 258.936C362.204 259.331 362.849 259.528 363.649 259.528ZM377.671 255.624C376.903 255.08 375.996 254.781 374.951 254.728L374.103 259C374.764 259.192 375.303 259.384 375.719 259.576C376.135 259.768 376.487 260.04 376.775 260.392C377.063 260.733 377.207 261.176 377.207 261.72C377.207 262.744 376.812 263.555 376.023 264.152C375.234 264.739 374.188 265.053 372.887 265.096L372.519 266.92H371.735L372.103 265.08C371.367 265.027 370.679 264.872 370.039 264.616C369.399 264.36 368.908 264.045 368.567 263.672L369.143 262.744C369.484 263.107 369.938 263.411 370.503 263.656C371.068 263.891 371.671 264.029 372.311 264.072L373.143 259.848C372.535 259.656 372.028 259.464 371.623 259.272C371.218 259.069 370.882 258.792 370.615 258.44C370.348 258.088 370.215 257.635 370.215 257.08C370.215 256.088 370.594 255.293 371.351 254.696C372.119 254.088 373.127 253.757 374.375 253.704L374.743 251.88H375.527L375.159 253.72C375.735 253.752 376.284 253.853 376.807 254.024C377.33 254.184 377.783 254.397 378.167 254.664L377.671 255.624ZM371.367 256.968C371.367 257.437 371.538 257.805 371.879 258.072C372.22 258.339 372.716 258.573 373.367 258.776L374.167 254.728C373.314 254.792 372.631 255.027 372.119 255.432C371.618 255.827 371.367 256.339 371.367 256.968ZM376.039 261.88C376.039 261.4 375.852 261.032 375.479 260.776C375.116 260.509 374.588 260.269 373.895 260.056L373.095 264.072C373.991 264.029 374.706 263.816 375.239 263.432C375.772 263.048 376.039 262.531 376.039 261.88Z" fill="#BD5296"/>
<defs>
<filter id="filter0_ddi" x="0" y="0" width="672" height="480" filterUnits="userSpaceOnUse" color-interpolation-filters="sRGB">
<feFlood flood-opacity="0" result="BackgroundImageFix"/>
<feColorMatrix in="SourceAlpha" type="matrix" values="0 0 0 0 0 0 0 0 0 0 0 0 0 0 0 0 0 0 127 0"/>
<feOffset dx="30" dy="30"/>
<feGaussianBlur stdDeviation="40"/>
<feColorMatrix type="matrix" values="0 0 0 0 0.215686 0 0 0 0 0.329412 0 0 0 0 0.666667 0 0 0 0.1 0"/>
<feBlend mode="normal" in2="BackgroundImageFix" result="effect1_dropShadow"/>
<feColorMatrix in="SourceAlpha" type="matrix" values="0 0 0 0 0 0 0 0 0 0 0 0 0 0 0 0 0 0 127 0"/>
<feOffset dx="-30" dy="-30"/>
<feGaussianBlur stdDeviation="40"/>
<feColorMatrix type="matrix" values="0 0 0 0 1 0 0 0 0 1 0 0 0 0 1 0 0 0 1 0"/>
<feBlend mode="normal" in2="effect1_dropShadow" result="effect2_dropShadow"/>
<feBlend mode="normal" in="SourceGraphic" in2="effect2_dropShadow" result="shape"/>
<feColorMatrix in="SourceAlpha" type="matrix" values="0 0 0 0 0 0 0 0 0 0 0 0 0 0 0 0 0 0 127 0" result="hardAlpha"/>
<feOffset dx="4" dy="4"/>
<feGaussianBlur stdDeviation="10"/>
<feComposite in2="hardAlpha" operator="arithmetic" k2="-1" k3="1"/>
<feColorMatrix type="matrix" values="0 0 0 0 1 0 0 0 0 1 0 0 0 0 1 0 0 0 0.5 0"/>
<feBlend mode="normal" in2="shape" result="effect3_innerShadow"/>
</filter>
</defs>
</svg>
