<?xml version="1.0" encoding="UTF-8"?>
<svg width="330px" height="66px" viewBox="0 0 330 66" version="1.1" xmlns="http://www.w3.org/2000/svg" xmlns:xlink="http://www.w3.org/1999/xlink">
    <!-- Generator: Sketch 59.1 (86144) - https://sketch.com -->
    <desc>Created with Sketch.</desc>
    <defs>
        <path d="M11.9981822,8.73684211 C14.0049989,8.73684211 15.6337196,10.2694737 15.6337196,12.1578947 C15.6337196,12.5992105 15.5391956,13.02 15.3755965,13.4065789 L17.5023858,15.4078947 C18.6003181,14.5457895 19.465576,13.4305263 20,12.1578947 C18.7384685,9.15421053 15.6373551,7.02631579 11.9981822,7.02631579 C10.9802318,7.02631579 10.0059077,7.19736842 9.10065894,7.50526316 L10.6712111,8.97973684 C11.0820268,8.82921053 11.5291979,8.73684211 11.9981822,8.73684211 Z M4.72710748,6.87236842 L6.38491252,8.43236842 L6.71574642,8.74368421 C5.51601909,9.62631579 4.56714383,10.7997368 4,12.1578947 C5.25789593,15.1615789 8.36264485,17.2894737 11.9981822,17.2894737 C13.1251988,17.2894737 14.2013179,17.0842105 15.1865485,16.7113158 L15.4955692,17.0021053 L17.6150875,19 L18.5421495,18.1310526 L5.65416951,6 L4.72710748,6.87236842 Z M8.74801182,10.6526316 L9.87139287,11.7097368 C9.83867303,11.8568421 9.8168598,12.0039474 9.8168598,12.1578947 C9.8168598,13.2902632 10.7948194,14.2105263 11.9981822,14.2105263 C12.1617814,14.2105263 12.3181095,14.19 12.4708021,14.1592105 L13.5941831,15.2163158 C13.1106567,15.4421053 12.5725971,15.5789474 11.9981822,15.5789474 C9.9913656,15.5789474 8.36264485,14.0463158 8.36264485,12.1578947 C8.36264485,11.6173684 8.50806635,11.1110526 8.74801182,10.6526316 Z M11.8782095,10.1155263 L14.168598,12.2707895 L14.1795047,12.1578947 C14.1795047,11.0255263 13.2015451,10.1052632 11.9981822,10.1052632 L11.8782095,10.1155263 Z" id="path-1"></path>
    </defs>
    <g id="Page-1" stroke="none" stroke-width="1" fill="none" fill-rule="evenodd">
        <g id="form/Input-field---Filled-Copy">
            <rect id="bounds" x="0" y="0" width="330" height="66"></rect>
            <g id="Border/1px" transform="translate(0.000000, 45.000000)" fill="#E0E0E0">
                <rect id="1px_border_bottom_" x="0" y="0" width="330" height="1"></rect>
            </g>
            <text id="Hint-text" font-family="Montserrat-Regular, Montserrat" font-size="16" font-weight="normal" line-spacing="24" fill="#D8D8D8">
                <tspan x="0" y="31">Hint text</tspan>
            </text>
            <g id="Material/Icons-black/visibility-off" transform="translate(298.000000, 12.000000)">
                <mask id="mask-2" fill="white">
                    <use xlink:href="#path-1"></use>
                </mask>
                <use id="Shape" fill="#CCCCCC" fill-rule="nonzero" xlink:href="#path-1"></use>
                <g id="UI/Color/Flat/Icon-Color" mask="url(#mask-2)" fill="#D8D8D8" fill-rule="evenodd">
                    <rect id="Base" x="0" y="0" width="24" height="24"></rect>
                </g>
            </g>
        </g>
    </g>
</svg>