<?xml version="1.0" encoding="UTF-8"?>
<svg width="49px" height="33px" viewBox="0 0 49 33" version="1.1" xmlns="http://www.w3.org/2000/svg" xmlns:xlink="http://www.w3.org/1999/xlink">
    <!-- Generator: Sketch 59.1 (86144) - https://sketch.com -->
    <desc>Created with Sketch.</desc>
    <g id="Page-1" stroke="none" stroke-width="1" fill="none" fill-rule="evenodd">
        <g id="logo-tt" fill-rule="nonzero">
            <path d="M13.2165138,0.674311927 C13.0366972,0.719266055 12.2724771,0.899082569 12.0926606,0.944036697 C10.5192661,1.34862385 9.08073394,1.97798165 7.73211009,2.78715596 L17.8917431,16.2733945 L13.2165138,0.674311927 Z" id="Path" fill="#1978B6"></path>
            <path d="M7.73211009,2.78715596 C6.02385321,3.82110092 4.49541284,5.2146789 3.28165138,6.83302752 C3.10183486,7.05779817 2.92201835,7.28256881 2.78715596,7.55229358 L17.8917431,16.3183486 L7.73211009,2.78715596 Z" id="Path" fill="#35A9E0"></path>
            <path d="M17.846789,16.2733945 L2.74220183,7.50733945 C1.79816514,8.94587156 1.03394495,10.5192661 0.58440367,12.2275229 C0.58440367,12.2275229 0.58440367,12.2275229 0.58440367,12.2275229 C0.58440367,12.2275229 0.58440367,12.2275229 0.58440367,12.2275229 C0.269724771,13.3513761 0.0899082569,15.0146789 0.0449541284,16.2284404 C0.0449541284,16.2284404 0.0449541284,16.2284404 0.0449541284,16.2284404 L17.846789,16.2733945 Z" id="Path" fill="#225FAD"></path>
            <path d="M17.7568807,0.494495413 C17.3972477,0.449541284 15.1495413,0.359633028 13.2165138,0.674311927 L17.8917431,16.2733945 L22.2073394,1.43853211 C20.3192661,0.944036697 19.0155963,0.629357798 17.7568807,0.494495413" id="Path" fill="#2EBAA0"></path>
            <polygon id="Path" fill="#28874E" points="17.846789 16.2733945 32.906422 6.20366972 29.9394495 4.67522936 28.006422 3.73119266"></polygon>
            <path d="M28.006422,3.73119266 C26.9724771,3.19174312 26.253211,2.92201835 25.533945,2.65229358 C24.0504587,2.06788991 23.5559633,1.93302752 22.1623853,1.43853211 L17.846789,16.2733945 L28.006422,3.73119266 Z" id="Path" fill="#2B9A97"></path>
            <path d="M41.2678899,11.1486239 C38.1211009,9.12568807 35.3788991,7.50733945 32.906422,6.1587156 C32.4119266,5.88899083 31.9174312,5.66422018 31.4229358,5.39449541 L17.846789,16.2733945 L41.2678899,11.1486239 Z" id="Path" fill="#33A55E"></path>
            <path d="M48.7752294,16.2733945 C46.5275229,14.6550459 44.3697248,13.2165138 42.3917431,11.912844 C42.0321101,11.6431193 41.6275229,11.4183486 41.2678899,11.193578 L17.8917431,16.3183486 L48.7752294,16.2733945 Z" id="Path" fill="#EFEB63"></path>
            <polygon id="Path" fill="#82C564" points="41.2678899 11.1486239 40.8183486 10.8788991 40.0091743 10.3394495 39.0651376 9.75504587 37.9412844 9.08073394 36.5477064 8.27155963 35.2889908 7.50733945 17.846789 16.2733945"></polygon>
            <polygon id="Path" fill="#E8262E" points="17.846789 16.2733945 32.8614679 26.3880734 29.9394495 27.8715596 28.0513761 28.8155963"></polygon>
            <path d="M41.2678899,21.3981651 C39.1100917,22.7917431 37.1321101,24.0055046 35.2889908,25.0394495 C34.4798165,25.4889908 33.6706422,25.9385321 32.906422,26.3431193 C32.4119266,26.612844 31.9174312,26.8376147 31.4678899,27.1073394 L17.846789,16.2733945 L41.2678899,21.3981651 Z" id="Path" fill="#F1683C"></path>
            <path d="M48.7752294,16.2733945 C46.5275229,17.8917431 44.3697248,19.3752294 42.3917431,20.6788991 C42.0321101,20.9486239 41.6275229,21.1733945 41.2678899,21.3981651 L17.8917431,16.2733945 L48.7752294,16.2733945 Z" id="Path" fill="#FCBD2A"></path>
            <polygon id="Path" fill="#F89D5F" points="41.2678899 21.3981651 39.6045872 22.4770642 37.9412844 23.466055 36.5027523 24.3201835 35.2889908 25.0394495 17.846789 16.2733945"></polygon>
            <path d="M13.2165138,31.9174312 C13.0366972,31.8724771 12.2724771,31.7376147 12.0926606,31.6477064 C10.5192661,31.2431193 9.08073394,30.6137615 7.73211009,29.8045872 L17.8917431,16.2733945 L13.2165138,31.9174312 Z" id="Path" fill="#EE2E7E"></path>
            <path d="M7.73211009,29.8045872 C6.02385321,28.7706422 4.49541284,27.3770642 3.28165138,25.7587156 C3.10183486,25.533945 2.92201835,25.3091743 2.78715596,25.0394495 L17.8917431,16.2284404 L7.73211009,29.8045872 Z" id="Path" fill="#762D8A"></path>
            <path d="M17.846789,16.2733945 L2.74220183,25.0844037 C1.79816514,23.6458716 1.03394495,22.0724771 0.58440367,20.3642202 C0.58440367,20.3642202 0.58440367,20.3642202 0.58440367,20.3642202 C0.58440367,20.3642202 0.58440367,20.3642202 0.58440367,20.3642202 C0.269724771,19.240367 0.0899082569,17.5321101 0,16.3183486 C0,16.3183486 0,16.3183486 0,16.3183486 L17.846789,16.3183486 L17.846789,16.2733945 Z" id="Path" fill="#562B7B"></path>
            <path d="M17.7568807,32.1422018 C17.3972477,32.187156 16.8577982,32.2321101 16.8577982,32.2321101 C16.6779817,32.2321101 16.0486239,32.2321101 16.0486239,32.2321101 C15.059633,32.2321101 14.1155963,32.0972477 13.1715596,31.9623853 L17.846789,16.3183486 L21.6678899,31.3330275 C21.6678899,31.3330275 21.4431193,31.4229358 21.3981651,31.4229358 C19.6899083,31.8724771 18.6110092,32.0522936 17.7568807,32.1422018" id="Path" fill="#DA5F75"></path>
            <line x1="21.712844" y1="31.2431193" x2="17.846789" y2="16.2733945" id="Path" fill="#F0597C"></line>
            <path d="M28.0513761,28.8155963 C27.0174312,29.3550459 26.253211,29.6247706 25.533945,29.8944954 C24.0504587,30.4788991 23.106422,30.793578 21.712844,31.2880734 L17.8917431,16.2733945 L28.0513761,28.8155963 Z" id="Path" fill="#EF4137"></path>
            <path d="M17.846789,16.2733945 L31.4229358,27.1073394 C31.4229358,26.8376147 30.7036697,23.5110092 30.5688073,22.6568807 L17.846789,16.2733945 Z" id="Path" fill="#F0522D"></path>
            <path d="M17.846789,16.2733945 L25.6238532,25.8486239 C27.646789,26.253211 30.0743119,26.8376147 31.4229358,27.1073394 L17.846789,16.2733945 Z" id="Path" fill="#EF3830"></path>
            <polygon id="Path" fill="#E5499A" points="7.73211009 29.8045872 17.846789 16.2733945 14.6550459 27.1073394"></polygon>
            <path d="M17.846789,16.2733945 L9.03577982,21.3981651 C8.94587156,22.0724771 8.18165138,28.1412844 7.73211009,29.8045872 L17.846789,16.2733945" id="Path" fill="#B53B88"></path>
            <polygon id="Path" fill="#6D2A84" points="0 16.2733945 17.846789 16.2733945 9.03577982 21.3981651"></polygon>
            <polygon id="Path" fill="#EE2E7E" points="14.6550459 27.1073394 17.846789 16.2733945 21.712844 31.2880734"></polygon>
            <polygon id="Path" fill="#D62228" points="25.6238532 25.8486239 17.846789 16.2733945 21.712844 31.2880734"></polygon>
            <polygon id="Path" fill="#21ACDB" points="7.73211009 2.78715596 17.846789 16.2733945 14.4302752 4.85504587"></polygon>
            <path d="M7.73211009,2.78715596 C8.2266055,6.51834862 9.1706422,11.2385321 9.1706422,11.2385321 L17.8917431,16.2733945 L7.73211009,2.78715596 Z" id="Path" fill="#2699BC"></path>
            <polygon id="Path" fill="#1E4583" points="0 16.2733945 17.846789 16.2733945 9.1706422 11.2385321"></polygon>
            <polygon id="Path" fill="#2CAA9A" points="14.4302752 4.85504587 17.846789 16.2733945 22.1623853 1.48348624"></polygon>
            <line x1="22.1623853" y1="1.48348624" x2="17.846789" y2="16.2733945" id="Path" fill="#29B784"></line>
            <polygon id="Path" fill="#33A55E" points="31.4229358 5.43944954 25.6688073 6.65321101 17.846789 16.2733945"></polygon>
            <polygon id="Path" fill="#2EBAA0" points="22.1623853 1.48348624 25.6688073 6.65321101 17.8917431 16.2284404"></polygon>
            <polygon id="Path" fill="#2EB56D" points="31.4229358 5.43944954 17.846789 16.2733945 30.8385321 9.75504587"></polygon>
            <path d="M36.5926606,16.2733945 C37.2669725,15.4642202 40.5486239,12.0926606 41.2678899,11.1486239 L17.8917431,16.2733945 L36.5926606,16.2733945 Z" id="Path" fill="#E7D555"></path>
            <polygon id="Path" fill="#68BF64" points="41.2678899 11.1486239 30.8385321 9.75504587 17.846789 16.2733945"></polygon>
            <path d="M36.5926606,16.2733945 C38.1211009,17.846789 40.5036697,20.6788991 41.2678899,21.3981651 L17.8917431,16.2733945 L36.5926606,16.2733945 Z" id="Path" fill="#FAA82D"></path>
            <polygon id="Path" fill="#F6913F" points="41.2678899 21.3981651 30.5688073 22.6568807 17.846789 16.2733945"></polygon>
            <path d="M6.24862385,23.466055 L5.61926606,23.466055 L5.61926606,25.893578 C5.61926606,25.9385321 5.57431193,25.9834862 5.5293578,25.9834862 L5.16972477,25.9834862 C5.12477064,25.9834862 5.07981651,25.9385321 5.07981651,25.893578 L5.07981651,23.466055 L4.45045872,23.466055 C4.40550459,23.466055 4.36055046,23.4211009 4.36055046,23.3761468 L4.36055046,23.0614679 C4.36055046,23.0165138 4.40550459,22.9715596 4.45045872,22.9715596 L6.24862385,22.9715596 C6.29357798,22.9715596 6.33853211,23.0165138 6.33853211,23.0614679 L6.33853211,23.3761468 C6.33853211,23.466055 6.29357798,23.466055 6.24862385,23.466055" id="Path" fill="#FFFFFF"></path>
            <path d="M8.18165138,26.0284404 L7.82201835,26.0284404 C7.77706422,26.0284404 7.73211009,25.9834862 7.73211009,25.9385321 L7.73211009,25.8486239 C7.55229358,25.9834862 7.37247706,26.0284404 7.14770642,26.0284404 C6.96788991,26.0284404 6.78807339,25.9834862 6.69816514,25.8486239 C6.56330275,25.7137615 6.51834862,25.4440367 6.51834862,25.1293578 L6.51834862,23.8256881 C6.51834862,23.7807339 6.56330275,23.7357798 6.60825688,23.7357798 L6.96788991,23.7357798 C7.01284404,23.7357798 7.05779817,23.7807339 7.05779817,23.8256881 L7.05779817,25.1293578 C7.05779817,25.3091743 7.05779817,25.4440367 7.14770642,25.533945 C7.19266055,25.5788991 7.28256881,25.6238532 7.37247706,25.6238532 C7.50733945,25.6238532 7.68715596,25.533945 7.77706422,25.4440367 L7.77706422,23.8256881 C7.77706422,23.7807339 7.82201835,23.7357798 7.86697248,23.7357798 L8.2266055,23.7357798 C8.27155963,23.7357798 8.31651376,23.7807339 8.31651376,23.8256881 L8.31651376,25.9385321 C8.27155963,25.9834862 8.2266055,26.0284404 8.18165138,26.0284404" id="Path" fill="#FFFFFF"></path>
            <path d="M10.2944954,26.0284404 L9.93486239,26.0284404 C9.88990826,26.0284404 9.84495413,25.9834862 9.84495413,25.9385321 L9.84495413,24.6348624 C9.84495413,24.2752294 9.8,24.1853211 9.53027523,24.1853211 C9.39541284,24.1853211 9.26055046,24.2302752 9.12568807,24.3201835 L9.12568807,25.9385321 C9.12568807,25.9834862 9.08073394,26.0284404 9.03577982,26.0284404 L8.67614679,26.0284404 C8.63119266,26.0284404 8.58623853,25.9834862 8.58623853,25.9385321 L8.58623853,23.8256881 C8.58623853,23.7807339 8.63119266,23.7357798 8.67614679,23.7357798 L8.99082569,23.7357798 C9.03577982,23.7357798 9.08073394,23.7807339 9.08073394,23.8256881 L9.08073394,23.9155963 C9.30550459,23.7807339 9.44036697,23.7357798 9.66513761,23.7357798 C10.2045872,23.7357798 10.2944954,24.140367 10.2944954,24.6348624 L10.2944954,25.9385321 C10.3394495,25.9834862 10.2944954,26.0284404 10.2944954,26.0284404" id="Path" fill="#FFFFFF"></path>
            <path d="M11.5324159,23.4211009 L10.8657492,23.4211009 C10.7824159,23.4211009 10.6990826,23.3761468 10.6990826,23.3311927 L10.6990826,22.9715596 C10.6990826,22.9266055 10.7824159,22.8816514 10.8657492,22.8816514 L11.5324159,22.8816514 C11.6157492,22.8816514 11.6990826,22.9266055 11.6990826,22.9715596 L11.6990826,23.3761468 C11.6990826,23.4211009 11.6157492,23.4211009 11.5324159,23.4211009 M11.5324159,26.0284404 L10.8657492,26.0284404 C10.7824159,26.0284404 10.6990826,25.9834862 10.6990826,25.9385321 L10.6990826,23.8256881 C10.6990826,23.7807339 10.7824159,23.7357798 10.8657492,23.7357798 L11.5324159,23.7357798 C11.6157492,23.7357798 11.6990826,23.7807339 11.6990826,23.8256881 L11.6990826,25.9385321 C11.6990826,25.9834862 11.6157492,26.0284404 11.5324159,26.0284404" id="Shape" fill="#FFFFFF"></path>
            <path d="M12.2724771,26.0284404 C12.1376147,26.0284404 11.8229358,26.0284404 11.5981651,25.9385321 C11.553211,25.9385321 11.5082569,25.893578 11.5082569,25.8486239 L11.5082569,25.6238532 C11.5082569,25.5788991 11.553211,25.5788991 11.553211,25.5788991 L11.553211,25.5788991 C11.7330275,25.6238532 12.0477064,25.6238532 12.1825688,25.6238532 C12.4073394,25.6238532 12.4522936,25.533945 12.4522936,25.4440367 C12.4522936,25.3541284 12.4073394,25.3091743 12.2724771,25.2192661 L11.7779817,24.859633 C11.5981651,24.7247706 11.4633028,24.5449541 11.4633028,24.3201835 C11.4633028,23.9155963 11.6880734,23.7357798 12.1825688,23.7357798 C12.4972477,23.7357798 12.6321101,23.7807339 12.8568807,23.8256881 C12.9018349,23.8256881 12.9018349,23.8706422 12.9018349,23.9155963 L12.9018349,24.140367 C12.9018349,24.1853211 12.8568807,24.2302752 12.8568807,24.2302752 L12.8568807,24.2302752 C12.7669725,24.2302752 12.4522936,24.1853211 12.2275229,24.1853211 C12.0477064,24.1853211 11.9577982,24.2302752 11.9577982,24.3651376 C11.9577982,24.4100917 12.0027523,24.4550459 12.0926606,24.5449541 L12.587156,24.859633 C12.9018349,25.0844037 12.946789,25.2642202 12.946789,25.4889908 C12.9917431,25.7587156 12.7669725,26.0284404 12.2724771,26.0284404" id="Path" fill="#FFFFFF"></path>
            <path d="M14.1397554,23.4211009 L13.4730887,23.4211009 C13.3897554,23.4211009 13.306422,23.3761468 13.306422,23.3311927 L13.306422,22.9715596 C13.306422,22.9266055 13.3897554,22.8816514 13.4730887,22.8816514 L14.1397554,22.8816514 C14.2230887,22.8816514 14.306422,22.9266055 14.306422,22.9715596 L14.306422,23.3761468 C14.306422,23.4211009 14.2230887,23.4211009 14.1397554,23.4211009 M14.1397554,26.0284404 L13.4730887,26.0284404 C13.3897554,26.0284404 13.306422,25.9834862 13.306422,25.9385321 L13.306422,23.8256881 C13.306422,23.7807339 13.3897554,23.7357798 13.4730887,23.7357798 L14.1397554,23.7357798 C14.2230887,23.7357798 14.306422,23.7807339 14.306422,23.8256881 L14.306422,25.9385321 C14.2230887,25.9834862 14.2230887,26.0284404 14.1397554,26.0284404" id="Shape" fill="#FFFFFF"></path>
            <path d="M15.8238532,25.0394495 L14.6100917,25.0394495 L14.6100917,25.0394495 C14.6100917,25.2642202 14.7,25.533945 15.059633,25.533945 C15.3293578,25.533945 15.5990826,25.4889908 15.733945,25.4889908 L15.733945,25.4889908 C15.7788991,25.4889908 15.7788991,25.4889908 15.7788991,25.533945 L15.7788991,25.8036697 C15.7788991,25.8486239 15.7788991,25.893578 15.6889908,25.893578 C15.4642202,25.9385321 15.2844037,25.9834862 14.9697248,25.9834862 C14.6100917,25.9834862 14.0706422,25.7587156 14.0706422,24.9495413 L14.0706422,24.7247706 C14.0706422,24.0954128 14.3853211,23.6908257 14.9697248,23.6908257 C15.5541284,23.6908257 15.8238532,24.0954128 15.8238532,24.7247706 L15.8238532,24.9495413 C15.9137615,25.0394495 15.8688073,25.0394495 15.8238532,25.0394495 M15.4192661,24.6798165 C15.4192661,24.3651376 15.2394495,24.1853211 15.0146789,24.1853211 C14.7899083,24.1853211 14.6100917,24.3651376 14.6100917,24.6798165 L14.6100917,24.6798165 L15.4192661,24.6798165 L15.4192661,24.6798165 Z" id="Shape" fill="#FFFFFF"></path>
            <path d="M18.7908257,23.466055 L18.1614679,23.466055 L18.1614679,25.893578 C18.1614679,25.9385321 18.1165138,25.9834862 18.0715596,25.9834862 L17.7119266,25.9834862 C17.6669725,25.9834862 17.6220183,25.9385321 17.6220183,25.893578 L17.6220183,23.466055 L16.9926606,23.466055 C16.9477064,23.466055 16.9027523,23.4211009 16.9027523,23.3761468 L16.9027523,23.0614679 C16.9027523,23.0165138 16.9477064,22.9715596 16.9926606,22.9715596 L18.7908257,22.9715596 C18.8357798,22.9715596 18.8807339,23.0165138 18.8807339,23.0614679 L18.8807339,23.3761468 C18.8357798,23.466055 18.8357798,23.466055 18.7908257,23.466055" id="Path" fill="#FFFFFF"></path>
            <path d="M20.7238532,25.0394495 L19.5100917,25.0394495 L19.5100917,25.0394495 C19.5100917,25.2642202 19.6,25.533945 19.959633,25.533945 C20.2293578,25.533945 20.4990826,25.4889908 20.633945,25.4889908 L20.633945,25.4889908 C20.6788991,25.4889908 20.6788991,25.4889908 20.6788991,25.533945 L20.6788991,25.8036697 C20.6788991,25.8486239 20.6788991,25.893578 20.5889908,25.893578 C20.3642202,25.9385321 20.1844037,25.9834862 19.8697248,25.9834862 C19.5100917,25.9834862 18.9706422,25.7587156 18.9706422,24.9495413 L18.9706422,24.7247706 C18.9706422,24.0954128 19.2853211,23.6908257 19.8697248,23.6908257 C20.4541284,23.6908257 20.7238532,24.0954128 20.7238532,24.7247706 L20.7238532,24.9495413 C20.7688073,25.0394495 20.7688073,25.0394495 20.7238532,25.0394495 M20.3192661,24.6798165 C20.3192661,24.3651376 20.1394495,24.1853211 19.9146789,24.1853211 C19.6899083,24.1853211 19.5100917,24.3651376 19.5100917,24.6798165 L19.5100917,24.6798165 L20.3192661,24.6798165 L20.3192661,24.6798165 Z" id="Shape" fill="#FFFFFF"></path>
            <path d="M21.5330275,26.0284404 L21.1733945,26.0284404 C21.1284404,26.0284404 21.0834862,25.9834862 21.0834862,25.9385321 L21.0834862,23.0165138 C21.0834862,22.9715596 21.1284404,22.9266055 21.1733945,22.9266055 L21.5330275,22.9266055 C21.5779817,22.9266055 21.6229358,22.9715596 21.6229358,23.0165138 L21.6229358,25.9385321 C21.6229358,25.9834862 21.5779817,26.0284404 21.5330275,26.0284404" id="Path" fill="#FFFFFF"></path>
            <path d="M23.6458716,25.0394495 L22.4321101,25.0394495 L22.4321101,25.0394495 C22.4321101,25.2642202 22.5220183,25.533945 22.8816514,25.533945 C23.1513761,25.533945 23.4211009,25.4889908 23.5559633,25.4889908 L23.5559633,25.4889908 C23.6009174,25.4889908 23.6458716,25.4889908 23.6458716,25.533945 L23.6458716,25.8036697 C23.6458716,25.8486239 23.6458716,25.893578 23.5559633,25.893578 C23.3311927,25.9385321 23.1963303,25.9834862 22.8366972,25.9834862 C22.4770642,25.9834862 21.9376147,25.7587156 21.9376147,24.9495413 L21.9376147,24.7247706 C21.9376147,24.0954128 22.2522936,23.6908257 22.8366972,23.6908257 C23.4211009,23.6908257 23.6908257,24.0954128 23.6908257,24.7247706 L23.6908257,24.9495413 C23.6908257,25.0394495 23.6908257,25.0394495 23.6458716,25.0394495 M23.2412844,24.6798165 C23.2412844,24.3651376 23.0614679,24.1853211 22.8366972,24.1853211 C22.6119266,24.1853211 22.4321101,24.3651376 22.4321101,24.6798165 L22.4321101,24.6798165 L23.2412844,24.6798165 L23.2412844,24.6798165 Z" id="Shape" fill="#FFFFFF"></path>
            <path d="M25.2642202,25.9834862 C25.1743119,26.0284404 24.9944954,26.0284404 24.7697248,26.0284404 C24.2752294,26.0284404 23.9155963,25.7137615 23.9155963,25.0394495 L23.9155963,24.6798165 C23.9155963,24.0055046 24.2752294,23.6908257 24.7697248,23.6908257 C24.9944954,23.6908257 25.1743119,23.7357798 25.2642202,23.7357798 C25.3091743,23.7357798 25.3541284,23.7807339 25.3541284,23.8256881 L25.3541284,24.0954128 C25.3541284,24.140367 25.3091743,24.140367 25.3091743,24.140367 L25.3091743,24.140367 C25.1743119,24.140367 25.0844037,24.0954128 24.8146789,24.0954128 C24.6348624,24.0954128 24.4550459,24.1853211 24.4550459,24.6348624 L24.4550459,24.9944954 C24.4550459,25.3990826 24.6348624,25.533945 24.8146789,25.533945 C25.0394495,25.533945 25.1293578,25.533945 25.3091743,25.4889908 L25.3091743,25.4889908 C25.3541284,25.4889908 25.3541284,25.4889908 25.3541284,25.533945 L25.3541284,25.8036697 C25.3541284,25.9385321 25.3091743,25.9834862 25.2642202,25.9834862" id="Path" fill="#FFFFFF"></path>
            <path d="M26.4779817,26.0284404 C25.893578,26.0284404 25.5788991,25.6238532 25.5788991,25.0394495 L25.5788991,24.7247706 C25.5788991,24.140367 25.893578,23.7357798 26.4779817,23.7357798 C27.0623853,23.7357798 27.3321101,24.1853211 27.3321101,24.7247706 L27.3321101,25.0394495 C27.3321101,25.6238532 27.0623853,26.0284404 26.4779817,26.0284404 M26.8825688,24.7247706 C26.8825688,24.4100917 26.7477064,24.1853211 26.4779817,24.1853211 C26.2082569,24.1853211 26.0733945,24.4100917 26.0733945,24.7247706 L26.0733945,25.0394495 C26.0733945,25.3541284 26.2082569,25.5788991 26.4779817,25.5788991 C26.7477064,25.5788991 26.8825688,25.3541284 26.8825688,25.0394495 L26.8825688,24.7247706 Z" id="Shape" fill="#FFFFFF"></path>
            <path d="M30.2541284,26.0284404 L29.8944954,26.0284404 C29.8495413,26.0284404 29.8045872,25.9834862 29.8045872,25.9385321 L29.8045872,24.5449541 C29.8045872,24.2302752 29.759633,24.140367 29.5348624,24.140367 C29.4449541,24.140367 29.3100917,24.1853211 29.1752294,24.2302752 C29.1752294,24.3201835 29.1752294,24.4100917 29.1752294,24.5 L29.1752294,25.893578 C29.1752294,25.9385321 29.1302752,25.9834862 29.0853211,25.9834862 L28.7256881,25.9834862 C28.6807339,25.9834862 28.6357798,25.9385321 28.6357798,25.893578 L28.6357798,24.5 C28.6357798,24.1853211 28.5908257,24.0954128 28.366055,24.0954128 C28.2761468,24.0954128 28.1862385,24.140367 28.006422,24.2302752 L28.006422,25.8486239 C28.006422,25.893578 27.9614679,25.9385321 27.9165138,25.9385321 L27.5568807,25.9385321 C27.5119266,25.9385321 27.4669725,25.893578 27.4669725,25.8486239 L27.4669725,23.8256881 C27.4669725,23.7807339 27.5119266,23.7357798 27.5568807,23.7357798 L27.8715596,23.7357798 C27.9165138,23.7357798 27.9614679,23.7807339 27.9614679,23.8256881 L27.9614679,23.9155963 C28.0963303,23.8256881 28.2761468,23.7357798 28.5009174,23.7357798 C28.7256881,23.7357798 28.8605505,23.8256881 28.9504587,23.9155963 C29.1302752,23.7807339 29.3100917,23.7357798 29.5348624,23.7357798 C30.0293578,23.7357798 30.1642202,24.0954128 30.1642202,24.5899083 L30.1642202,25.9834862 C30.2990826,25.9834862 30.2541284,26.0284404 30.2541284,26.0284404" id="Path" fill="#FFFFFF"></path>
            <path d="M4.45045872,9.62018349 L4.45045872,11.1486239 L8.5412844,11.1486239 L8.5412844,19.7348624 C8.5412844,21.3981651 9.57522936,21.9825688 10.7889908,21.9825688 L12.4972477,21.9825688 L12.4972477,11.1486239 L14.5201835,11.1486239 C15.733945,11.1486239 16.7229358,10.0247706 16.7229358,9.03577982 L16.7229358,7.50733945 L6.65321101,7.50733945 C5.2146789,7.50733945 4.45045872,8.67614679 4.45045872,9.62018349" id="Path" fill="#FFFFFF"></path>
            <path d="M20.2293578,7.55229358 C18.7908257,7.55229358 17.9816514,8.67614679 17.9816514,9.66513761 L17.9816514,11.193578 L22.0724771,11.193578 L22.0724771,19.7798165 C22.0724771,21.4431193 23.106422,22.0275229 24.3201835,22.0275229 L26.0733945,22.0275229 L26.0733945,11.1486239 L28.0963303,11.1486239 C29.3100917,11.1486239 30.2990826,10.0247706 30.2990826,9.03577982 L30.2990826,7.50733945 L20.2293578,7.50733945 L20.2293578,7.55229358 Z" id="Path" fill="#FFFFFF"></path>
        </g>
    </g>
</svg>